<?xml version="1.0" standalone="no"?>
<!DOCTYPE svg PUBLIC "-//W3C//DTD SVG 1.1//EN" "http://www.w3.org/Graphics/SVG/1.1/DTD/svg11.dtd" >
<svg xmlns="http://www.w3.org/2000/svg" xmlns:xlink="http://www.w3.org/1999/xlink" version="1.1">
<metadata>
Created by FontForge 20190801 at Mon Dec 19 19:44:21 2011
 By Jimmy Wärting
Copyright (c) 2011, Typomondo, with Reserved Font Name "Eater"
</metadata>
<defs>
<font id="Eater-Regular" horiz-adv-x="1641" >
  <font-face 
    font-family="Eater"
    font-weight="400"
    font-stretch="normal"
    units-per-em="2048"
    panose-1="0 0 0 0 0 0 0 0 0 0"
    ascent="1638"
    descent="-410"
    x-height="1688"
    cap-height="1759"
    bbox="-508 -919 3300 2898"
    underline-thickness="102"
    underline-position="-205"
    unicode-range="U+000D-FB02"
  />
<missing-glyph horiz-adv-x="532" 
 />
    <glyph glyph-name=".notdef" horiz-adv-x="532" 
 />
    <glyph glyph-name=".null" horiz-adv-x="0" 
 />
    <glyph glyph-name="nonmarkingreturn" horiz-adv-x="682" 
 />
    <glyph glyph-name="NULL" horiz-adv-x="532" 
 />
    <glyph glyph-name="NULL" horiz-adv-x="532" 
 />
    <glyph glyph-name="CR" unicode="&#xd;" horiz-adv-x="532" 
 />
    <glyph glyph-name="space" unicode=" " horiz-adv-x="532" 
 />
    <glyph glyph-name="exclam" unicode="!" horiz-adv-x="657" 
d="M269 1710l27 -12q57 -27 69 -27q7 0 35 41l76 -65l-19 -23l-18 -25q0 -7 13 -14.5t24.5 -7.5t50.5 16l20 -71q-36 -12 -46.5 -22t-10.5 -25q-6 -123 -22.5 -213t-33 -273.5t-44.5 -279.5q2 -2 18 -35l-41 -23l-14 21l-17 -13l-28 33l24 23q-2 -2 -3 1.5t-7 13.5
q-14 25 -14 32l-27 -17l-24 39q20 17 25 17t5 -2v28q0 123 -61 361l-25 112l-18 23q-1 5 -2.5 7t-1.5 3l8 10q-23 67 -23 111.5t9.5 73.5t9.5 33q0 14 -43 45l43 61q36 -31 55.5 -31t38.5 17l-27 14zM429 545l4 -21q16 -51 37 -69.5t57 -18.5l-2 -123q-35 0 -55 -10
q11 -18 34 -45l-65 -51q-36 41 -51 41q-23 -14 -23 -58l-104 3q0 27 -27 51l-49 -27l-35 51l23 23q-2 0 -2 2l6 10l6 -4l2 4l-6 4q20 53 24 96q-2 17 -32 52l84 86q37 -35 55 -35q-4 0 -4 22v31h71q3 -49 17 -63l-12 36zM222 276h-6l-2 -6z" />
    <glyph glyph-name="quotedbl" unicode="&#x22;" horiz-adv-x="871" 
d="M379 1599l2 -139h2v-139q0 -121 -76 -227q-37 -33 -28 -54q2 -4 -2 -4h-19h-29l-49 -14q3 324 10 647q4 0 26 19.5t44 37.5l74 -28q26 -45 26 -47zM719 1599l2 -139h2v-139q0 -121 -76 -227l-23 -21q0 -6 27 -49l-43 -33q-10 12 -19 25q-15 20 -20 20l-49 -14
q3 324 10 647q4 0 26 19.5t44 37.5l74 -28q26 -45 26 -47z" />
    <glyph glyph-name="numbersign" unicode="#" horiz-adv-x="1639" 
d="M1347 952l-61 2h-58q-74 0 -124 -14l-41 -104h237q15 0 30.5 2t22.5 0t10 0q10 7 29 53l64 -4q-21 -53 -21 -68.5t22.5 -15.5t61.5 8v-63q-60 -7 -71 -13l-15 -18q-6 -6 -6 -11t29 -44l-49 -44q-34 46 -38.5 46t-11.5 -2q-105 -35 -233 -35l-131 6l-16 -58
q-47 -160 -119 -256q-23 -25 -23 -67v-37h-63q-2 67 -29 100l-35 -8l-6 47q14 6 27 6v2l96 275q-86 0 -203 -10l-47 -4q0 -4 -10 -48h-27l-14 -51q-8 -27 -26 -77q-43 -114 -43.5 -140.5t8.5 -75.5l-89 -18q-7 32 -22 66t-31 34l-57 -8l-19 60q63 24 74 57l-2 -2q5 24 33 91
t35 89h-29l-176 10q-6 0 -21 -45l-63 4q16 55 16 62v2l-10 4q-10 0 -57 -19l-29 56q80 30 70 42q-9 12 2 17q0 8 -54 55l58 33q39 -33 45 -33q40 15 98 15h168q5 2 35 20l35 21l16 43q10 29 17 43q-5 0 -7 2h-170h-6t-9.5 -1t-11.5 -5q-12 -9 -20 -49l-61 4l4 55
q0 7 -10.5 12.5t-24 5.5t-55.5 -18l-29 59q64 18 76 41l8 19q8 28 8 36t-32 62l67 37q37 -53 68 -53h260q21 35 64 166t94 186q10 13 10 78h53q2 -23 2 -45.5t-4 -22.5l20 -18q4 0 66 26l4 -61l-45 -19v-26q0 -60 -57 -208q-1 -3 -2 -5t-2 -5t-2 -5v2q-4 -10 -8 -15t-7 -14
l119 -14q109 0 145 18l107 281q6 30 6 46t-16 60l61 23q27 -75 53 -92l21 -9l41 23l24 -39q-45 -30 -45 -31q-21 -37 -42 -132t-31 -126l77 -6q80 0 118.5 14t55.5 58l99 -37q-8 -22 -11.5 -40t-7.5 -20q22 0 62 15l4 -60l-23 -8l2 -2l-8 -8l4 -53l-37 37l-6 -17
q0 -13 41 -49l-51 -49q-34 39 -47 39zM614 825l2 -4h82q129 0 197 8q5 29 24 60v18h-4q-16 31 -16 41v2h-60q-13 -2 -15.5 -14t-2.5 -35h-80q0 35 -3.5 42t-16.5 7h-2q-53 -37 -68 -57l-25 -51l-2 -6l-8 -13zM934 819l-27 -8l35 -6q2 0 2 2t-10 12zM776 362h-14l10 -4z
M778 367q0 -2 -2 -5q2 3 2 5z" />
    <glyph glyph-name="dollar" unicode="$" horiz-adv-x="1190" 
d="M546 479l-2 183v186q-2 25 -107 69.5t-182.5 156.5t-77.5 239q0 34 33 117l-2 -3q16 32 16 46.5t-43 42.5l45 63q39 -29 50.5 -29t50 34.5t38.5 53t-20 54.5l70 37q17 -32 26 -42t17 -10t12 2l67 11q0 2 0.5 6t0 6.5t-1.5 6.5t-4.5 8t-9.5 9q-14 10 -40 21l4 65
q51 -20 63.5 -20t18.5 6h-2q19 24 21 84h61v-43q0 -31 12 -45h-2q5 -8 14.5 -8t55.5 14l22 -61q-39 -13 -48 -23t-9 -30v-7q89 -26 197 -100q57 100 78 100t33 -38t12 -70t-3.5 -88.5t-11.5 -123.5q-19 -157 -63 -157q-35 0 -94 156q-56 139 -105 174q-18 14 -63 37v-318
q0 -76 14 -139q126 -30 213 -111q166 -155 166 -423q0 -88 -62.5 -170t-152.5 -130.5t-178 -56.5q4 -32 4 -42.5t-14.5 -32.5t-14.5 -33t10 -62l-57 -2q-13 49 -15.5 54t-15.5 12q-9 0 -71 -35l-5 65q42 22 46 27v10l2 13l-2 14v4l-29 10l2 8q-114 7 -242 64h-4q-10 0 -22 4
q-12 -4 -39 -33l-54 51q27 24 33 39l-4 17l-37 -8l-12 43q26 12 35 12h2q4 17 14 81t32 156.5t26 176.5h61q-12 -60 -5.5 -92.5t7.5 -39.5l14 -81q1 -6 13 -66t36 -103q47 -82 177 -126v61zM666 362q0 -3 5 -38q51 15 72.5 27t66.5 55v-3l35 35v-2l12 39q2 8 6 26
q8 35 19 48q-18 123 -36 147t-32 32q-54 30 -111 87h2q-15 5 -26 8l-6 -39q-7 -35 -7 -57v-365zM546 1458l2 64v51l-80 -17q-12 -3 -48 -50.5t-39 -56.5t-3 -44v-14l-2 -31l10 -31l-2 2l6 -20v4q28 -101 152 -156v21l6 147l-2 33v98zM566 274h-6q-3 0 -10 -12l12 -20z" />
    <glyph glyph-name="percent" unicode="%" horiz-adv-x="1495" 
d="M436 1364q238 -65 238 -317q0 -62 -45.5 -129t-113.5 -111.5t-130 -44.5q-133 0 -225 79.5t-92 213.5q0 98 44 173.5t121 114.5q48 27 48 64l-2 31l92 4q4 -37 19.5 -53.5t47.5 -26.5zM1400.5 650q37.5 -77 37.5 -147.5t-48.5 -138.5t-118.5 -112.5t-130 -44.5
q-124 0 -222 86t-98 211q0 9 31 112q46 114 107.5 163.5t162.5 49.5t171 -51t107.5 -128zM1130 1319h19t72 22l4 -67q-63 -21 -86 -57q-58 -87 -215.5 -288.5t-277.5 -357t-120 -174.5q0 -22 -39 -62.5t-49 -50.5t-25.5 -25t-21.5 -21l33 -19l-2 -2l8 -4l-24 -37v-2
q-5 2 -7 4l9 17l-11 -15q-62 37 -90 37t-61 -12l-29 102q40 8 64 19l-29 24l35 64q36 -29 51 -29l-16 -16h30l-14 16q4 0 14 10q93 89 192.5 220.5t205.5 280.5t186 241l125 155q8 8 8 20t-14 60l57 4q16 -57 18 -57zM416 1253h-86q-72 -36 -84 -39q-23 -30 -41.5 -83.5
t-18.5 -76t1.5 -30t5.5 -16t7.5 -15t10.5 -16t10.5 -14.5t13 -15t12.5 -13t13.5 -14t11.5 -12l33 -14q41 -18 69 -18t77 27.5t61.5 40.5t29.5 53.5t17 56.5q0 66 -70 166zM1311 487l10 25q-4 4 -4 12l-4 19q-31 74 -52.5 100t-91.5 55h-41l-14 -22l-31 18q-27 -22 -61 -32
q-24 -33 -47.5 -86.5t-26.5 -86.5l15 -53q14 -13 27 -26.5t18 -18.5h-2l28 -31l29 -12h4v19h45v-31q8 -4 16 -4q29 13 52 19.5t32 8.5q20 7 74 50q14 44 27 79z" />
    <glyph glyph-name="ampersand" unicode="&#x26;" horiz-adv-x="1065" 
d="M431 187l-14 35l32 22v52l2 26q-1 2 -2 7t-3 9q-4 9 -11.5 9t-46.5 -8l-2 71q43 5 51 13v43l2 43q0 15 -4 53l-16 18l-250 -4v-12h-17l-28 -31l-52 27q40 54 45 72q-13 63 -67 102l59 84q16 -14 47 -31v35l70 2q3 -40 10 -51h-2q6 -8 57.5 -8t68.5 2t28.5 9t15.5 9.5
t11.5 13t7.5 11.5v-2l12 22q-5 5 -5 85l-6 15l-2 14l-1 12l-33 23q59 82 63 178h97q0 -117 22 -117q14 0 53 17l21 -74q-36 -13 -44.5 -22t-8.5 -27l-3 -157l130 4l30 -2h33q93 0 158 53l61 -82q-50 -39 -72 -100q17 -29 37 -49l-39 -56q-20 15 -33 27q-21 19 -40 19
l-125 -9h-41l-43 2q-39 0 -58 -2l-2 -110v-43q0 -71 -14 -119v4q-2 -2 -2 -12t10 -25l-3 -81q-3 0 -8 -30l-130 -3q0 21 -6 24z" />
    <glyph glyph-name="quotesingle" unicode="'" horiz-adv-x="532" 
d="M380 1599l2 -139h2v-139q0 -121 -76 -227l-23 -21q0 -6 27 -49l-43 -33q-11 12 -19 25q-15 20 -20 20l-49 -14q3 324 10 647q4 0 26 19.5t44 37.5l74 -28q26 -45 26 -47z" />
    <glyph glyph-name="parenleft" unicode="(" horiz-adv-x="626" 
d="M531 -283q-38 68 -53 68q-7 0 -43 -33l-53 53q37 32 37 38t-1 8q-32 63 -95.5 170.5t-98.5 171t-64.5 163.5t-29.5 203v45q0 4 -20 43l26 6v45q0 177 59 368t160 357l-2 2l8 9v-2l37 59q-2 2 -6 4l-28 25l61 71q24 -24 35 -39q53 43 112 43h9l34 25l29 -37l-33 -27
q-8 -42 -74 -125t-110 -153t-81 -144q-85 -173 -85 -407t54 -426.5t200 -366.5q9 -12 20 -12t48 15l26 -66q-36 -15 -45.5 -23.5t-9.5 -21.5v-10q0 -25 41 -95z" />
    <glyph glyph-name="parenright" unicode=")" horiz-adv-x="639" 
d="M110 1657q35 -58 44 -58h7q9 0 41 35l56 -41q-37 -38 -37 -45t6 -16l27 -41v2q156 -237 193 -357q44 -142 44 -292v-211q0 -4 -37.5 -163.5t-40.5 -168.5q-77 -179 -128 -264q-89 -151 -220 -248l6 -29l-45 -14v4q0 -5 -6 -14l-41 10l4 23l4 16l-53 -21l-2 56
q28 12 41 12h4q-24 16 -59 33l37 59q42 -14 53.5 -14t34.5 18q73 59 133 178.5t94 252.5q72 276 72 472q1 19 -7 69.5t-10 72.5l-6 53q-1 11 -7 44q-11 67 -9 97q-21 28 -47.5 75.5t-32.5 57.5l-25 41q-13 21 -37 55t-37 54q-36 54 -36 106l2 25q0 7 -21 55z" />
    <glyph glyph-name="asterisk" unicode="*" horiz-adv-x="1052" 
d="M585 1126l16 -153q0 -32 -5 -49.5t-6 -23.5q-9 -29 -15 -42v2q-4 -12 -4 -26t18 -72l-57 -4q-20 55 -39 71q4 -56 4 -75q-47 47 -50 53t-5 8l-15 -14l-30 43l-5 94q27 1 37.5 21.5t12.5 60.5h2q3 33 26 113q-3 3 -6 10l-63 -49q-76 -59 -156 -88q-8 -4 -20 -58l-60 2
q17 58 17 68v4h-3q-2 0 -4 4h-10q-26 -4 -55 -4l-2 55q55 10 58 10h1l21 37q16 26 16 36.5t-31 56.5l78 43q27 -48 53.5 -48t33.5 0.5t21 3.5q19 4 52 33q-8 6 -19 19l-57 22h2q-55 21 -73 21t-58 -29l-63 74q41 32 41 55q0 17 -66 37l29 82q33 -14 57 -14v53h72v-35l18 -25
l-6 -6l16 -14v2q76 -40 164 -133q4 36 4 67l-2 37v56l2 30q0 9 -51 29l25 63q37 -16 48.5 -16t14.5 6l23 25l-6 8v-2l-13 22l39 27l8 -14l13 20l41 -22l-19 -39l10 -19q31 -58 31 -92q0 -84 -26 -207q25 14 88.5 64.5t109.5 68.5q9 5 23 60l59 -2q-13 -62 -10 -68q-4 0 -6 2
l16 -16q4 -4 20.5 -4t57.5 6l2 -59q-61 -10 -68 -21h2q-33 -64 -104 -92q-24 -9 -68 -21v2q-6 -2 -23.5 -8t-24.5 -9q-21 -6 -46 -23q53 -32 123 -52l-2 2l47 -18h10q8 0 39 37l58 -31q-39 -47 -39 -52t6 -16l4 -14l-2 10q7 -10 65 -16l-2 -61h-41q-32 0 -32 -37
q0 -13 12 -60l-74 -4q-11 66 -44 87.5t-154 115.5v-2z" />
    <glyph glyph-name="plus" unicode="+" horiz-adv-x="960" 
d="M70 629l-5 17q0 5 -11 5h-50v58q45 3 48 4q-9 26 -35 53l51 51q40 -43 70 -43l71 6l152 -6l16 31q12 25 15 22v91q0 32 -68 45l14 81q8 -2 32 -2t37 18t13 75h64q0 -37 2 -50l6 -4l-4 -6q6 -31 20 -45l8 -16q12 -15 15 -15l-2 2q0 3 61 23l4 -61q-47 -16 -47 -23v-164
h137q21 0 31 2l-22 15l26 38q84 -53 117.5 -53t65.5 15l49 -99q-45 -23 -60 -49q7 -16 39 -45l-51 -53q-41 41 -72 41l-159 -13q-66 0 -101 5v-5l2 -124v-29q0 -96 51 -164l-71 -53q-31 38 -78 61q-12 -6 -47 -33l-47 48q22 22 28 32l5 23l8 -2q4 8 4 24l-2 25l2 178
q-7 2 -25 12.5t-41 10.5h-149q-5 0 -17 3t-19 1q-20 -4 -61 -56l-53 31q33 51 33 66z" />
    <glyph glyph-name="comma" unicode="," horiz-adv-x="725" 
d="M361 242q-42 -2 -80 -45l-92 75q28 27 39 54q-25 13 -56 16l2 96h9q32 0 51 17l-27 37l47 43l21 -23q0 4 2 6l43 -18l-4 -6q5 0 26 8q7 3 9 57h61q0 -59 6 -61q18 -5 47.5 -22t46 -17t48.5 22l47 -67q-43 -32 -43 -48t6 -28v-12q4 -15 4 -25q0 -73 -41 -157.5t-99 -136
t-95.5 -69t-106.5 -30.5q-15 0 -21 -2v-4q0 -19 -6 -49l-57 2q8 52 8 57v2l2 2l-8 2q-6 0 -72 -14l-2 57q62 14 66.5 20.5t13 15t15.5 15t19.5 15t19 12.5t20.5 13t41.5 26.5t49 40t60.5 92.5v2q-5 13 -20 29z" />
    <glyph glyph-name="hyphen" unicode="-" horiz-adv-x="906" 
d="M152 575l23 35l-2 6h-16v43q-5 -6 -19 -6h-8v47h14q9 0 13 -8v13q0 8 -52 38l27 50q47 -28 47 -31v-2q55 31 72 31l190 -7h86q76 0 109 66l90 -47q-14 -26 -14 -39l32 12v-59l-28 -8q5 -13 18 -33l-35 -25l43 -24l-4 -64l-59 27v-8q0 -18 10 -45l-72 -19q-19 74 -94 74
l-55 -2q-42 0 -127.5 -4t-132.5 -4q2 -2 2 -4t2 -1q-4 -5 -25 -28z" />
    <glyph glyph-name="period" unicode="." horiz-adv-x="616" 
d="M416 403l20 52l43 -17q-30 -75 -30 -103.5t34 -58.5l-81 -83q-26 24 -45 32q-5 -10 -5 -45h-75q0 37 -4 47q-21 -5 -39 -30l-78 65q18 22 22 31q-12 2 -45 2l-2 86q37 0 62 18q-3 25 -27 56l72 61q34 -37 61 -37q19 19 29 58l69 -17q-12 -36 -12 -56.5t17 -39.5z" />
    <glyph glyph-name="slash" unicode="/" horiz-adv-x="765" 
d="M-24 -190l2 38q0 4 -7.5 16t-15 14.5t-59.5 2.5v60q64 0 67 8q60 90 209 506q54 153 84 213q10 53 162 381t178 428q0 14 -41 39l25 61q46 -25 50.5 -25t4.5 2l2 -2q4 8 4 27l-2 49h60q4 -62 14 -82q16 -12 37.5 -12t56.5 12l4 -71q-58 -13 -61 -31q-25 -90 -91 -223
l-71 -142q-147 -295 -310 -735q-115 -311 -218 -450l14 -7l-14 -43l-31 11l-6 -48z" />
    <glyph glyph-name="zero" unicode="0" horiz-adv-x="1189" 
d="M169 660q69 32 72 54q-3 8 -15 20q-55 42 -59 144q0 8 -6 16q-34 34 -34 138t-33 178t-82 107l26 41q33 -26 86.5 -26t82.5 38q2 69 63 98q29 13 59 21q97 26 149.5 50t87.5 24q95 0 197 -41.5t145 -98.5q14 -52 45 -88q57 -63 57 -141q0 -29 16 -58.5t42.5 -29.5
t58.5 12l8 -24q-45 -15 -58.5 -26.5t-13.5 -29.5l9 -81q0 -65 -44.5 -175.5t-49 -136t-4.5 -34.5q0 -29 65 -59l-10 -21q-46 21 -65 21t-31 -16q-106 -174 -148 -232q-16 -12 -16 -31t16 -63l-20 -8q-17 49 -29 61t-33 12h-6q-28 0 -44.5 -13.5t-33.5 -61.5l-30 12
q14 41 14 66t-23 38t-52 15q-81 6 -109 61q-1 2 -11.5 31t-26.5 49.5t-35.5 30t-50.5 11t-47 5.5l4 12l40 -2q17 0 30 12t13 31.5t-35.5 56t-50.5 36.5t-72 -21zM296 1149q-19 0 -19 -25v-90q0 -24 33 -88q101 -196 105 -259q0 -8 4 -14l22 -29q15 -22 35.5 -22t56.5 22
l19 -27q-53 -31 -53 -55q0 -13 4.5 -20.5t6.5 -13.5t2.5 -8.5t3 -6.5t5.5 -5q9 -5 18 -5h13q22 0 37 -12.5t18 -12.5h55q9 0 11 2l32 17q2 1 16 29q48 97 62 113t16.5 46t12.5 37q7 14 12.5 52t15 51.5t9.5 19.5l10 97q0 125 -66 125q-22 0 -37 -2l-4 25q47 7 60.5 16.5
t15.5 28.5q-2 5 -13.5 18t-11.5 31l2 28q0 9 -15.5 25.5t-48 83t-56.5 94.5q-22 -12 -27 -67l-43 4q2 10 2 32q0 64 -80 64q-9 0 -50.5 -16.5t-44 -19.5t-11.5 -19l-13 -24q-14 -24 -14 -44t59 -53l-10 -17q-50 27 -64.5 27t-27 -18.5t-19.5 -41.5q-22 -62 -46 -73z" />
    <glyph glyph-name="one" unicode="1" horiz-adv-x="804" 
d="M520 694l-12 -219q0 -13 4 -53l6 -29q0 10 4 10t7 -1q15 -2 20 -3l-4 -37q2 -1 12.5 -10t13.5 -11t13 -9t17 -9.5t19 -6.5q14 -6 58 -13l-2 -47q-44 0 -64 -8q0 -4 10 -60l-59 -2q-8 51 -15 54t-14.5 0.5t-9.5 -2.5l-8 -27l-45 12l2 13q-32 0 -97 -12.5t-97.5 -12.5
t-45.5 2q-9 0 -28 -53l-58 28q15 33 15 43.5t-2 10.5l-15 10l-35 -12l-14 45l29 10l2 -2q31 23 31 20q40 28 56.5 33.5t47.5 11.5q41 85 41 203q0 49 -4 139q-1 1 -5 2q-23 2 -46 7l2 63q22 -4 36 -11t15 -7l2 2l-8 35q-10 30 -10 76.5t10 154.5q-9 6 -28 20t-28 19t-29 13
q-36 14 -114 20v61q73 0 101 9t28 35t-2 42l76 4q2 -57 24 -63l41 -11l-2 3q59 -17 93 -17q89 0 98 21q4 9 10 43l68 -4q-7 -40 -7 -48q0 -26 29 -26t76 6l2 -62q-90 -10 -111 -35q-22 -25 -65 -32q-35 -124 -35 -326z" />
    <glyph glyph-name="two" unicode="2" horiz-adv-x="1109" 
d="M1057 455q-73 -9 -84 -35q0 -16 -12.5 -44t-12.5 -41t35 -46l-72 -82q-28 21 -47 26q0 -14 6 -38l-71 -17q-1 4 -3 14.5t-4 15.5t-5 12q-6 13 -19 13h-57q-86 0 -127 3h-226l-94 -5q-19 -19 -22 -55l-97 4v13q0 30 -8 41.5t-37 11.5l-41 -2l-2 61l45 6l4 8l9 -4
q21 4 45 21v-2q67 53 166.5 103t158 87t100.5 74q97 84 97 193q0 17 -12 47v-2l-13 43l-63 63l-86 6q-66 4 -70 6l-20 -18q-57 -49 -78 -62q-4 -9 -27 -51t-31 -61q-30 -68 -30 -125h-78v16t-0.5 24t-4.5 27q-8 31 -42 31h-29l-2 78q37 4 52.5 16t25.5 37q112 289 412 289
q79 0 177 -80.5t111 -142.5v-4q-2 0 -2 2q10 -25 64 -25v-71q-53 0 -57 -15q-17 -58 -19 -86q5 0 33 -8l-10 -47q-35 7 -35 8q-42 -57 -85.5 -89.5t-88.5 -64.5l-72 -49q166 -4 231 -16q52 25 91 57l-48 54l35 32q30 -39 51 -53t37.5 -14t44.5 4z" />
    <glyph glyph-name="three" unicode="3" horiz-adv-x="816" 
d="M448 567l-2 -14q0 -2 2 -6q70 -50 117 -130.5t47 -158.5t-76.5 -217.5t-141.5 -177.5q-27 -16 -44 -6l-234 93l30 72l192 -66l55 65q24 24 38.5 83t26.5 83q-40 108 -92 164t-153 79q-28 0 -95 -24l-2 57q76 23 76 35q0 2 -24 51l55 29q21 -40 27 -45q27 46 64.5 75
t53.5 45q-4 -4 -7.5 -4t-14.5 9l26 40l25 -18v2q76 78 88 238q-5 7 -10 28l-27 58q-10 4 -44 19.5t-54 21.5q-28 -11 -57 -17v-32h-48v4q-8 -5 -33 -20.5t-37 -23.5q-39 -28 -73 -71l-51 31q67 86 67 129q0 18 -43 45l37 67q38 -26 51 -26t19 6q90 78 147 78h136
q59 0 141 -86q9 -9 18 -9t52 19l34 -70q-45 -24 -45 -41l9 -67q0 -124 -68 -217q-57 -76 -158 -158v-21z" />
    <glyph glyph-name="four" unicode="4" horiz-adv-x="1171" 
d="M1140 287l21 -2q1 0 4 1t4 1l-20 -27q-17 11 -17 12l-20 -36h2q-19 -40 -19 -95v-20h-63q-5 80 -25 115v-3l-4 7h-291l-4 -4v-312q0 -5 -1.5 -28t0 -36t6.5 -34q10 -41 59 -78l-41 -55q-49 39 -84 39h-8q-8 -2 -33 -2l-31 -2q-11 0 -49 -54l-43 41q31 46 31 56l-19 55
q0 -14 -3.5 -16.5t-22.5 -2.5l2 48l-15 4l3 69q29 -8 43 -8t14 131v64l-2 80l2 38l-14 9h-324q-15 0 -56 12t-66.5 12t-68.5 -12l-20 61q70 19 98 58l43 61q165 238 217 281h-2q17 37 118 162.5t181 214.5q28 29 43 104l68 -4q-14 -52 -14 -78.5t10 -57.5t10 -64t-12 -131
t-12 -142v-207q0 -26 22 -63l41 2l340 -17h20q4 1 46 27l30 -37q-36 -31 -46 -54.5t-17 -47t-11 -35.5zM504 502q16 69 16 108.5t-33 165.5q-19 -24 -83 -96q-146 -166 -167 -221l23 -25h196l35 19zM1177 299l4 -8q0 -4 -12 -4z" />
    <glyph glyph-name="five" unicode="5" horiz-adv-x="931" 
d="M653 874q0 23 16 23q-61 10 -285 68l-24 -19l28 -24q64 -52 75 -52t50 33l43 -57q-32 -28 -32 -38.5t2 -12.5h-2q38 -68 64 -153.5t26 -136.5t-48.5 -148.5t-48.5 -114.5q0 -12 45 -37l-38 -60q-37 23 -45.5 23t-12.5 -4q-148 -152 -307 -152q-54 8 -85.5 8t-53.5 -2
l-2 58q93 6 184 70t148 161t57 193q0 55 -45 116q-71 96 -221 187v-2q-20 12 -47.5 12t-61.5 -6l-2 67q94 14 119 64l14 18q30 36 97 79t113 78.5t46 64t-4 47.5l70 18q9 -40 17.5 -54t23.5 -18q110 -36 194 -36h23l12 12q1 2 9.5 7t15.5 12q20 16 32 83l47 -4
q-2 -26 -2 -37l2 -4l35 2l2 -47l-28 -4q-7 0 -7 4l-32 -88q-4 -12 -4 -14q0 -20 41 -45l-48 -64q-32 19 -43 19t-26 -13v2q-29 -28 -33 -34l16 -33l-40 -21q-5 3 -5 6h-34z" />
    <glyph glyph-name="six" unicode="6" horiz-adv-x="1100" 
d="M466 1110l-2 -37v-6q203 -6 319.5 -107.5t116.5 -308.5q0 -89 -54 -191q-74 -142 -176 -188q-32 -13 -73.5 -18.5t-63.5 -9.5q11 0 13 -3.5t2 -23.5h-48l-2 10q0 12 7 15l-17 -2l4 -4l-35 -33l-24 28q-174 32 -261 160t-87 300.5t92 332.5t238 271.5t300 140.5l-12 12
l35 29l23 -23q33 11 62 18.5t46.5 15.5t27.5 16q23 20 29 57l111 -19q-2 -8 -2 -37.5t22.5 -41t79.5 -15.5v-62h-24q-64 0 -109 -21t-127.5 -51.5t-144.5 -52.5q-157 -56 -266 -151zM658 504q0 146 19 227l-29 55v-2q-27 51 -42 76q-44 70 -120 117q-21 -12 -80 -27
q-51 -76 -88 -123l-6 -57q-2 -12 -2.5 -26t-1.5 -19h2l-10 -45q3 -68 27.5 -137t54.5 -72l-6 -47q59 -50 108 -78q78 21 107 46.5t67 101.5v10z" />
    <glyph glyph-name="seven" unicode="7" horiz-adv-x="996" 
d="M344 -121l2 -39h-53q-6 60 -10 64l14 -4l-16 6h-4q-17 0 -70 -17l-2 60q58 13 61 26q54 119 204.5 467t178.5 424l-41 49h-223v-2q0 -4 -18 -32l-39 22l10 19l-96 2q-83 0 -162 -50v-2v-4q-2 -8 -4 -30l-47 6q1 6 2 13.5t1.5 11t0.5 5.5q-1 0 -29 -4l-10 48q31 6 35 6
q33 115 110 204q19 22 19 46.5t-8 52.5l77 18q19 -66 56 -76h-2q2 -2 21 -10t22 -8v2q56 6 123 6l208 -4q56 0 84 2v14q114 0 191 52l47 -74q-48 -32 -82.5 -87t-68.5 -139t-57 -127.5t-78 -169.5t-89 -186h2l-43 -78v3q-34 -63 -74 -178.5t-47 -131.5v2l-6 -20
q-21 -51 -35.5 -73.5t-50.5 -55.5v2q-4 -4 -4 -31z" />
    <glyph glyph-name="eight" unicode="8" horiz-adv-x="1093" 
d="M895 442l-14 9q-50 -131 -141 -169q-75 -30 -203 -30h-92q-58 0 -126 53.5t-113.5 126.5t-45.5 141.5t13 122t39.5 83.5t54 46.5t71 41t74.5 51.5l-4 2v-2q-156 138 -192 214q-44 91 -44 181t35.5 151.5t92.5 100.5q118 82 257 82h113q20 0 92 -41.5t113 -71.5l29 14
l20 -43q16 3 45 15l25 -66q-47 -22 -47 -51q8 -54 8 -103t-20 -98.5t-60 -92.5q-59 -64 -162 -136q2 0 6 -8l37 -41q80 -88 104 -123q57 -87 56 -187q0 -59 -19 -122h2q1 0 3 -1.5t20 -13.5zM392 1298l26 -104l-2 2q34 -54 90 -110t97 -60l16 18q110 128 123.5 177.5
t13.5 97t-16 84.5q-19 0 -35 2l4 43q-75 86 -152 86q-47 0 -86 -42q-77 -81 -79 -194zM467 774l-28 10q-49 -74 -76 -209q21 -80 29 -94t25.5 -37.5t33.5 -48.5l12 -4l-2 2q96 -26 116 -26t48 28h-2q60 63 79 101t19 91t-14.5 82.5t-44.5 56.5q-44 40 -115 87h2
q-25 13 -49 33q-3 -2 -16 -10t-19 -13l17 -6zM498 848l-2 -2z" />
    <glyph glyph-name="nine" unicode="9" horiz-adv-x="1113" 
d="M778 1116q213 -122 213 -354q0 -393 -202 -563q-124 -103 -282.5 -196t-295.5 -122v-12q-79 0 -99 -9t-28 -48l-102 22q4 38 4 50.5t-21 23.5l-4 6q2 -6 -71 -6q158 99 315 149q55 17 81 26.5t59 21.5t47 18.5t43 20.5t44.5 25t39 27.5t39.5 33.5q41 42 65 83h-25
q-66 0 -110 9q-8 -7 -15 -25l-43 20q3 7 7.5 8t27.5 1q-118 35 -150 65t-42.5 48.5t-30.5 60.5v-2q-1 0 -33 59h2q-4 4 -12.5 4t-40.5 -8l-29 59l17 4l-17 31q39 23 39 25q18 51 18 114v48q0 44 13 82t39 71.5t26 48.5t-20 49l69 45q28 -40 48 -40q12 0 87 26q143 51 180 51
t78 -15.5t76 -21.5zM449 965v2q-52 -81 -58 -174q1 0 25 -25l-19 -18l13 -64q1 -3 4.5 -24t4.5 -24t5 -21.5t6 -23t7 -21t9 -23.5t11 -21.5t14.5 -25.5t17 -25t21.5 -28l92 -31l23 8l-2 -2l47 20q29 25 53.5 98.5t24.5 119.5v126q0 47 -46 131t-85 95l-76 26q-41 0 -67 -36
q-9 -12 -25 -39z" />
    <glyph glyph-name="colon" unicode=":" horiz-adv-x="640" 
d="M389 825l2 -16l-98 -4q-6 42 -41 65q-15 -7 -43 -39l-56 52q33 32 33 55q0 4 -4 16h2l-8 9l-64 -31l-18 43l240 123l-54 -13l-8 45q25 7 27 68h86q0 -19 4 -39q8 6 27 25l22 -17q12 12 17 31l47 -39l-29 -22l8 -7q-33 -43 -33 -59v-4q14 -16 50 -16h12l2 -93
q-23 0 -47 -8q11 -22 33 -39l-60 -71q-23 17 -43 24q-6 -18 -6 -39zM395 428q15 -25 42.5 -25t41.5 3l2 -72q-16 -4 -20 -4l14 -35q-72 -27 -94.5 -51t-22.5 -66l-125 -4q-3 43 -24 62q-14 -4 -41 -31l-51 53q34 35 34 51.5t-2 22.5l2 -2l-2 4l-12 -12l-31 36q34 28 46 44
t12 38.5t-27 59.5l59 43q37 -47 58 -47l37 6l18 -2q1 1 3.5 2t5.5 4q10 10 30 45l57 -29q-22 -36 -22 -58.5t12 -37.5v2z" />
    <glyph glyph-name="semicolon" unicode=";" horiz-adv-x="627" 
d="M366 823l2 -16l-117 -12q0 35 -14 55q-16 -16 -29 -35l-61 43q27 39 27 55l-7 21q0 -2 -3.5 -2t-35.5 6l9 47l24 -6q-4 26 -55 53l35 66q39 -21 52.5 -21t29.5 8h-2l2 2l-43 11l12 47q74 -21 107 -21t69 39l90 -78q-35 -35 -35 -59q18 -4 50 -4v-74h-15l6 -16
q-56 -31 -77 -54t-21 -55zM335 207q-33 51 -54 51t-54 -37l-56 53l17 17l-43 18q29 68 29 98t-31 64l88 78q33 -38 63 -41q11 12 23 57l74 -14q-7 -33 -7 -52.5t23 -35.5h-2q100 -80 100 -193q0 -37 -6 -67q0 -65 -68.5 -163.5t-129.5 -125.5q-46 -13 -70 -16l-31 -4
q-25 -13 -47 -29l-25 41l5 4l-7 14l23 10h-2q59 26 117 109.5t71 163.5zM188 291q16 19 16 33v6z" />
    <glyph glyph-name="less" unicode="&#x3c;" horiz-adv-x="953" 
d="M916 178l39 2l2 -63q-68 -7 -82 -25l-32 -39v-4q-7 -22 -31 -22q-44 0 -355.5 246.5t-412.5 347.5l-23 -17l-30 35l-8 2l2 45h12q20 0 20 -10l4 10q-5 0 -36 23l4 65l63 -49q0 2 25 20.5t135 115.5t168 136l24 15q231 156 328 239v2q0 9 -16 64l61 4q16 -48 25 -51
q27 5 88 37l2 -58q-53 -32 -58 -39l-20 -36q-17 -24 -258.5 -203t-267.5 -201l-17 -16q-4 -3 -13 -13q-16 -18 -28 -22q450 -360 637 -526q18 -15 39 -15h10z" />
    <glyph glyph-name="equal" unicode="=" horiz-adv-x="925" 
d="M174 475l18 31l-16 37v39q0 9 -17 18h-22q11 5 12 8l-27 15l29 55q45 -28 55 -31q13 9 13 17t-4 20l-80 57q13 16 22 39l-8 6l12 15q-3 30 -32 90l24 49q55 -31 57.5 -31t10.5 9h2q2 0 2 5.5t-14 57.5l63 4q12 -47 25 -47h192l143 -8h17q2 4 24 43l62 -2l-33 -60
q2 1 20 6t31 11l4 -58q-45 -17 -45 -18l4 -35l-2 -12h5q9 0 43 -10l-3 -50q-43 10 -53 15l2 -2h-2q4 -19 21 -49l-19 -9l35 -16l-18 -37l32 8l5 -61l-27 -4l12 -23l-2 -2l4 -4l-18 -18l28 -13l-4 -63q-25 11 -57 22q0 -5 10 -47l-65 -24q-20 71 -93 71l-51 -2h-51l-211 -6
h-6v-2q0 -5 -20 -30zM534 735l-186 4q-41 0 -70 -14q16 -50 44 -59q24 -7 49.5 -4.5t33.5 2.5h141q64 0 95 45q-22 26 -52 26h-55zM739 559l-16 -12l2 -2zM696 639q-4 2 -4 4v-14z" />
    <glyph glyph-name="greater" unicode="&#x3e;" horiz-adv-x="963" 
d="M140 1266l-30 59l47 43q3 -15 20 -45h11v-16q15 -24 26 -31l8 18l43 -16l-12 -31q25 -20 228.5 -167.5t343 -262t139.5 -151.5t-106.5 -124.5t-267 -203t-216.5 -164.5v-43l-8 35q-21 -16 -33 -31l12 -20q-70 -36 -96 -68t-33 -74l-119 21v29l2 14q0 33 -9 46
q-13 19 -79 19v70q82 4 107 29q109 106 335.5 280t297.5 236q-51 51 -441 334l-36 28q-48 37 -75.5 39t-60.5 -18l-53 98q52 28 55 68z" />
    <glyph glyph-name="question" unicode="?" horiz-adv-x="746" 
d="M283 596l2 12q0 28 -12 80q-46 113 -52 350l-6 15q3 2 13.5 6.5t19 9t17.5 9.5q20 13 20 19.5t-12 49.5l75 18q11 -46 20 -51q22 -11 159 16l16 17q9 13 37 47q-29 129 -162 172q-23 8 -60 20t-61 21l17 -31l-43 -22q-31 55 -59 76.5t-68 21.5v115q52 0 75 26
q-6 12 -34 52l63 43q23 -35 41 -46l33 7q6 2 15 3t28 -7q59 -25 75 -25t46 41l65 -47q-31 -37 -31 -43.5t2 -9.5q8 -12 9 -15l59 -73q18 -23 28 -23t46 20l33 -77q-46 -19 -46 -35q1 -11 10.5 -57.5t10.5 -67.5l4 -70q0 -8 -31 -75t-62 -115.5t-53.5 -66.5t-86.5 -25l-33 -4
l-12 -23q-18 -35 -25 -45q0 -6 -2 -17t-1 -16.5t6 -13.5q8 -15 54 -25l-4 -65q-35 6 -53 6q-25 0 -29 -117h-61v35zM269 528l6 -4v-24l10 22q36 -16 74 -20q20 0 53 33l80 -80q-33 -36 -33 -60q20 -2 53 -4l-2 -72h-35q-12 0 -18 -2l12 -22q-50 -25 -68 -41.5t-18 -27.5
t17 -42l-129 -12q-8 50 -15 57q-12 -7 -39 -36l-49 49l25 30q0 5 6 11v-2q4 12 4 20v12l-10 31v-2q-1 0 -25 29l35 30l8 -10v12q0 14 -45 56l51 55q27 -26 45 -33zM469 342l-10 -6h14q0 2 -4 6z" />
    <glyph glyph-name="at" unicode="@" horiz-adv-x="1568" 
d="M1311 418q-24 -8 -26.5 -8t-2.5 12q-4 -41 -53.5 -84.5t-115.5 -73.5q-153 -71 -230 -71q-394 0 -623 247q-158 169 -158 423.5t102.5 419t307 268.5t282.5 104h203q169 0 337 -202q44 -52 75 -105l10 12l33 -31l-10 -10h2l-13 -14q19 0 62 14l2 -57l-47 -13
q3 -63 24 -149q4 -21 64 -23l-2 -73h-37q-28 0 -31 -17v-2q-55 -125 -164.5 -221.5t-261.5 -183.5q-49 -30 -49 -56q0 -10 8 -39l-96 -14q-9 47 -33 57q-52 0 -110 -34l-41 71q66 38 102 115q-67 -59 -146.5 -100t-146.5 -41q-5 0 -33 17t-36.5 17t-28.5 -14
q72 -106 179.5 -169.5t232.5 -63.5q111 0 200 38q28 11 92 42l105 49l10 2q-16 0 -16 6l10 24l45 -14l-4 -14l14 4zM379 1101q-45 -117 -45 -214t20 -164l49 2q19 114 122.5 244t239.5 216.5t242 86.5q85 0 114 45q14 22 24 59l22 -8q-95 106 -190 148q0 -8 -21 -41l-59 4
q10 18 21.5 35t13.5 20q-8 -4 -27 -4q-115 0 -223 -61t-183 -156t-120 -212zM1196 1290l16 -63q0 -61 -41.5 -155t-96 -199.5t-71.5 -165.5v-2q147 27 226.5 125t79.5 257q0 96 -105 238q-8 -27 -8 -35zM637 715v-29l4 -4q39 11 61 23q43 17 154 158.5t111 183.5
q0 23 -13 86v10l-41 -10q-100 -67 -184.5 -184t-108.5 -232zM377 662l20 -46q15 14 15 18.5t-3 10.5l-2 17v-5q-5 5 -18 5h-12zM606 678q2 -2 6 -2l2 31zM1274 428l2 6z" />
    <glyph glyph-name="A" unicode="A" horiz-adv-x="1144" 
d="M1112 344q-65 55 -98 55h-17l11 -102q50 -22 70 -71q18 -44 65 -44q2 0 61 46t78 46q-11 -14 -38 -40q-66 -67 -66 -72t4 -15v-2q7 -11 67 -22l21 -4q0 -5 -24 -7t-33 -5t-12 -6t-6 -6.5t-16.5 -9t-26 -24.5t-14.5 -35q-3 -42 -18 -42q-19 0 -53 39t-57 79l-49 -28
q-22 -10 -29 -191q0 -21 -19 -28q0 66 -40 136.5t-92.5 113t-81.5 42.5t-99 -4l-33 -14q-1 0 -38.5 -30.5t-51.5 -30.5l8 8h-2q-4 0 -38 29.5t-46 29.5l-145 -8q-31 -26 -92 -37q-15 -26 -66.5 -38t-116.5 -21.5t-84.5 -20t-26.5 -10.5t-11 2q59 35 84 64l37 53q8 11 11 39
t9 35q-4 -37 -4 -55.5t4 -22.5v20q0 64 45 66q0 72 80 96l-23 166q-3 18 -53 47l6 31q31 -11 35 -11q19 0 50.5 52.5t49.5 64.5q-2 21 -2 58l11 135q0 9 -29.5 30t-30.5 35v4q42 -18 62 -18t41.5 45.5t21.5 62.5t-24 39q-31 29 -23 45q50 -30 63 -30t27 14q-2 8 -2 40.5
t35 121.5t35 139l-2 25q0 6 -33 32l10 29q30 -14 33 -14q37 0 155 124q49 52 70 68q0 20 15 60h24q-2 -12 -2 -39t12 -61t49.5 -109.5t69.5 -132.5q80 -146 99 -281q11 -82 35 -115t37 -50q30 -41 30 -105l-4 -80v-64q61 -84 80 -209q6 -30 47 -69q12 -12 12 -27zM641 283
l12 2l31 4l57 63l-12 180q-35 26 -53.5 78t-18.5 77.5t1.5 29.5t1.5 6l-31 -43q-8 -11 -8 -19.5t9 -30t9 -37.5t-6 -22q-29 48 -42.5 60t-33.5 12h-223l14 -55q3 -13 39.5 -39.5t38.5 -42.5q-44 16 -63 16t-35 -12l-19 -27v-194l76 4l62 -10q4 0 26.5 10t36.5 10t18 -2
q-39 -24 -51.5 -36.5t-15.5 -26.5v-23l-2 -6q0 -14 15 -15q33 -4 46 -32q-45 14 -58 14t-11.5 -19.5t43.5 -72.5q36 40 44.5 60.5t32 63.5t23.5 51t-14.5 33.5t-14.5 36t9 17.5q42 -63 67 -63zM514 952l-59 11q-21 0 -39 -25q-33 -45 -33 -79t2 -42l45 -16q67 0 105 14.5
t59 18.5l33 10q-29 61 -29 91.5t-27.5 169.5t-42.5 187l-88 -200v-21q5 -5 9 -41v-8q4 -25 47 -43q26 -14 26 -23q0 -4 -8 -4z" />
    <glyph glyph-name="B" unicode="B" horiz-adv-x="1456" 
d="M879 219q0 53 -115 53q-50 0 -55 -32q-6 -34 -36 -45q-16 -7 -25.5 -27.5t-23.5 -36.5t-41.5 -16t-43.5 31t-16 51v32q0 20 -10.5 25.5t-48.5 21.5l8 25q50 -18 53 -18q21 0 46.5 40t25.5 62.5t-16.5 64t-16.5 62.5t-10 31q-74 66 -74 401v80q0 27 -20 72q-35 83 -35 161
l6 166q-4 27 -22 27l-39 -8q-35 0 -97 30.5t-84 30.5t-34 -4l49 -59l-53 55q-18 -7 -43 -43l-33 23q26 36 26 65q-68 55 -116 78l18 41q56 -28 137.5 -42.5t138.5 -14.5t155 29.5t139 29.5t90.5 -22.5t73.5 -22.5t36 11.5t12 27t-25 69.5l13 7q22 -46 33.5 -58t25.5 -12h6
q28 0 42.5 13t29.5 63l28 -8q-8 -33 -8 -54t15 -39t28.5 -18t16.5 1q12 3 12 28.5t-16 76.5l16 5q19 -65 36.5 -80.5t23.5 -22t19.5 -11t18.5 -6.5q11 -5 34 -5h42q16 0 37 12l39 35l12 -23q-43 -37 -49 -63q6 -20 24 -23q39 -19 58.5 -133t19.5 -202.5t-88 -176.5
q-5 -6 -9 -21t-24.5 -27.5t-41.5 -17.5q-58 -12 -58 -40q1 -6 6 -34q8 -55 18 -73q37 -37 37 -110t-25 -195.5t-61 -134.5q-7 0 -44.5 -90t-49.5 -90l-57 4q-22 0 -61 -62l-15 8q35 51 35 72zM715 1102q27 -60 49 -60h13q3 0 76.5 37t82.5 37t13 -4q0 19 -12.5 33.5
t-57.5 40.5l10 16q55 -31 67 -31t32 9l20 10l55 88q0 13 -16 22t-35 9t-63 -49l-21 18q41 44 41 62.5t-10 35.5l-29 54q1 -2 -18 12q-62 47 -94 57q-21 0 -29 -14l-51 -230q0 -107 -23 -153zM842 479q107 0 107 240q0 25 -80.5 99.5t-102.5 74.5h-14q-18 0 -25 -19l-20 -49
l-12 15q19 -29 37 -29t67 18l6 -18q-47 -18 -59 -28t-12 -27v-117q0 -16 3 -24q7 -18 72 -33l-6 -25q-30 6 -53 6q-43 0 -43 -71v-52q0 -13 24.5 -30t39 -17t24.5 17t10 35.5t-45 66.5l15 14q46 -47 67 -47z" />
    <glyph glyph-name="C" unicode="C" horiz-adv-x="1176" 
d="M416 147q-47 0 -49 -120h-12v24q0 90 -44 90q-32 0 -67 -18l-4 16q48 17 61 27t13 24l2 33q0 4 -3.5 9t-5.5 8q-123 143 -180 365t-57 480l2 58l6 100q0 14 -3 21q-7 17 -69 39l9 18q48 -16 61.5 -16t131 120t125 123.5t12.5 8.5q15 15 28 77l12 -2q-10 -55 -10 -67
q0 -46 63 -52q9 16 9 31.5t-37 69.5l16 10q29 -43 44 -55.5t34 -12.5h168q22 0 34 12.5t27 61.5l25 -8q-14 -41 -14 -63t35 -45t53.5 -23t27.5 10t9 23v8q0 30 -58 90l10 10q60 -57 91 -57h47q42 0 61 -111q7 -41 17 -53.5t26 -60t23 -54.5q22 -22 33.5 -24t25.5 -2t53 6
l2 -21q-63 -8 -82.5 -24.5t-19.5 -49.5t49 -77l-16 -14q-50 49 -68 49t-22 -2h-2q-15 -5 -19 -17t-4 -32t4 -68h-8q-10 107 -28 122q-21 16 -25 44q0 6 -35 38q-118 108 -130.5 130t-29.5 22h-219q-13 0 -23.5 -14.5t-23 -31t-31 -21t-36 -46t-37 -98.5t-39.5 -84
q4 -46 5.5 -171t4.5 -138q26 -28 46 -81q67 -177 141 -251q8 -8 12 -12.5t10.5 -10.5t9.5 -8.5t8 -6.5q16 -13 23 -13t11 1.5t7 3t8 5.5t8 7l10 10l-42 -41q102 0 155 -21q9 0 15 6l75 56q6 6 19 31.5t22 35.5q74 78 119 109q12 46 33 85.5t22 39.5q-2 -4 -2 -12v-93h4
q14 0 31 -10l-35 -49v-111q0 -37 -25.5 -87t-31.5 -68q0 -25 47 -64l-16 -18q-42 39 -58.5 39t-29.5 -11h-2q-5 0 -11 -22v-227h-26v55q0 67 -26.5 95t-88.5 28h-22l-193 -29q-2 -1 -5.5 -3t-4.5 -2.5t-3.5 -2.5t-3 -3.5t-1.5 -3.5q-2 -6 -2 -14l2 -77l-15 -2l-2 73
q0 11 -8.5 20t-19.5 9l-70 2q-16 0 -59 -61l-9 6q39 55 39 67q-6 6 -14 6z" />
    <glyph glyph-name="D" unicode="D" horiz-adv-x="1377" 
d="M643 162q-8 14 -20 28q-9 -1 -14 -4q-12 -9 -25 -73l-15 4q8 37 8 60t-28 33.5t-58 10.5q-115 0 -198.5 -52t-83.5 -126l-23 8l17 66q0 20 14 58t14 58t-59 52l12 18q44 -24 59 -24t29 14l21 29q4 4 4 13t-2 13q-41 95 -41 273l-10 71l2 17q0 6 -4 14q-31 47 -31 95
t5.5 81t11 55.5t17 61t13.5 53t0 21.5l-10 18q-14 25 -36.5 25t-57.5 -5l-3 23q49 7 64 16.5t20 28.5q11 55 11 102t-19.5 104.5t-50.5 57.5q-8 0 -12 -2l-88 -37q-35 -15 -90 -78l-9 9q60 63 69 96.5t57 84t48 70.5t-14 66l19 6q17 -49 28.5 -62.5t27 -15t42 -4t42.5 -4.5
q50 -6 95.5 -19.5t149.5 -39t166 -42t145 -42.5q162 -52 299 -137q9 -6 26.5 -6t65.5 32l10 -16q-38 -25 -50.5 -37t-12.5 -26t33.5 -42.5t40 -46t42.5 -35.5t64 -18t72 6l2 -12q-119 -15 -119 -61q0 -9 4 -17q49 -88 49 -250q0 -143 -100 -272q-43 -56 -93.5 -118
t-93.5 -116q-100 -124 -100 -256l-16 2l4 68q0 66 -9 100.5t-38 34.5l-64 -12q-15 -5 -95.5 -15.5t-115.5 -41.5l-6 -25q0 12 -2 18q-3 -2 -35 -34l-8 6q28 30 37 43zM489 459l-14 -70q0 -43 14 -43l7 4q30 0 38.5 20.5t8.5 73.5h22q4 -68 27 -79q12 0 33 13t36 13l48 -8
q18 0 28 20t38.5 42t55.5 37t48.5 35.5t21.5 39.5t-41 59l21 23q38 -39 55 -39t35 16l18 17q5 5 7 13t4.5 21.5t3.5 17.5t4 12.5t6 10.5q15 16 39 25q11 6 14 21l12 63q0 10 -4.5 19.5t-10.5 48.5q-16 96 -44 96l-76 -23l-18 70q56 11 68 33q4 6 7 14v2
q-56 110 -162.5 197.5t-207.5 87.5q-27 0 -27 -19l4 -28q0 -25 -20.5 -110t-20.5 -93q0 -23 62 -53l-11 -17q-45 25 -64 25t-32.5 -23.5t-13.5 -39t2 -23.5q6 -25 38 -25t52 2l2 -12q-52 -6 -65 -11t-15 -17l-41 -177l-2 -6l17 -57l-19 -94z" />
    <glyph glyph-name="E" unicode="E" horiz-adv-x="1466" 
d="M1083 1389q-44 65 -86 65l-297 -2q-15 0 -25.5 -38t-10.5 -97l6 -23q0 -2 11 -17t11 -77l-10 -145q0 -43 13 -92.5t36 -49.5q3 0 46.5 18.5t74.5 18.5t47 -2q35 0 35 33v137q0 18 -18.5 30t-51.5 26l6 12q39 -25 59.5 -25t32 10t33.5 89l8 -3q-18 -60 -18 -84t28.5 -55
t49.5 -31t80 27l10 -18q-46 -27 -58 -41t-12 -37v-4q-1 -9 28 -42t28 -63l-2 -55q0 -16 26 -31q1 0 51 -20l-8 -29l-53 21q-6 2 -17 2t-28 -17l-21 -28q-4 -8 -4 -15l4 -39q0 -74 -34 -108q-27 -27 -29 -109h-16v21q0 63 -25 90q-67 69 -74 211q0 24 -20 24l-90 -14l-60 4
q-22 0 -39.5 -45.5t-17.5 -77.5v-41q0 -157 4 -157q22 0 51 8l8 -29q-50 -12 -62.5 -25.5t-12.5 -39.5v-41q0 -31 30 -31h156q26 0 39 13t25 63l28 -6q-8 -31 -8 -52q0 -33 61 -57.5t90 -24.5q48 0 50 29l8 47q12 74 141 88q31 3 96 60l11 -11q-65 -57 -71.5 -90.5
t-24.5 -140.5t-27.5 -139.5t-9.5 -44.5l28 -82l-22 -6q-34 88 -29 83q-13 22 -27.5 25t-25 6.5t-23.5 3.5q-32 0 -55 -57l-18 8q16 41 16 56.5t1.5 15.5t2.5 -0.5t4 -1.5q-32 15 -90.5 31.5t-74 25t-23.5 8.5h-457q-99 0 -111 -49l-38 -86l-33 15l43 90q10 44 10 113
t-33 430.5t-35 553.5q-2 20 -14.5 32t-60.5 28l6 20q60 -16 66.5 -16t10.5 1q12 1 19 17l25 31l10 27l2 8l-8 31q-5 14 -54.5 27.5t-75 13.5t-57.5 -62l-22 12q20 44 20 59.5t-18 35.5l-51 43q-22 16 -30.5 16t-74.5 -16l-8 20q54 19 70 37t16 45v23q0 19 -55 71l6 6
q55 -55 72 -55h4q13 0 23.5 18.5t25.5 51.5l8 -4q-25 -54 -25 -66t9 -22.5t16 -10.5h6q23 4 43 74l21 -6q-11 -35 -11 -59.5t50.5 -49t78.5 -24.5q21 0 52 63l18 -8q-25 -55 -25 -65q0 -23 49.5 -46.5t71.5 -23.5t33 12t29 51l20 -8q-20 -44 -20 -61q4 12 66.5 21t92.5 9
t42.5 13.5t29.5 56.5l21 -10q-21 -46 -21 -66.5t17 -29.5q13 -15 26 -15h225q1 0 5 4l4 -4q8 0 22 14t52.5 29t74 24.5t78 40t72.5 79.5l10 -9q-45 -67 -45 -102v-352q0 -36 35 -113l-9 -4q-31 70 -61 100l-98 84q-8 4 -11 9q-14 -2 -26 -14.5t-35 -51.5l-14 8
q28 52 28 76.5t-55 75.5z" />
    <glyph glyph-name="F" unicode="F" horiz-adv-x="1336" 
d="M784 1159q-7 29 -19.5 49t-53.5 68l6 6q74 -88 120 -98q24 -6 58 -6t92 53l10 -12q-38 -37 -48.5 -55t-10.5 -38v-301q0 -21 -12.5 -60t-12.5 -57t60 -61l-11 -14q-48 37 -69 37q-45 0 -45 -95q0 -44 84 -71l-6 -19q-46 17 -67.5 17t-30.5 -6q-24 -14 -50 -113l-10 4
q16 57 16 85.5t-27 71t-51.5 42.5t-64.5 -15l-8 25q48 17 60.5 31t12.5 37v51q0 30 -30 30h-115q-31 0 -31 -30v-346q0 -59 60 -79q72 -25 91.5 -49t38.5 -34.5t70 -28.5l-4 -12q-65 22 -90 22l-67 -12q-6 0 -11 2l-88 10q-155 0 -258 -38q-61 -23 -61 -56q0 -20 26 -69
l-12 -7q-30 56 -43 62q-39 -11 -39 -45l-26 2q99 136 194 192q4 8 4 13v215q0 205 -26 205q-17 0 -52 -9l-6 29q44 11 57 22t13 29l-8 103l-17 520q0 25 -26 28l-56 15q-4 2 -12 2q-22 0 -57 -58l-17 11q29 44 29 65q0 45 -80 45q-15 0 -100 -32l-2 6q69 25 74.5 31.5
t5.5 17.5t-29 59l21 15q34 -54 55 -54q17 0 51 25t43.5 42.5t24.5 67.5l12 -4q-14 -55 -14 -76t11 -35t32 -20t39 -8t46 -2.5t40 -1.5l313 -12q37 0 109 12.5t79 20.5l17 16q16 16 16 34t-31 60l23 16q31 -51 52 -51t39.5 11.5t23.5 23.5l-58 -14q24 7 60 22q0 28 -15 64
l31 10q14 -41 27 -55q86 41 122 90l64 -45q-26 -37 -40.5 -95.5t-14.5 -105.5l4 -63v-207q0 -20 10.5 -38t46.5 -56l-10 -11q-37 37 -55.5 47.5t-38.5 10.5h-56q-21 0 -35 -12t-38 -58l-19 10q29 51 29 66t-8 33l-99 155q-7 7 -16 10l-53 11l-275 -13q-12 0 -26.5 -21.5
t-14.5 -31.5v-63q2 -88 2 -162q5 -6 6 -52q5 -126 35 -126h133q54 0 54 112v41zM950 1612q-12 -4 -16 -4z" />
    <glyph glyph-name="G" unicode="G" horiz-adv-x="1545" 
d="M842 127q-60 0 -67 -107l-17 3q2 16 2 41t-8 42t-18 17l-58 -107q18 39 19.5 72.5t-27.5 52.5h-8q-12 -4 -16 -10l-15 -20q-16 -21 -16 -46t6 -63l-16 -2q-12 81 -39 102q-136 115 -201 115q-31 0 -70 -49l-22 20q35 43 35 62.5t-16 49t-16.5 41.5t-33.5 44t-40 45.5
t-26.5 13.5t-58.5 -10l-4 15q68 18 71 26t3 35t-44 109t-44 137v293q0 69 37 203t37 202q0 15 -13 26.5t-55 30.5l8 19q45 -19 65.5 -19t58 49t64.5 96t27 50q0 23 -24 72l18 10q23 -47 36.5 -59.5t33.5 -12.5h51q16 0 27.5 13t11.5 33.5t-10 54.5l20 6q15 -50 25.5 -62
t31.5 -12h144q21 0 30 3q22 9 33 73l35 -6q-4 -19 -4 -43q0 -58 84 -58q12 0 21 13t24 55l16 -4q-16 -44 -16 -61.5t16 -27.5t43.5 -20.5t58.5 -25.5q77 -38 122 -117q10 -14 24 -14h117q19 0 31.5 12t33.5 59l19 -8q-23 -50 -23 -66.5t15 -32.5t34 -16t62 17l8 -19
q-62 -24 -68.5 -36t-7.5 -25l-6 -221q0 -32 56 -86l-13 -13q-36 38 -54 49t-38 11h-4q-2 -4 -2 -20.5t47 -53.5l-18 -25q-43 35 -64 35q-23 -66 -55 -82l-27 35l-17 36q-22 46 -22 70.5t-3 49t-17 60t-37 50.5q-4 5 -17 19q-30 30 -42 53q-25 -6 -65.5 -6t-78.5 4h47
q14 0 23.5 8t9.5 27t-41 55.5t-59 36.5l-154 12q-69 0 -120 -41q-53 -42 -77 -47t-30.5 -19.5t-34.5 -76.5q-66 -150 -66 -154v-411q0 -101 65 -192q88 -124 109 -171q6 -12 64 -23.5t81.5 -11.5t36.5 13.5t36 52.5l20 -12q-29 -51 -29 -69.5t25 -43.5l-12 -23
q47 48 106.5 176.5t59.5 215.5q0 37 -86 37q-28 0 -89 -50l-10 11q41 34 52.5 50.5t13.5 33.5v2q0 99 -12 163.5t-60 155.5l6 4q58 -108 124 -139q29 -13 57 -21q74 -22 110 -61q16 6 57 6q246 0 246 -104q0 -97 27 -112q14 -7 65 -7v-21q-51 0 -65 -5.5t-19 -22.5v-10
q0 -24 43 -78l-12 -11q-31 42 -46.5 53t-33.5 11h-90q-29 0 -31 -29q-8 -89 -54 -214t-93 -185l-2 8q0 -23 8 -42.5t41 -67.5l-8 -7q-58 88 -119 103q-24 6 -59 6h-60zM676 16l-6 -10z" />
    <glyph glyph-name="H" unicode="H" horiz-adv-x="1561" 
d="M1072 1540q18 9 18 55v41h17q2 -29 4 -44t2.5 -20t3.5 -10.5t3.5 -7.5t6 -4.5t7 -3t9.5 -2t10.5 -3t18.5 -0.5t69 21t75 34.5t28.5 32.5t12.5 75l14 -2q-4 -31 -4 -62.5t9.5 -43t33.5 -11.5t69 6l5 -16q-55 -7 -72.5 -14.5t-26.5 -22.5l-14 -35q-4 -12 -4 -18
q0 -27 53 -70l-16 -20q-55 45 -70.5 45t-34.5 -17q-12 -5 -12 -12.5t20.5 -32t31.5 -108.5t11 -144l-10 -458q-2 -17 -4 -45.5t-4 -41t-8 -31.5q-9 -32 -43 -56q-12 -10 -12 -25v-145q0 -9 46 -48.5t58.5 -43t26.5 -3.5t84 45l6 -12q-47 -30 -61 -43.5t-17 -28.5v-4
q-4 -4 -4 -12q0 -12 65 -59l-8 -15q-51 37 -66.5 37t-23.5 -4l-25 -18q-12 -7 -12 -31l2 -25l2 -71h-35v84q0 33 -68 46.5t-159 19.5t-119 16.5t-81 41t-83 40.5l9 75q26 11 90 11h55q35 0 35 32q2 63 17.5 187t16.5 163t-3.5 46.5t-16.5 9.5q-17 4 -62.5 4t-77.5 -5.5
t-41 -22.5t-9 -72h-25q0 55 -8 72t-35.5 21.5t-120 4.5t-96.5 -35l-12 -317q-2 -27 22.5 -63t49.5 -36q32 0 32 70v27h15q1 -55 5.5 -69t16.5 -17l23 -7q4 -2 17.5 -2t88.5 31l4 -10q-75 -32 -96 -58l-4 -10q-10 -13 -10 -26l16 8l-4 -15q-8 0 -12 -2q3 -25 39 -69l-21 -17
q-45 62 -75.5 62t-87.5 -24t-121.5 -57t-83.5 -40t-25 -12q-18 -15 -25 -86l-20 2q2 22 2 57t-15 35t-25.5 -11.5t-10.5 -27.5v-27q0 -18 -13.5 -45t-13.5 -86v-35h-6q-5 90 -14 103l-5 12q-8 8 -25.5 8t-66.5 -10l-2 10q69 17 75 24.5t6.5 12.5t19.5 59t18 56l-37 63
q-8 16 -26.5 24.5t-75.5 18.5l2 19q39 -8 70 -8t66.5 27.5t35.5 41.5v342q0 17 -16.5 54t-16.5 55v311q0 8 -61 41l18 41l31 -10q19 0 32 13.5t13 31.5l-14 176q0 5 -11 16l-78 70q-21 18 -58.5 18t-59.5 -2v21q85 6 112 37l45 61q25 35 29 121h12q-2 -18 -2 -61t17 -64
q15 -12 126 -26.5t144.5 -14.5t46 13.5t37.5 58.5l14 -8q-30 -54 -30 -80q0 -49 125 -49q32 0 114 34l4 -12q-74 -31 -98 -55l20 4l-12 -45l-41 2q-4 -4 -4 -8q0 -38 53 -113l-12 -8q-35 47 -52.5 62t-37.5 20l-33 10h-10q-22 0 -35.5 -31t-13.5 -47v-329q0 -35 33 -35h165
q21 0 56 18.5t56.5 18.5t64 -16.5t60 -16.5t28 10.5t10.5 26.5v356q0 38 -145 66l-29 73q25 0 43 -6q13 0 22 11t9 32.5t-11 61.5l23 6q15 -53 27.5 -66.5t35.5 -13.5h9q10 0 41 26.5t61 26.5z" />
    <glyph glyph-name="I" unicode="I" horiz-adv-x="808" 
d="M474 84l-2 14q-6 0 -52 -4v10l46 5q-17 22 -39 22h-111q-16 0 -81.5 -45.5t-65.5 -71.5l-17 -59l-28 8l20 55q0 44 86 159q29 38 29 54l-15 1194q0 17 -29.5 32t-33 31.5t-33 29t-47 12.5t-57.5 -51l-17 12q37 43 37 74q0 26 -102 73l2 4q71 -32 98 -32h80q26 0 42 13
t36 60l26 -10q-18 -47 -18 -72.5t32.5 -44t69.5 -18.5h150l41 57l14 -14q6 6 6 23.5t-24 66.5l20 10q23 -47 36 -59t34 -12h39q8 0 42 35.5t34 46.5t-17 63l10 4q16 -48 23.5 -59.5t17.5 -11.5h6q20 0 93 28l2 -4q-69 -25 -88 -41l-27 -24q-8 -9 -8.5 -28t-6.5 -36.5
t-18 -25.5q-19 -13 -38.5 -16.5t-55 -14.5t-49.5 -15l6 -38q2 -19 17 -26t57 -7v-47q-49 0 -64 -15q0 -6 1 -18.5t1 -20.5l-4 37q-10 -10 -10 -47l14 -313q0 -99 -11 -291t-12 -240.5t10 -63.5t54 -44l-10 -17q-53 35 -82 35t-29 -28v-88q0 -27 66 -44.5t66 -46.5l-3 -8
q0 -9 15 -37t18 -37q11 -41 66 -96l-8 -10q-64 64 -97 72h-2l-6 2q-41 0 -41 -99l-24 2q0 39 -16.5 75t-49.5 44l-20 -37q6 14 6 25zM595 1272q-8 40 -11 67z" />
    <glyph glyph-name="J" unicode="J" horiz-adv-x="1205" 
d="M390 1518l-328 24q-40 0 -110 -47l-9 12q70 49 82 86l11 29q2 4 2 12q0 20 -62 49l10 17q45 -23 58.5 -23t18.5 2q7 3 7 13q15 28 15 42.5t-31 67.5l16 8q26 -44 40.5 -55.5t33.5 -11.5h186q28 0 43 13t27 63l33 -9q-10 -30 -10 -60.5t41.5 -47t85.5 -14.5l84 4
q18 4 18 8q51 67 334 67h246q32 0 110 43l6 -12q-87 -48 -103 -81t-34 -42.5t-20 -13.5l-13 -19q-8 -16 -8 -33t35 -65l-21 -12q-39 55 -67.5 55t-60 -17.5t-31.5 -41t8 -55.5l-16 -5q-13 64 -22 70.5t-19 7.5h-2q-107 0 -107 -43v-233q0 -14 16 -27.5t32.5 -13.5t66.5 20
l8 -20q-48 -20 -60 -32.5t-12 -33.5v-59q0 -24 13 -36.5t63 -25.5l-8 -26q-33 8 -53 8q-84 0 -84 -266l18 -361q0 -86 -12 -108t-19 -29t-11.5 -10t-4.5 -4q37 0 111 39l4 -11q-75 -36 -95 -67q-2 -3 -14.5 -22t-16.5 -24.5t-15 -23.5t-15.5 -27t-12.5 -25.5t-11 -28.5
q-9 -34 -9 -55.5t60 -61.5l-11 -15q-55 39 -77 39t-59.5 -46t-37.5 -67t47 -69l-12 -14q-48 47 -74 47t-45.5 -34t-19.5 -67.5t49 -87.5l-18 -14q-54 59 -93 59h-8l-69 6q-2 -2 -5 -2h-4q-15 -3 -27 -18t-32 -62l-14 7q22 56 22 71t-18.5 68t-19.5 75t-4 29q-10 17 -70 41
l8 17q50 -23 72 -23t44.5 35t22.5 57.5t-35 75.5l17 12q29 -43 45 -55t36 -12h74q25 0 29 24l8 50l-2 14l14 65v62q0 6 -4 14q-26 38 -26 77t6 87q0 6 -26.5 51t-33.5 68q-3 20 -23.5 20t-58.5 -6l-2 19q63 11 68.5 19t5 25.5t-14.5 232.5t-14 460l5 215q0 12 -9.5 20.5
t-21.5 8.5z" />
    <glyph glyph-name="K" unicode="K" horiz-adv-x="1350" 
d="M215 1610l213 22q41 0 97.5 -11.5t80.5 -28.5t32 -17t15.5 11t7.5 25t-20 64l20 8q20 -47 32.5 -59t33.5 -12h35q20 0 30 3q22 7 33 73l33 -7q-4 -32 -4 -39q0 -55 142 -74l120 -16q145 -19 154 -67q0 -6 4 -10l12 -21q22 -31 94 -70l-4 -8q-72 39 -110 39h-4
q-9 0 -31.5 -21.5t-22.5 -40.5t6 -59l-16 -2q-8 52 -15.5 65.5t-23.5 16.5l-47 10l-6 2q-21 -7 -46 -17q-52 -21 -81 -21h-8q-15 0 -23 -9l-182 -184l6 4l53 -92q-37 -23 -37 -46.5t8 -44.5q29 -71 60 -112q54 -70 57.5 -97.5t18.5 -31.5q23 -12 37 -80t14 -98.5t-4 -50.5
q47 -24 103.5 -107t56.5 -145l-35 -78q0 -11 33 -72l-9 -4q-29 57 -36.5 62.5t-12.5 5.5h-26q-41 0 -70 53q-1 4 -15 13q-45 27 -63 45q-3 5 -5 10.5t-3 5.5q-32 0 -86 -62l-12 11q49 56 49 82l-4 51l-10 43q-5 13 -15 18q-36 20 -55 59.5t-19 71.5l2 9q-16 8 -32 8t-64 -35
l-14 18q59 44 59 64t-3 33.5t-8.5 24.5t-12.5 20.5t-14.5 16.5t-15 13.5t-14 10.5t-12 6.5t-10.5 5.5q-37 0 -37 -63t27 -157.5t51 -99.5h6q6 -2 24 -2t75 43l10 -14q-41 -33 -52.5 -49.5t-11.5 -36.5v-14q0 -10 11 -26.5t29 -25.5t69 -14l-2 -20q-21 2 -55 2t-52 -21
l-30 -80q1 -11 4 -16q10 -15 71 -31l-4 -18q-37 10 -54.5 10t-24.5 -3q-7 -5 -18 -23t-11 -99h-10q-3 82 -11 94.5t-10 15t-3.5 4t-3.5 3t-5 2.5q-15 6 -76 -10l-6 16q50 14 62 23.5t12 25.5l-13 53l-22 9l-45 -4q0 -2 -44.5 -34.5t-47.5 -45.5l-5 -62q0 -6 -11 -43t-11 -57
t6 -78h-6q-8 64 -13 78t-13.5 27.5t-22.5 13.5t-64 -12l-4 14q50 14 62 22.5t12 22.5l16 162q0 21 -11.5 33.5t-59.5 31.5l8 21q49 -21 66.5 -21t29.5 17l23 20q6 9 6 19l-21 276q0 6 -4 14l-14 21q-14 18 -32 18t-58 -16l-8 20q42 16 54.5 27.5t12.5 26.5l-16 114
q-11 6 -29 6t-70 -32l-12 18q40 26 53 40t13 49.5t-12 143.5t-12.5 139.5t-8.5 39.5h-2q-18 18 -52 18t-53 -2l-2 17q51 5 69 13.5t30 24.5l14 21q4 8 4 14v49q-22 -16 -33 -67l-47 10q4 28 4 48.5t-22.5 38t-49.5 21.5q-74 9 -83 52q-4 18 -22.5 22t-86.5 4v9
q60 0 77.5 3.5t43 18t25.5 33.5t-17 59l19 9q26 -64 45 -64q20 11 20 80h25q0 -94 57 -94zM580 1503q-31 0 -31 -45v-262q0 -41 35 -41q8 0 20 6l17 13l30 32l-30 49l32 -49q39 42 74 54v10q0 24 6.5 39.5t9.5 23.5l13 27l10 67q0 9 -8 21l-51 49q-11 6 -19 6h-108z" />
    <glyph glyph-name="L" unicode="L" horiz-adv-x="1103" 
d="M195 1419l-90 4q-25 0 -82 -49l-10 12q39 35 50 52.5t11 36.5v73q0 19 -11 36.5t-48 53.5l10 13q59 -54 88 -54q72 0 213 20t181.5 30.5t46.5 19.5t6 41v31l16 2q0 -17 1 -28.5t1.5 -20.5t3.5 -14.5t4 -9t6 -5t7 -1.5q10 -3 23.5 -3t56.5 59l10 -6q-39 -54 -39 -72
l16 -73v-17q0 -18 54 -73l-7 -7q-51 58 -69 58l-25 2q-8 0 -20 -4l-86 -74q-11 -8 -11 -22t2 -35t8 -55q12 -80 56 -80q16 0 43 6l6 -35q-22 -5 -35.5 -11t-20.5 -9t-10 -14.5t-3 -14.5v-21q0 -24 15 -33.5t69 -9.5v-22q-51 0 -64.5 -7t-16.5 -28t-3 -68l14 -424v-41
q0 -7 9 -24t27 -17t62 17l8 -23q-67 -24 -67 -47q0 -8 2 -12l8 -35q6 -22 31 -22l102 18q19 7 30 22.5t25 65.5l19 -4q-12 -49 -12 -68q0 -39 30 -39h68q31 0 81 89.5t50 110.5t-49 67l12 12q45 -45 64 -45q57 0 116 154l6 -3q-28 -80 -28 -114v-199q0 -46 -39 -125.5
t-39 -120.5q0 -23 57 -63l-12 -17q-50 37 -64 37t-36 -12q-22 -15 -39 -94l-10 2q10 44 10 67.5t-17 55t-20 45.5q-17 -5 -24 -18.5t-7 -47.5v-14h-33q-1 51 -11.5 64.5t-41.5 15.5t-122 2t-140.5 -15.5t-148.5 -72.5q-13 -9 -19 -25t-12 -67l-15 2q5 24 5 59.5t-35 52.5
q-14 0 -70 -22l-4 10q47 20 58.5 28.5t11.5 18.5v29q0 30 10 63q0 2 -14 11l16 -7l22 23q7 6 7 16q-2 10 -23 66l10 4q16 -43 31 -66q10 8 10 19t-6.5 28.5t-11.5 74.5t-17 92.5t-41 35.5q-14 0 -45 -6l-6 31q44 8 57 18t13 27v12q-6 49 -44 223t-40 254q0 2 -18.5 40.5
t-18.5 78.5l2 76q0 98 -37 98z" />
    <glyph glyph-name="M" unicode="M" horiz-adv-x="1923" 
d="M852 276q54 28 58 50l-7 12q-42 53 -72 133.5t-58 172.5t-58 149q-7 14 -23 14t-45 -14l-8 16q47 19 47 37q0 33 -46.5 103.5t-55.5 107.5q-61 102 -69 102t-15.5 -51t-7.5 -91t-8 -115.5t-17 -82.5q35 -40 35 -121q0 -7 -3 -41t2 -46t15 -93q26 -213 50 -213h59
q15 0 27.5 9.5t33.5 43.5l15 -8q-27 -47 -27 -59.5t8.5 -28t20.5 -21t53 -16.5l-2 -8q-31 6 -50.5 6t-22.5 -0.5t-3 -5.5q-8 -8 -8 -20t18 -52l-12 -2q-20 52 -37 52q-63 0 -206.5 -32t-143.5 -50q0 -27 45 -74l-6 -8q-49 47 -76 47q-57 0 -86 -68l-18 2l43 94q0 6 -68 39
l15 29q50 -20 53 -20q20 0 20 16.5t-30 46.5l16 14q33 -36 43 -36t22 12q46 33 59 75.5t13 114.5l-8 111l2 27q0 2 -4 10q-35 49 -35 110t6 95v2q0 334 -17.5 521.5t-33.5 219.5l-41 39q-8 4 -14 4h-78q-16 0 -25.5 -9.5t-23.5 -45.5l-15 4q17 32 17 52.5t-17 27.5
q0 8 -13.5 8t-53.5 -17l-6 11q39 16 48 23.5t9 22.5t-47 62l8 4q45 -41 62.5 -41t52.5 11.5t53 11.5h344q22 0 33.5 15.5t23.5 41.5l15 -8q-19 -45 -19 -56t11 -24l32 -41q6 -14 22 -14t52 12l6 -16q-39 -15 -49 -24t-10 -25v-2q0 -5 6 -11q82 -102 161 -262.5t95 -275.5
q9 -19 19.5 -19t52.5 15l8 -19q-51 -19 -51 -39q0 -33 23 -81t42.5 -48t48.5 19l15 -21q-47 -24 -47 -41q3 -8 13.5 -8t17 6.5t12 19.5t8.5 24.5t7.5 31t6.5 27.5q3 64 33 137t70 153q57 115 57 146q0 18 -49 39l6 18q33 -12 45 -12q23 0 56.5 99.5t33.5 140.5q0 20 -43 61
l12 10q37 -37 52.5 -37t21.5 2l25 2q22 8 22 39l-2 29l16 2q5 -40 11.5 -49.5t21.5 -9.5q224 -10 393 -78q11 -6 22 -6t69 8l2 -10q-19 -4 -31.5 -8t-20.5 -6t-14.5 -7.5t-9.5 -7.5q-5 -5 -17 -19t-12 -33t12 -50l-14 -7q-14 40 -23.5 52.5t-23.5 15.5l-23 2l-65 -6
q-9 0 -14 -8l-25 -31q-6 -3 -6 -10v-162q0 -13 10 -22.5t47 -26.5l-6 -12q-39 16 -56.5 16t-17.5 -21l2 -159q0 -62 -28 -99q-4 -4 -4.5 -16.5t-11.5 -135t-11 -188.5l6 -301q0 -22 23 -24l59 -4q25 0 72 43l8 -8q-47 -41 -47 -70v-14q0 -12 15 -19.5t42 -17.5l-6 -11
q-41 17 -50 17t-17 -4v-2q-7 -7 -7 -15l17 -55l-10 -4q-13 39 -19.5 49t-15.5 10l-303 25h-43q-42 0 -68.5 -17t-36.5 -71l-10 2q6 40 6 54t-10 24h-2q-10 10 -24 10t-54 -4v10q16 2 27 3t19 3.5t12.5 3.5t9.5 6q8 8 17 23.5t9 25.5t-22 50l12 12q20 -33 30.5 -43t18.5 -9
t10 1l37 8q10 5 15 19l16 114q-7 17 -11 23q-9 14 -63 26l2 17q21 -6 51.5 -6t30.5 22l-6 637q0 19 -9.5 30t-23.5 11q-26 0 -49.5 -72t-23.5 -100t11 -35t44 -16l-4 -21q-31 9 -47 9t-23 -21l-47 -172l-2 -12q0 -25 53 -47l-8 -19q-46 17 -53 17q-35 0 -57 -59t-28 -133
q-21 -226 -30.5 -247t-9.5 -35t12 -63h-6q-17 52 -31 65t-16 15t-20.5 2t-53.5 -19l-6 13q35 18 45 28.5t10 24.5v4q0 23 -22 23q-15 0 -58 -21zM262 1485h-10q2 -2 5 -1t5 1z" />
    <glyph glyph-name="N" unicode="N" horiz-adv-x="1494" 
d="M531 924q0 25 -72 39q-15 0 -43 -21q-6 -282 -6 -317v-148q0 -40 60 -49q22 -4 55 -7t45 -6t33.5 -3t78.5 28l9 -16q-111 -53 -111 -113v-45q0 -33 45 -106l-10 -6q-34 50 -47 62q-21 21 -49 30q-23 0 -56 -21l-35 8q-6 -6 -6 -18.5t17 -62.5l-11 -5q-22 61 -28 66.5
t-12 5.5h-23l-35 -2q0 -20 11.5 -37.5t50.5 -50.5l-11 -14q-59 49 -84 49q-2 0 -6 -1t-6 -1l2 2q-24 -5 -24 -34t49 -83l-15 -10q-33 39 -50.5 50t-37.5 11h-47q-27 0 -82 -57l-10 10q57 55 57 82v37q0 50 10 61t22 15.5t24.5 48.5t18.5 85l5 42l6 2q11 -41 37 -41
q10 0 18.5 7t8.5 20q8 240 8 263.5t-2.5 43t-11.5 39.5q-17 37 -82 37l-4 43q51 4 64.5 19.5t13.5 51.5l4 189q0 120 -27 204t-86 154q-9 6 -16 6t-11 -1t-8 -4t-6.5 -5t-6.5 -6.5t-10.5 -9.5t-39.5 -78h-4q32 67 32 90q0 16 -71 39l2 12l67 -16q19 0 34.5 41.5t15.5 68.5
t-52 86l15 13q35 -40 51 -50t39 -10h26q18 0 27 4q23 8 23 72h32q0 -33 3.5 -43t4.5 -15.5t7.5 -9.5t7.5 -6q4 -4 19 -4h30q21 0 35.5 11.5t40.5 56.5l18 -10q-33 -54 -32 -76.5t6 -22.5q1 -4 22 -11q59 -18 59 -56l-2 -15q0 -5 98 -139t171 -223q15 -15 29.5 -15t66.5 19
l8 -21q-46 -18 -59 -31t-13 -32v-64q0 -10 5 -13q10 -7 12 -9q16 -8 26 -47t28.5 -70t32.5 -48t32 -17q51 0 51 110l-8 125q0 26 13 78t13 78l-12 190l-12 51q-11 43 -178 43q-68 0 -152 -51l-8 13q76 47 96 86q4 7 43 56.5t39 74.5t-35 77l19 11q25 -42 41.5 -55t41.5 -13
t38.5 13t23.5 63l35 -6q-6 -32 -6 -47q0 -37 78 -62q126 -39 317 -39q32 0 104 33l4 -10q-80 -37 -100 -64q-4 -5 -24.5 -28.5t-28 -32.5t-24 -30t-23.5 -34q-22 -41 -25 -63l39 -100q-8 24 -47 24q-90 0 -90 -39v-53q0 -68 -10.5 -92t-15.5 -33.5t-5 -13.5l-6 -437
q0 -23 72 -36l-4 -17q-54 8 -56 8q-34 0 -34 -61q0 -13 1 -59.5t-1 -69.5q-13 -11 -13 -25l4 -49q0 -94 -8 -116.5t-8 -39t31 -69.5l-13 -6q-8 7 -19.5 18t-16.5 15.5t-13 12t-11.5 10t-9.5 7t-10 6.5q-8 5 -18 7h4q-6 2 -16 2q-25 0 -66 -54l-16 13q39 47 39 66.5t-15.5 38
t-33.5 18.5t-60 -19l-12 25q63 28 63 55q0 38 -18.5 101.5t-38.5 97.5q4 -8 4 -13q0 -19 -57 -47l-17 31q21 11 27 14.5l12 7t9 6.5q6 8 6 15.5t-16 33.5q-42 71 -119 144q-17 19 -35 19t-60 -15l-6 21q70 21 74 47v4q-2 8 -14 20q-39 22 -74 61.5t-41 76.5z" />
    <glyph glyph-name="O" unicode="O" horiz-adv-x="1285" 
d="M206 530q69 32 72 54q-2 7 -15 20q-55 42 -59 144q0 10 -6 16q-51 39 -66.5 82t-20.5 79q-7 50 -7 119q0 226 -105 293l86 131q33 -26 101.5 -26t117.5 18q2 69 63 98q29 13 59 21q97 26 149.5 50t87.5 24q98 0 203 -67.5t149 -162.5q26 -49 110 -105q72 -47 72 -124
q0 -29 16 -58.5t42.5 -29.5t58.5 12l8 -24q-45 -15 -58.5 -26.5t-13.5 -29.5l19 -211q0 -65 -45 -175q-53 -133 -53 -159.5t13 -39t52 -31.5l-10 -21q-46 21 -64.5 21t-27 -10t-35 -39t-33.5 -36.5t-30 -31.5t-34.5 -35.5t-30.5 -31.5q-25 -25 -55 -51t-30 -44.5t16 -62.5
l-20 -8q-18 48 -29.5 60.5t-32.5 12.5h-6q-28 0 -44.5 -13.5t-33.5 -61.5l-30 12q14 41 14 66t-23 38t-52 15q-81 6 -109 61q-2 5 -10 20q-17 27 -23 54q-35 5 -116 36t-116 44l39 -13q12 -4 24.5 -4t25 12t12.5 31.5t-35.5 56t-53 36.5t-69.5 -21zM403 1149q-19 0 -19 -25
v-90q0 -35 36 -123q108 -269 112 -354q0 -6 4 -14l22 -29q16 -22 35 -22t57 22l19 -27q-53 -31 -53 -55q0 -13 4.5 -20.5t6.5 -13.5t2.5 -8.5t3 -6.5t5.5 -5q9 -5 18 -5h13q22 0 37 -12.5t18 -12.5h55q9 0 11 2l32 17q2 1 16 29q48 97 62 113t16.5 46t12.5 37q7 14 12.5 52
t15 51t9.5 20v227q0 125 -66 125q-22 0 -37 -2l-4 25q47 7 60.5 16.5t15.5 28.5q-2 5 -13.5 18t-11.5 31l2 28q0 9 -15 25.5t-47.5 83t-57.5 94.5q-22 -12 -27 -67l-43 4q2 10 2 32q0 64 -80 64q-9 0 -50.5 -16.5t-44 -19.5t-11.5 -19l-14 -24q-13 -24 -13 -44t59 -53
l-10 -17q-50 27 -64.5 27t-27 -18.5t-20.5 -41.5q-20 -62 -45 -73zM241 428l24 -10zM265 418q4 0 6 -2z" />
    <glyph glyph-name="P" unicode="P" horiz-adv-x="1415" 
d="M786 57l-67 -6q-28 0 -66 4q-13 0 -26 -14t-13 -31.5t23 -62.5l-23 -8q-17 41 -29.5 54t-37.5 13t-44.5 -1.5t-47.5 -9t-47 -21.5q-46 -34 -78 -109l-11 6q29 64 29 96l-8 88q0 31 12.5 60t37 39.5t24.5 25.5v303q0 29 -27 77.5t-27 95t-57 433t-72 392.5l-65 43
q-8 4 -15 4h-67q-20 0 -38 -10.5t-56 -47.5l-11 11q37 38 47.5 56t10.5 38v12q0 19 -12 32t-58 38l8 16q55 -28 68 -28t33 10q16 10 16 29.5t-12 62.5l20 6q18 -63 29 -69t54 -6q108 -2 108 69q0 18 -2 31l36 4q6 -51 19 -63.5t45 -12.5h195q6 0 47 23t55.5 25t16.5 4
q7 5 7 29.5t-2 45.5h13q5 -71 14 -74h12q34 0 51 14.5t27 61.5l49 -12q-6 -25 -6 -49.5t22 -42.5t55.5 -20.5t73 -3.5t74.5 -3q83 -3 93 -66q0 -23 66.5 -111.5t80 -88.5t68.5 18l4 -12q-49 -19 -60.5 -28t-11.5 -23v-31q0 -176 -86 -330.5t-238 -232.5q-9 -3 -18.5 -20.5
t-28 -33t-36.5 -23.5q-48 -20 -115 -110l-4 4q52 67 61 95l12 30q3 4 3 15q0 35 -39 35h-15l-127 12q-27 0 -30 -29.5t-19 -122.5t-16 -154t18 -109t55 -48q7 0 35 4l2 -16h4l-4 -11l2 -4h-2q-10 -43 -10 -58.5t12 -31.5v-2q7 -14 21 -14t63 20l9 -16q-64 -30 -64 -47
q0 -31 23.5 -60.5t91.5 -62.5l-6 -16q-69 32 -101 32zM821 1536l-70 -10q-26 0 -42 1t-25.5 -8.5t-9.5 -23.5v-426q0 -9 -14.5 -28t-14.5 -29q0 -29 75 -29t113 43l76 80h8l-2 6q70 77 101 115l-101 -99q2 12 15 31l63 101q2 4 2 14.5t-13 43.5t-21.5 39t-64.5 92.5
t-75 86.5z" />
    <glyph glyph-name="Q" unicode="Q" horiz-adv-x="2067" 
d="M980 -227q-28 0 -57 -68l-19 10q21 52 21 66.5t-9 28.5q-18 0 -29.5 -13t-27.5 -61l-20 6q14 46 14 63t-14 31q-42 32 -143 93.5t-183 112t-152.5 112.5t-78.5 108q-3 10 -13 19q-65 41 -110 124q-80 148 -80 334v234q0 39 17.5 116t17.5 120.5t20 111.5
q21 76 54.5 155.5t33.5 94.5t-39 67l15 11q45 -62 71 -62q5 2 15.5 13.5t19.5 11.5l8 -6l35 32q-6 29 -67 68l10 16q56 -34 76.5 -34t78.5 32.5t64 32.5q14 14 14 34t-14 62l20 9q18 -49 29.5 -61.5t32.5 -12.5h143q25 0 25 32.5t-8 69.5l18 4q11 -49 21.5 -66t27.5 -24
q66 -24 94 -24t39.5 12.5t30.5 52.5l12 -6q-26 -56 -26 -69t18 -13h10q38 0 93.5 -28.5t64.5 -28.5q19 0 55 53l19 -12q-33 -44 -33 -64t51 -56t119.5 -78t83.5 -57.5t25.5 -15.5t58.5 41l12 -14q-49 -39 -49 -51.5t6 -18.5l76 -110l22 -21q14 -16 31 -16t66 24l10 -20
q-64 -35 -64 -59q0 -11 3 -15q7 -44 46.5 -152t39.5 -169v-267l-21 -47l4 -24q0 -72 -85 -213q-48 -80 -48 -90t57 -49l-12 -17q-47 33 -62 33t-28 -14.5t-21 -32.5q-24 -49 -63 -55q-7 0 -48.5 -39.5t-62 -51.5t-20.5 -28.5t8.5 -26.5t20.5 -10h8q28 0 41 13t24 63l31 -9
q-8 -29 -8 -52.5t23.5 -38.5t50 -19.5t67.5 -8.5t55 -7l107 -11q19 0 31 13t26 57l27 -8q-12 -41 -12 -58q0 -33 44 -50.5t100 -20.5q163 -7 204 -33q9 -6 16 -6q86 12 172 12t338 -44.5t379 -45.5q10 0 16 6l29 25q14 10 14 29t-16 63l18 8q19 -49 30 -61.5t30 -12.5h8
q29 0 88 54l8 -9q-42 -38 -52.5 -54.5t-10.5 -37.5t55 -71l-10 -13q-56 51 -80.5 51t-69.5 -17t-69 -17h-23q-5 0 -10.5 -9.5t-5.5 -21.5t26 -60l-16 -10q-22 38 -33.5 51t-23.5 13l-13 -2h-2q-19 -6 -22.5 -13t-3.5 -22t6 -45l-23 -4q-6 43 -12.5 56t-19.5 13l-279 -28
l-221 -15q-19 0 -31 -13t-31 -60l-18 6q16 44 16 71t-24 27h-541q-9 0 -28 -86l-37 8q8 44 8 58t-12 26.5t-34 20.5t-43 13.5t-51.5 12t-46.5 11.5q0 -2 -11 -2t-73 13t-130 29q-70 16 -93 17.5t-65 -59.5l-19 14q35 48 35 65t-8 33l2 -6q-6 11 -21 14zM865 -47
q27 0 27 32.5t-4 55.5l22 4q15 -84 60 -84q155 0 229 47t127 191q2 6 2 14q0 19 -61 43l8 20q47 -18 59 -18q32 0 56 96q41 168 41 346q0 502 -165 700q-42 51 -74 64t-38 13q-21 0 -66 -50l-16 15q41 46 41 61t-6 27q-52 88 -139.5 160.5t-158 72.5t-124.5 -25t-90.5 -63
t-70.5 -86.5t-56 -92.5q-58 -111 -92 -140q-7 -7 -10 -17q-19 -183 -19 -324t2 -201q6 -169 43 -296q9 -30 48.5 -82.5t39.5 -89.5t42 -123t73 -86q17 0 61 25l11 -19q-60 -34 -60 -53q0 -50 72 -80q54 -23 117.5 -38.5t68.5 -18.5z" />
    <glyph glyph-name="R" unicode="R" horiz-adv-x="1140" 
d="M418 1712l34 1q22 0 29 3.5t16.5 7.5t13 9.5t10 14t9.5 18.5q6 28 6 57l25 2q0 -63 22 -81q9 -8 12.5 -12t17 -6t16.5 -2.5t19 0t27 0.5t25.5 3t30.5 11q33 18 33 81h28q2 -74 38 -83q16 -3 31 -4q36 -4 38 -53q0 -10 8 -18q57 -60 57 -137q0 -257 -118 -459
q9 -25 57 -41l-16 -49q-26 10 -52.5 10t-48.5 -36t-20 -81l2 -49q0 -6 4 -14q40 -37 100 -148q108 -202 164 -202q17 0 57 10l7 -21q-50 -13 -63 -22t-13 -27l-2 -35v-6q0 -31 19 -63.5t39.5 -32.5t64.5 29l10 -19q-55 -34 -55 -58t31 -55.5t51 -31.5t69 12l4 -14
q-54 -14 -67 -21q-25 -15 -25 -38.5t39 -77.5l-10 -9q-30 43 -44 54.5t-24 11.5t-18 -4l-25 -17q-28 -18 -65 -90l-9 4q31 58 37 82q-9 23 -37 23l-69 -4q-24 0 -29 -31l-12 -45h-19l23 98q0 58 -43 58q-22 0 -74 -35l-12 16q61 44 61 70q0 50 -12.5 137t-24.5 98
q-24 19 -64 95q-119 230 -200 299q-9 12 -22 12q-26 0 -39 -40.5t-13 -92.5t11.5 -161.5t13.5 -156.5q0 -14 78.5 -58t100 -44t65.5 8l4 -16q-81 -16 -100 -45l-25 -39q-6 -9 -6 -23t35 -65l-13 -8q-40 61 -63 61l-45 -4q-21 0 -53.5 20.5t-36 20.5t-7.5 -3.5t-10.5 -8.5
t-14.5 -10q-22 -16 -40.5 -23.5t-26.5 -18t-8 -35t2 -40.5h-20q-7 77 -33.5 77t-79.5 -43l-8 13q42 32 53.5 47.5t11.5 32.5l5 61q0 17 -13 30t-55 38l12 20q55 -25 70.5 -25t38 21.5t22.5 34.5l-2 10q-51 192 -65.5 394.5t-14.5 484.5q-1 0 -26.5 93.5t-28.5 96.5l-106 74
q-22 12 -41.5 12t-65.5 -14l-6 18q50 15 66.5 26t23.5 29l31 72q4 12 4 27.5t-37 70.5l16 13q29 -44 44.5 -56t35.5 -12h164q14 0 23.5 11t9.5 31.5t-19 62.5l23 8q24 -62 43 -69q8 -3 23 -3zM458 1470v-399q0 -17 10 -28t22 -11t24 6l35 19q7 11 36 28q72 42 72 101
q0 18 12.5 51t12.5 49v98q0 16 -12.5 43.5t-12.5 43t-13 31.5q-30 36 -44 36h-99q-19 0 -31 -28t-12 -40z" />
    <glyph glyph-name="S" unicode="S" horiz-adv-x="1241" 
d="M197 129q64 11 64 37l-4 86q-3 15 -6 18l-7 2q0 7 -20 7t-72 -31l-10 14q40 26 52 40.5t13 38.5t0 39.5t-6.5 38t-19 33.5t-35.5 11t-33 -2l-6 35q49 7 60.5 20.5t11.5 46.5v19q0 36 -37 102l8 4q35 -65 66 -88l33 -20l10 -5q84 -9 90 -184q0 -7 15 -25q60 -72 67 -90.5
t9.5 -23.5t4.5 -8l4 -6q3 -5 8.5 -5t10 10t4.5 31t-19 54l17 8q19 -44 31.5 -56t31.5 -12h72q45 0 102 17q6 10 41.5 35t40.5 53l8 149q0 12 -28 70l-129 108q-4 5 -15 5h-59q-23 0 -38 -11t-36 -55l-20 8q22 45 22 69.5t-22 40t-48.5 15.5t-56.5 -57l-22 12q22 43 22 57
t-15 25t-35 19q-53 21 -81 55q-27 24 -98 24v17h18q61 0 80 22l19 21q-16 24 -28 24t-64 -16l-11 26q32 16 44 27t12 25t-10 36t-17 54q-56 47 -109 47q-16 0 -24 -2l-25 119q51 9 85.5 61t62.5 162l-41 88q3 12 17 12q29 0 83 -42l19 -15q6 6 6 12q11 48 125 57
q112 10 112 68q0 21 -2 33l31 2q7 -63 30 -71q9 -3 27 -3l101 -2q16 0 26 12t27 54l22 -6q-12 -30 -12 -60q0 -29 111 -94q33 -19 33 -21t-3 -2q11 0 19 9l149 157l17 -12l-29 -80q-2 -4 -2 -10t22.5 -41.5t22.5 -61.5q0 -141 -102 -481q-2 0 -2 -16t14 -76l-6 -2
q-21 93 -50 108q-12 5 -30.5 13t-35.5 24t-42 108.5t-31 105.5t-34.5 50.5t-29.5 54.5t-7 23l-78 72q-9 12 -18 12q-25 0 -25 -29.5t10 -58.5l-18 -6q-13 46 -24 58t-30 12h-63q-10 0 -16 -6l-60 -52q-6 0 -6 -20v-176q2 -19 8 -19q37 -29 156.5 -101t213 -139.5
t114.5 -117.5q6 -14 18 -14q70 -18 70 -250q0 -187 -20 -236q-39 -100 -105 -151q-8 -12 -11 -28t-38 -52t-41 -60q-24 -14 -81 -14t-149.5 12.5t-138.5 12.5t-72.5 -14t-56.5 -64l-25 14q31 53 31 86q0 17 -20 17t-52 -7zM263 952l-8 15q3 -11 8 -15z" />
    <glyph glyph-name="T" unicode="T" horiz-adv-x="1604" 
d="M810 178h-47q-81 0 -114 -131l-14 4q16 78 16 86.5t-11 36.5t-22 110.5t-38 137.5q-8 12 -47 12q2 2 4 2l73 19l23 -101l2 -2q4 0 14 10q64 74 64 168q0 56 -35 179q-10 30 -76 79l8 11q56 -41 80 -47q23 6 23 30l2 60q2 34 -15 66t-47 32q-10 0 -55 -10l-6 24
q50 13 62 25t12 47t-2 64.5t-10 65.5q-16 71 -74 71q-21 0 -33 -4l-12 51q67 17 67 61q0 64 -18 64q-12 0 -19.5 -11t-7.5 -26t12 -57l-22 -7q-15 44 -26 57t-40 13t-86.5 -16.5t-62 -42.5t-36.5 -64t-32.5 -55.5t-11.5 -32t-23 -19.5q-33 -14 -37.5 -35.5t-12 -33.5
t-16.5 -21q-23 -23 -48 -120l-10 2q16 65 16 94l-19 168q0 64 21 123l2 8l-25 78l2 360q0 25 -55 82l8 8q55 -57 80 -57h4q14 0 26 12t36 58l12 -9q-29 -53 -29 -67t7 -21l34 -51q12 -10 30 -11.5t62.5 -27.5t66 -26t40.5 3t52.5 7t77.5 8q112 10 255 10l217 -2
q23 0 64.5 -20.5t65 -20.5t65 28t56 34.5t21.5 22.5t11 67l16 -2l-2 -33q0 -47 23 -59l92 -58q13 -10 32 -10t70 25l8 -19q-46 -19 -61 -32.5t-18 -32.5q-23 -113 -23 -161.5t4.5 -63.5t30 -39.5t74.5 -45.5l-7 -14q-58 27 -86 27q-55 0 -55 -37q0 -16 6 -55h-10
q-7 62 -12 68t-11 7h-8q-13 0 -28 -16t-37 -43l-8 6q43 54 43 70q0 41 -70 69.5t-104.5 28.5t-47.5 -12.5t-34 -52.5l-17 8q27 53 27 67.5t-10 24.5l2 -4q-7 7 -49 17.5t-53 10.5t-19 -8l-68 -67q-8 -8 -8 -19v-246q0 -17 -13.5 -50.5t-13.5 -49t14.5 -40.5t14.5 -38
l-12 -88l10 -184q0 -125 -21 -184q0 -17 7 -23l55 -63q9 -13 20.5 -13t77.5 17l6 -21q-48 -15 -62.5 -27t-16.5 -30q-13 -83 -58 -123q-8 -12 -8 -20l4 -60l-27 2l-4 55q0 31 -54 31zM1088 1399l2 -2z" />
    <glyph glyph-name="U" unicode="U" 
d="M1337 874l2 -61q0 -77 -43 -115q-4 -8 -4 -10q0 -141 -59 -201q-8 -11 -8 -16q-2 -96 -50.5 -186t-130.5 -131q-10 0 -10 -12.5t10 -57.5l-10 -6q-13 36 -19.5 46.5t-15.5 10.5q-36 0 -97.5 -42.5t-81.5 -44t-32 -11.5l-36 -60q-12 -12 -14.5 -26t-4.5 -22
q-9 -35 -10 -44h-8q10 46 10 86.5t-37.5 98.5t-91.5 102q-114 93 -197 113l2 6q58 -10 69 -10t16 4q7 5 7 20q-16 18 -59 159q-122 392 -174 392q-7 0 -61 -12l-2 24q60 15 61 15q20 9 20 35l2 73v37q0 163 -50 244q-48 78 -150 80q-18 0 -32.5 -9.5t-41.5 -44.5l-14 11
q39 51 39 69v15l-9 30q-5 16 -17 26.5t-52 27.5l6 14q40 -18 56.5 -18t48 14t36.5 14l2 -2q0 27 -49 76l10 12q49 -47 76 -47l203 10q13 0 18 2q13 6 17 62h18q0 -55 7.5 -60t21.5 -6l67 -10q3 0 11 4l84 47q27 11 53 80l10 -6q-20 -53 -20 -67.5t4 -26.5l35 -99q6 0 12 -18
q20 0 69 49l9 -6q-49 -51 -49 -72v-6q0 -13 16 -25.5t41 -27.5l-6 -10q-48 26 -57 26t-17 -4q-47 -28 -127 -28h-23q-21 0 -30.5 -22t-9.5 -50.5t3.5 -63.5t12.5 -78q18 -96 80 -96q12 0 43 6l6 -22q-41 -11 -52.5 -22.5t-11.5 -30.5v-92q0 -8 10 -21.5t11.5 -61t11.5 -63.5
q37 -41 72 -203q12 -55 10 -53l115 -121q8 -4 16 -4h172q80 100 85 121q12 50 12 72t-10.5 30t-47.5 23l6 12q32 -12 56 -12t36 39.5t15.5 90t5.5 56.5l10 179q0 59 -11.5 152t-37.5 159l-55 108q-9 13 -21 13h-16q-19 0 -29.5 -16t-23.5 -46l-17 8q19 39 19 52t-5.5 22.5
t-16 23t-19.5 25t-22 26.5l-17 21q-31 28 -94 47l4 13q54 -19 73 -19l138 19h6q23 0 43 61l16 -6q-12 -37 -12 -54.5t12 -21.5q36 -28 51 -28t15 4q0 19 -9 34t-40 48l10 10q46 -47 78 -51l264 -13q21 0 26 62h19v-35q0 -26 6 -29t14 -4h4q5 -2 23.5 -2t69.5 25l4 -13
q-67 -28 -80 -51l-84 -123q-8 -16 -8 -25.5t30 -53.5l-16 -9q-38 45 -51 45t-35 -10q-37 -10 -37 -115t37 -174q3 -15 29 -22l51 -2l-2 -25q-33 2 -50 1q-27 -2 -32 -19q-27 -39 -27 -99z" />
    <glyph glyph-name="V" unicode="V" horiz-adv-x="1621" 
d="M728 86l-12 2q-17 0 -66 -41l-16 19q43 37 43 64t-43 83t-45 83.5t-12 35.5q-34 24 -58.5 95t-47 170t-30 120.5t-13 37t-8 23t-8 22t-10 23.5t-10.5 19q-10 20 -22 26q22 6 22 45.5t-44.5 116t-67.5 76.5t-64 -14l-10 24q44 17 57 32.5t13 39.5v53q0 5 -5 12l-73 123
q-10 10 -22 10q-24 0 -44 -61l-24 8q12 37 12 51q0 29 -59 50.5t-79 21.5t-79 -12l-4 12q75 16 100 41l74 78q14 14 14 28.5t-20 61.5l18 8q18 -40 29.5 -52.5t25.5 -12.5l363 10l72 8q13 3 22 25q4 4 4 17.5t-35 66.5l13 8q35 -59 55 -62q21 3 49 66l19 -6q-23 -45 -23 -66
q0 -43 63 -47q7 0 15 4l31 23q24 18 65 88l6 -6q28 -35 44.5 -45.5t35.5 -10.5h88q18 0 27 3q23 7 41 67l26 -8q-10 -34 -10 -57t22 -38q33 -24 99 -24l55 4q11 0 17 6l14 17q12 12 12 26.5t-18 63.5l18 6q19 -44 30.5 -55t31.5 -11h200q32 0 101 39l6 -8q-69 -43 -84 -72
q-37 -72 -185 -192q-56 -44 -110 -98q-126 -122 -139 -291v-8q0 -14 12 -25t51 -29l-8 -16q-47 20 -69.5 20t-56.5 -50t-69 -122t-44 -86t-10 -36.5t-41 -98t-40 -101.5t12 -35t46 -21l-9 -17q-48 17 -55 17q-14 0 -18 -17q0 -21 45 -59l-10 -10q-45 41 -62 41q-1 0 -16 -5
h-4q-13 -13 -13 -24v-15q0 -21 3 -32q7 -24 67 -33l-2 -37q-12 2 -30.5 2t-31 -8t-18.5 -16.5t-9 -27t-3 -26.5v-30q0 -16 10.5 -25t56.5 -27l-6 -14q-42 14 -62 14t-33 -30t-13 -58l8 -116h-19l-12 182v6zM839 1407q-49 59 -84 59h-88q-15 0 -21 -12l-51 -76q-4 -4 -4 -10
t7 -20t39.5 -74t45.5 -88q41 -90 41 -156.5t4.5 -129.5t22.5 -136t47 -80v260q4 -13 31.5 -23t60 -10t37.5 15q139 386 139 485q0 12 -14 21v2q-12 6 -29.5 6t-50.5 -45l-23 16q29 40 29 59t-39 47.5t-60.5 28.5t-66.5 -18l-6 10l-4 -37q0 -26 49 -82zM888 1638l2 13
q0 22 -39 69q-30 -50 -33 -84l-12 -94q43 20 57 33t19 31zM247 934l115 -62q-38 17 -115 62zM228 944l19 -10q-4 1 -19 10zM368 868l-6 4l8 -4h-2z" />
    <glyph glyph-name="W" unicode="W" horiz-adv-x="1879" 
d="M815 1700q76 0 76 49q0 3 -8 47l26 4q16 -66 37 -76q8 -3 25 -6l26 -4q7 0 9 2l34 10q23 7 23 35.5t-4 50.5h22q15 -65 23.5 -71t11 -7.5t14 -4.5t17.5 -5l18 -116q-16 -19 -16 -31.5t33 -67.5l-8 -6q-40 69 -56 72q-12 -4 -14 -8l-47 -58q-6 -6 -5 -11t1 -7l135 -817
q0 75 45 117q6 3 8 16q48 310 90 440q2 2 2 13l17 20l-11 12l13 -10l2 2v-2l16 -4q11 0 28 15t17 32v4l-28 113q-5 4 -23 8.5t-35.5 21t-33 39t-23.5 29.5l-25 72q15 9 15 28q-5 35 -12.5 53.5t-43.5 73.5l11 5q38 -61 57.5 -79t21.5 -20l29 -20l16 -4h89q67 0 124 118
l13 -6q-35 -85 -35 -96.5t4 -11.5q2 2 4 2l152 49q24 20 41 90l12 -4q-8 -47 -8 -67.5t5 -36t20 -36.5q32 -45 132 -53v-18q-20 2 -49 2t-39.5 -2.5t-17.5 -15.5q-20 -20 -83 -79q-136 -126 -142 -163l-113 -406q-16 -98 -61 -210.5t-96 -231t-64.5 -171.5t-15 -103.5
t-21.5 -81.5t-33 -109l-10 2q10 68 10 87.5t-4 47.5q-29 77 -106 228t-107 231q-4 24 -24.5 39.5t-42.5 15.5q-34 0 -60.5 -134t-36.5 -250t-10 -146q6 -22 70 -68l-9 -10q-59 43 -72.5 43t-17.5 -4h-2q-13 -5 -19 -20.5t-9 -65.5l-15 2l2 39q0 39 -18 57l-4 2q-8 9 -26.5 9
t-61.5 -21l-8 17q40 17 51.5 26t11.5 21v8l-31 168q-22 56 -61 114q-48 38 -103 66l3 6q63 -30 86 -35q16 6 16 38.5t-29.5 94.5t-68.5 62q-18 0 -45 -6l-11 26q68 15 68 41l-2 17l-8 51l-6 14q-39 55 -109 255t-74 202q-32 28 -45 68.5t-22 58.5l-25 29q-3 2 -8 6
q-8 6 -16 6h-9q-21 0 -33.5 -12t-29.5 -58l-21 10q19 48 19 63.5t-8 22.5q-9 9 -22.5 9t-68.5 -95l-2 3q43 76 52 98l24 76q1 4 2.5 9.5t1.5 8.5q0 25 -45 80l15 10q34 -43 51.5 -55t38.5 -12h45q11 0 16 8l201 -23q55 52 55 94.5t-8 63.5l55 8q16 -58 64 -98l53 -139
q-43 -43 -65.5 -74t-22.5 -33l31 -188q3 -24 31 -46.5t30 -31.5l14 -43q4 -14 11 -19.5t22 -5.5t51 4l4 -18q-40 -6 -52.5 -12.5t-12.5 -18.5v-8l53 -240q2 -10 33 -31.5t31 -23.5q8 2 12 73t5 83.5t5 46.5t9 52t13 50q12 42 33 87.5t21 54.5l-33 204q-1 2 -37.5 49
t-36.5 50h3q-11 10 -26.5 41.5t-25.5 35.5l-16 9q-4 4 -10 4l-27 92q22 19 28.5 37.5t6.5 77.5l16 -2l-2 -23q0 -56 19 -84h-2q12 -12 19.5 -12t14.5 12.5t7 25.5t-27 62l25 12q36 -67 67 -67z" />
    <glyph glyph-name="X" unicode="X" horiz-adv-x="1540" 
d="M1323 1505l-41 2q-25 0 -29 -26q-14 -66 -80 -123q-75 -65 -94 -98t-51 -92q-71 -135 -108 -185q4 -12 4 -51v-94q14 -34 29.5 -55.5t25.5 -71t25 -64.5q45 -31 65.5 -79.5t21.5 -92.5q4 -186 58 -209q8 -4 24.5 -4t49.5 8l8 -26q-50 -13 -63 -26t-13 -38v-20
q0 -26 193 -209q24 -26 106 -35l-2 -14q-44 6 -69 6t-43 -12h2q-13 -7 -14.5 -24.5t-10 -30t-19 -20t-20.5 -19.5q-25 -28 -27 -107h-16v20q0 102 -80 113l-35 6q-15 0 -71 -47l-6 8q39 33 49 45t10 23q0 26 -27 31l-141 16q-8 0 -10 16q-4 -11 -14.5 -13.5t-31.5 -2.5h-26
q-28 0 -57 14t-43 28l-15 15q-14 -17 -14 -34.5t39 -59.5l-23 -20q-40 43 -64.5 43t-83 -53.5t-58.5 -70t20 -69.5l-16 -6q-20 47 -31 59.5t-27 12.5h-4q-17 0 -31 -11.5t-42 -54.5l-13 8q37 55 37 67.5t-4 24.5v2q-9 21 -42.5 21t-88.5 -47l-12 14q31 27 38.5 38.5t11 16
t5.5 13.5t2.5 11t0 13t-0.5 31q0 52 -104 117l6 8q64 -40 86 -43h6q16 0 127 140l37 46q4 37 19 62q21 33 56 82q-14 18 -34 18t-58 -4l-4 23q51 7 67 17.5t21.5 32t7.5 69t2 87t12.5 76.5t37.5 49q18 11 18 25v59q0 61 -139.5 270.5t-231.5 301.5q-10 10 -22 10t-60 -29
l-10 17q56 34 56 53q0 73 -265 235q-24 17 -110 17v12q80 0 102 11t29 15t19.5 18.5t15.5 17.5q22 19 22 47.5t-6 64.5l25 6q10 -51 22.5 -70.5t27.5 -25.5t42 -18q47 -21 80 -21h249q7 0 15 4q71 51 149 51q25 0 65 -20.5t75 -20.5l-31 31l10 10q21 -20 49 -41l31 5v-15
q-1 0 -3 -1t-3 -1q8 -2 22 -2h570q20 0 37.5 11.5t48.5 52.5l14 -13q-45 -55 -45 -80q0 -45 19.5 -58t70.5 -26l-4 -18q-39 8 -60.5 8t-37.5 -16q-57 -68 -154 -68zM635 1350l-2 -15q40 -16 71.5 -75t34.5 -121q0 -9 15 -27q10 -18 30 -18q41 0 50 39q19 86 55 168t76 120
q8 8 8 19v53q0 22 -35 35.5t-62.5 13.5t-76.5 -49l-19 16q52 52 52 82q0 78 -29 119q-45 -10 -62 -29l-65 -63q-6 0 -7 -16.5t-13.5 -33.5t-25.5 -28q-36 -29 -36 -43q2 -28 21.5 -74t19.5 -73zM690 119q31 0 78 57l17 -12q-39 -49 -39 -74.5t15.5 -50.5t33.5 -25
q35 0 71.5 82t36.5 108q0 46 -37 46q-17 0 -73 -35l-6 12q42 27 53.5 39t11.5 25v76q0 8 -41 75.5t-59 67.5q-28 0 -48 -66q-34 -112 -34 -223q0 -20 9.5 -58.5t10.5 -43.5z" />
    <glyph glyph-name="Y" unicode="Y" horiz-adv-x="1337" 
d="M903 -49q-54 57 -85.5 56t-133 -12t-149 -11t-110.5 29.5t-91.5 29.5t-67.5 -10l-4 20q51 13 70.5 26.5t28 28.5t24.5 37q35 48 35 74.5t-23 81.5l17 6q19 -50 32 -67q20 -25 38.5 -25t30 12t11.5 23v151q0 1 -7 17q-21 46 -21 93.5t-36 168t-37 156.5t-9 45l-27 24
q-13 13 -30.5 13t-67.5 -23l-10 20q40 22 52.5 35.5t12.5 37t-14.5 60.5t-34.5 37q-14 0 -59 -16l-9 21q64 24 64 45q0 58 -77 125q-84 71 -101 120q-5 15 -13 47t-14 52t-21 37.5t-31.5 17.5t-58.5 -10l-6 22q49 15 61.5 26t12.5 32v6q0 19 -55 71l6 7q53 -56 72 -56h4
q16 0 53 68l10 -6q-33 -55 -33 -67.5t2 -14.5q66 -110 176 -152q61 -22 171 -46.5t150 -39t81 -22.5l2 12q0 21 -35 74l14 8q37 -56 49 -61t23 -5h189q4 0 32 16q57 34 193 34q10 0 18 8l47 47q16 13 41 92l9 -2q-23 -72 -23 -84t2 -16v-2q1 -10 5 -15q9 -11 73 -26l-2 -15
q-54 13 -66.5 13t-21.5 -13l-58 -76q-10 -13 -10 -25t47 -50l-16 -19q-42 37 -55 37t-25 -12l-22 -25q-15 -13 -15 -29t27 -63l-19 -12q-34 61 -59 61q-18 0 -23 -28q-9 -51 -90 -119q-5 -4 -8.5 -11.5t-22.5 -26.5q-49 -51 -49 -87q0 -16 60 -53l-10 -17q-50 31 -66 31
q-31 0 -48 -64.5t-17 -109.5v-416q0 -8 8 -20q88 -78 100 -160q1 -7 3 -9q6 -8 48 -8h25l2 -12q-65 -2 -70.5 -7.5t-5.5 -12.5l-4 -29q0 -29 55 -84zM711 1260q0 34 -39 34q-14 0 -76 -18l-4 10q66 24 73 32.5t11 18t6 11.5q-41 6 -83 4.5t-85 -29t-43 -51t14 -31.5l111 -94
q17 -14 35 -14t63 30l15 -22q-54 -36 -54 -57.5t12.5 -49.5t19.5 -28t20.5 9t30.5 24q40 37 40 98q0 32 -61 67q-2 -4 -2 -8l-15 4q11 49 11 60zM723 1227q53 -31 75.5 -31t22.5 25t-20 36l-19 11q-8 4 -14 4h-10q-16 -2 -22.5 -13.5t-12.5 -31.5zM819 1202l-4 -2q2 0 4 2z
M805 1194l-2 -2q2 0 2 2z" />
    <glyph glyph-name="Z" unicode="Z" horiz-adv-x="1284" 
d="M309 49l-115 14q-29 0 -84 -36l-10 14q43 29 56 45.5t21 62.5t40 70q4 4 8 12l59 156q2 4 2 16t-51 58l8 10q47 -45 59.5 -45t16.5 2l8 12q135 366 211 398q-1 0 2.5 6.5t10 19.5t15 29t17.5 35.5t17 39.5q19 50 21.5 70.5t15 61.5t24.5 100h2q-14 -86 -14 -110v-5
q0 -12 7.5 -22t19 -10t23 21.5t18.5 47.5q18 70 53 70h6q4 12 4 22t-10.5 19.5t-26.5 9.5h-350q-30 0 -61.5 -32t-71 -90.5t-50 -70.5t-10.5 -16t45 -57l-12 -10q-41 49 -55 49t-27 -8l-23 -21q-26 -26 -61 -113l-8 5q31 80 31 110v129l49 127l-37 131q-9 33 -76 84l8 10
q63 -46 90 -49q17 3 23 19l10 26q6 14 6 32t-18 83l14 4q27 -85 73 -122q16 -13 31.5 -14t66.5 -13.5t80 -12.5t69 62l18 -12q-35 -50 -35 -71.5t21 -21.5q53 0 53 103h27q0 -70 32.5 -94.5t88.5 -24.5t168.5 27.5t144.5 28.5t46 9.5t23 12.5q21 7 21 84h16v-32
q0 -13 2.5 -23t3 -14.5t6.5 -9t7 -5.5t11 -4t15.5 -5.5t21.5 -2.5t75 34l8 -12q-46 -27 -59 -41t-15.5 -30.5t-23.5 -54.5t-21.5 -47t-5 -24.5t-12.5 -35.5t-15.5 -38t-20 -44t-21 -43t-23 -45.5t-21.5 -42.5q-27 -51 -37 -68t-10 -27t51 -53l-12 -14q-46 37 -63 37
q-25 0 -52.5 -57t-27.5 -79.5t57 -62.5l-12 -16q-48 34 -68 34q-35 0 -86 -75t-51 -103t55 -67l-10 -15q-50 37 -69 37t-28 -15.5t-11.5 -35.5t-13 -39t-30.5 -25t-28 -42.5t-8 -55.5q0 -37 30 -39l127 -24q2 -2 5.5 -2t11.5 4q52 28 188 28l94 -2q15 0 32.5 34t33.5 40
q22 15 29 64q15 90 71 92l37 2q16 0 31 10t49 49l8 -8q-49 -54 -49 -78l6 -88q1 -13 5 -19q10 -15 75 -22l-2 -20q-18 2 -42 2t-32.5 -5.5t-16 -31t-36.5 -83.5q-68 -139 -68 -156.5t4 -61.5l-12 -2q-10 80 -33 102v-2q-6 6 -36 6t-90 2.5t-103 6.5q-169 13 -197 14.5
t-47 -9t-34 -10.5l-43 9q-119 -17 -248 -17zM471 1376l-5 6q0 -3 5 -6zM458 1395l-2 4z" />
    <glyph glyph-name="bracketleft" unicode="[" horiz-adv-x="734" 
d="M365 1708q13 -49 29 -49q39 0 135.5 19.5t149.5 21.5q0 4 14 31l43 -23l-16 -31l12 -26q6 -13 9 -17q12 -16 69 -16l-47 -53q9 -28 28 -68l-61 -2q-23 43 -28.5 47t-12.5 2t-12 -2h-35q-107 0 -107 -41v-31l-88 -2q-5 45 -37 54l-6 -6h2q-25 -32 -51 -43q35 -221 35 -701
l-2 -147v-115q0 -100 -15.5 -299.5t-15.5 -296.5q0 -2 16 -61l-2 2l5 -11q134 -51 180 -51h96q0 7 8 55h58q-7 -35 -7 -46v-12q0 -1 -2 -3l31 -23q20 -8 39 -8h10l35 2v-53q-71 -5 -82 -14q0 -18 21 -64l-64 -4q-17 47 -20 47h-113q-42 0 -113 14.5t-100 14.5h-20
q-4 0 -31 -43l-60 4l41 68q-65 143 -65 387l18 475q0 9 1.5 27t2 30.5t-1.5 28t-8 24.5q-14 23 -53 23v86q39 0 45 11q8 15 8 53.5t-8 97.5t-5 72.5t-7.5 25t-44.5 25.5l4 57l53 -23q4 78 4 127v35q0 183 -30 232q-16 27 -42 43l56 94q30 -21 59 -21t29 5.5t-11 46.5z" />
    <glyph glyph-name="backslash" unicode="\" horiz-adv-x="812" 
d="M-20 1536l57 -4q17 0 31 14h-2q16 17 18 90h62q0 -75 14 -92q32 -39 43 -94q0 8 10.5 8t18.5 -2l-8 -47q-4 0 -9 1t-6 1q30 -79 129 -306.5t140 -316.5l30 15l29 -39q-27 -19 -29 -19q41 -143 147 -410t171 -384q9 -9 67 -14v-60h-69l-4 -8l28 -12l-18 -43q-40 18 -64 18
q-8 0 -45 -37l-63 64l29 32q14 12 14 15q-22 44 -282.5 661.5t-372.5 874.5q-11 23 -68 31z" />
    <glyph glyph-name="bracketright" unicode="]" horiz-adv-x="701" 
d="M-8 -166l309 12q29 19 51 50v26l-16 357v40l6 52q10 49 10 114.5t-13.5 194t-13.5 194.5l2 39l-2 -2q-2 0 -2 2l2 2l-4 3l8 14q0 81 14.5 246.5t14.5 229.5t-12 110q-88 51 -168 51h-119q0 -5 -12 -51l-57 2l14 63l-37 23v-2h-72v53q75 4 84 18q19 19 31 19h139l191 -21
h16q19 0 57 49l60 -43q-33 -45 -33 -57.5t4 -26.5v2q47 -100 47 -137l-14 -551q0 -177 11 -252t11 -110l-8 -158v-14q0 -25 6 -74q0 -10 17 -10h35v-68q-50 0 -50 -8q-4 -45 -4 -127t4 -238q0 -32 60 -65l-39 -61q-50 26 -57 26l-11 -2l-8 -2h6l-12 -4h-4q-8 -8 -8 -16
t18 -48l-78 -18q-17 45 -30 45l-242 -33h-41q-15 0 -39 -53l-65 27q26 53 26 57t-2 6l-39 66q7 7 14 23q16 36 44 36zM332 961v-25l6 18z" />
    <glyph glyph-name="asciicircum" unicode="^" horiz-adv-x="776" 
d="M197 1075l-66 72l115 285q7 19 20 52q27 73 27 84.5t-39 45.5l41 63q29 -25 49 -32q7 0 23 8q0 16 -2 41l47 6l2 -17l14 17l37 -25l-18 -35q11 -19 75.5 -174.5t137.5 -298.5l-113 -86l-176 316z" />
    <glyph glyph-name="underscore" unicode="_" horiz-adv-x="1222" 
d="M610 246l248 -4q39 0 61 12t37 47l92 -37q-14 -38 -14 -47q0 -18 71 -18l-2 -84h-32q-19 0 -45.5 -7t-26.5 -16.5t16 -48.5l-73 -33q-8 23 -12 35.5t-9.5 18.5t-6.5 7t-9 0t-11 -1l-317 -7h-66l-67 3q-101 0 -151 -12t-83 -54l-86 63q30 38 37 84v21q0 29 -2 47h-2l-2 18
h21q-3 10 -11 21l64 35q32 -47 47 -47l39 4h295zM942 55l-9 23v-27q9 0 9 4z" />
    <glyph glyph-name="grave" unicode="`" horiz-adv-x="1598" 
d="M758 622q0 10 -30.5 33t-30.5 33q0 15 -37.5 35t-74.5 39t-37 34q0 73 -130 133q0 7 -21 9l-84 -2q-12 -17 -29 -17q-10 0 -31 -62l-20 8q7 44 7 98q-11 79 -59 122q-10 12 -10 20l-49 35l18 19l46 -33q0 47 46 47l31 -1q-15 0 -19 185l13 9q51 -48 51 -64q0 -6 32 -16
l153 -111h-3l-1 -18q90 -66 90 -156q10 -33 160 -85q11 2 109 7l3 -13q-54 -27 -87 -32q8 -8 10 -36l44 -39q-8 -15 115 -15q1 0 16 23t39 73l36 -17q-40 -83 -40 -137q6 -22 43.5 -57t46.5 -35l45 -35l-80 -156l-52 29q-52 30 -104 71.5t-52 64.5z" />
    <glyph glyph-name="a" unicode="a" horiz-adv-x="1107" 
d="M1162 84q11 -19 48 -20t40 -7q0 -4 -26 -6.5t-35 -6.5t-13 -9t-17.5 -10.5t-26 -25t-14.5 -35.5q-3 -42 -18 -42q-19 0 -53 39t-57 80l-50 -29q-26 -13 -27 -49t-20 -43q0 110 -112 148q-52 18 -91.5 18t-109.5 -4l-33 -14q-3 -1 -21 -18q-50 -44 -69 -44l8 8h-2
q-4 0 -38 30t-46 30l-145 -8q-31 -26 -92 -37q-15 -27 -66.5 -39t-116.5 -21t-84.5 -19.5t-26.5 -10.5t-11 2q55 32 84 63l36 53q8 10 11.5 39t9.5 35q-4 -37 -4 -55.5t4 -22.5v21q0 63 45 65q0 71 80 97l-23 157l-69 17l2 24q56 -12 65 -12q15 0 28.5 33t29 75t32.5 56
q-2 20 -2 57l11 135q0 10 -29.5 31t-30.5 35v4q45 -19 63.5 -19t40 46t21.5 62.5t-24 38.5q-31 30 -23 46q50 -31 62.5 -31t27.5 15q-2 8 -2 39.5t35 121t35 140.5l-2 24q0 8 -28.5 31.5t-29.5 36.5v4q54 -25 68 -25q24 0 66 70t89.5 164t59 109t18.5 38q22 65 37 72
q-8 -47 -8 -74.5t15 -77t63 -161.5t88 -195q102 -212 125 -418q5 -51 23 -90t18 -78l-4 -80v-63q62 -86 80 -209q6 -31 32.5 -56.5t26.5 -39.5l2 -6q-65 55 -98 55h-17l11 -102q50 -22 70 -70q18 -45 65 -45q2 0 26 20.5t43 20.5q-34 -46 -34 -57t4 -19v-2zM621 221l12 2
l31 4l57 64l-12 180q-35 25 -53.5 77.5t-18.5 77.5t1 29t1 7l-30 -44q-8 -11 -8 -19t9 -30t9 -37.5t-6 -21.5q-29 48 -42.5 60t-33.5 12h-223l14 -56q3 -12 39.5 -39t38.5 -43q-43 17 -62.5 17t-35.5 -12l-19 -27v-195l76 4l61 -10q5 0 27.5 10.5t36.5 10.5t18 -2
q-39 -24 -51.5 -36.5t-15.5 -27.5v-22l-2 -7q0 -14 15 -15q32 -2 46 -32q-45 15 -58.5 15t-13.5 -17q5 -24 46 -75q35 37 44 59t32.5 65t23.5 51t-14.5 33t-14.5 35.5t8 18.5q43 -64 68 -64zM494 891l-59 10q-21 0 -39 -25q-33 -45 -33 -78.5t2 -41.5l45 -17q38 0 64 14.5
t38 18.5l33 10q-4 8 -4 18t18.5 32t18.5 32q0 41 -27 179.5t-43 187.5l-88 -201v-20q4 -4 8 -41v-8q4 -25 48 -43q25 -17 26 -23q0 -4 -8 -4z" />
    <glyph glyph-name="b" unicode="b" horiz-adv-x="1736" 
d="M592 1767l35 2q21 9 21 27.5t-19 69.5l19 6q17 -47 28.5 -60.5t28.5 -15.5l74 -12l8 -2q21 0 21 25.5t-33 76.5l16 10q25 -39 39.5 -52t30.5 -13l90 4q15 0 21 3q16 9 20 73l23 -2l-2 -25q0 -42 9 -47q13 -6 124 -24.5t151 -35t75 -63.5q10 -13 53.5 -75t100.5 -132
q13 -16 30.5 -16t65.5 18l9 -20q-48 -19 -61 -31.5t-13 -32.5l-2 -200q0 -7 110 -27l-6 -33q-62 11 -75.5 11t-28 -12t-18 -25.5t-6.5 -36.5q-10 -74 -62.5 -123t-106.5 -53q-12 0 -20 -9l-35 -43q-8 -8 -8 -18q0 -31 28 -31q18 0 58 15l8 -23q-63 -19 -63 -43q0 -4 6 -31
q37 -47 53.5 -107.5t23.5 -60.5q27 0 91 52l10 -13q-40 -35 -52 -52.5t-14 -37.5l-24 -370q0 -5 96 -41l-4 -29q-97 31 -104.5 31t-22.5 -15l-10 -16l-11 -64v5q-2 -7 -2 -19q0 -30 64 -63l-14 -27q-47 23 -68.5 22.5t-63 -51.5t-65.5 -51l-133 -4q-37 -2 -95 28.5t-81 43.5
q-71 37 -116 67q-10 4 -15 4l-41 -2l-47 17q-43 0 -43 -60q0 -7 4 -41l-23 -2q-6 52 -14 66.5t-27 19.5l-84 21l-14 2q-25 0 -82 -49l-10 14q39 33 50 50.5t11 37.5v78q0 9 -12 29l-41 49l6 6q36 -38 56 -53q18 6 18 24v33q-3 38 -39 109l8 4q41 -82 69 -109t49 -27
q40 0 40 37l-8 160q0 100 18 166v6q0 11 -10 31.5t-10 34.5l-19 264q0 31 1 42t-3 19q-29 52 -64.5 196t-35.5 200l18 182q0 51 -30 51q-48 0 -84.5 -19.5t-36.5 -53t4 -54.5l-19 -2q-14 98 -69 98l-127 -6l-70 4q-3 0 -71 -12l-7 20q79 18 84 21l199 125l-61 -27l59 39
q-3 16 -25 57l11 5q10 -23 26 -52q39 33 39 70q0 12 -2 18l129 31q17 -74 143 -74zM912 1049l-2 12q95 13 123 35q-5 -4 -15.5 -11.5t-15 -11t-6.5 -5.5l-4 -4q-4 -4 -4 -7q0 -13 44 -13h50q19 0 94.5 114t75.5 154.5t-5.5 99.5t-23.5 119t-44 60q-19 0 -30 -14.5t-26 -71.5
l-16 4q10 52 10 64q0 49 -120 77q-48 12 -59 19.5t-28.5 7.5t-39 -10t-34.5 -29.5t-21 -39.5t-11 -50q-6 -46 -6 -96v-399q0 -64 45 -74q16 0 33 17.5t36 52.5zM1080 614l-28 -2q-18 0 -68 4h80q8 0 12 2q-1 0 -6 5l2 4l8 -6q15 7 15 28q-9 89 -81 131.5t-175 42.5
q-37 0 -37 -16q0 -42 17.5 -125t17.5 -156.5t-9.5 -103t-9.5 -35.5l8 -47q1 -10 5 -14q9 -11 75 -13v-18h-33q-37 0 -42 -7t-7 -16l-12 -45q0 -2 4 -8l-8 6q18 -34 18 -75v-46q0 -18 90 -18q21 0 37 -10q23 -16 31 -10l72 30q7 2 13.5 13.5t6.5 21.5q0 19 -59 47l8 19
q46 -21 61 -21q25 0 58 80.5t33 124.5q-6 83 -41 158l-25 51zM1086 614l21 -14q-4 12 -4 18zM816 219q2 -2 4 -6zM304 1714l-6 -2q4 0 6 2zM205 1671l-4 -2q2 2 4 2zM205 1671l3 1q-2 -1 -3 -1z" />
    <glyph glyph-name="c" unicode="c" horiz-adv-x="1502" 
d="M1163 469l28 2l2 -22q-51 -5 -62 -13t-11 -28v-41q0 -15 3 -22q7 -17 70 -30l-4 -22q-32 8 -45 8t-17.5 -1t-7.5 -1.5t-6 -4t-4.5 -4.5t-4 -6t-2.5 -5.5t-5.5 -16.5t-15.5 -46l-17 -50q-6 -19 -6 -21l-10 -102q0 -17 69 -29l-2 -16q-36 6 -49.5 6t-19 -3t-6.5 -5
q-4 -5 -4 -23.5t45 -72.5l-11 -9q-48 62 -71 62h-54q-31 0 -163 -127l-11 10q125 130 127 154v6q-3 22 -30 22l-43 -2q-29 0 -38.5 1t-13.5 -1l-55 -26q-4 -2 -19 -2t-40.5 10.5t-32.5 17.5l-41 21q5 -11 43 -62l-10 -6q-49 63 -91.5 80.5t-102 57.5t-83.5 69l-10 6
q-60 25 -96 68t-69 109.5t-50 91t-39 24.5t-61 -14l-7 14l70 35q-12 51 -47 51q-18 0 -63 -18l-7 16q47 19 58.5 29t11.5 26l-8 99q-1 17 -4 25q-9 18 -74 22l2 31h23q67 0 67 86l-2 51l4 37q0 10 -53 69l22 31q50 -47 59.5 -46t20.5 19q20 49 85 127.5t85 122.5q6 9 6 24.5
t-45 63.5l17 17q44 -47 76 -47t100 53.5t68 76.5t-25 66l31 19q32 -54 61 -54q9 0 88 29t127 29l215 20q19 2 32.5 15.5t33.5 60.5l18 -8q-24 -55 -24 -69t4 -21q5 -10 20 -13l39 -8q6 -2 17.5 -2t21.5 10l-8 19q2 -8 12 -17q16 14 41 45l2 -2l-24 41l14 11
q31 -43 46.5 -54.5t35.5 -11.5h45q20 0 38.5 10.5t55.5 46.5l10 -10q-36 -38 -46.5 -56t-10.5 -38v-59q0 -10 80 -66l-19 -31q-71 41 -77 41q-21 0 -21 -22q-14 -222 -78 -321q-30 -46 -57 -64.5t-27 -32t13 -64.5l-13 -4q-13 66 -18.5 72.5t-11.5 7.5h-7l-6 2q-4 0 -49 -55
l-14 16q37 52 37 56l-2 10l-21 39q-6 10 -6 16l12 58q0 84 -41 152.5t-112 98.5q8 -19 34 -73l-4 -2q-33 66 -40.5 71.5t-13 8.5t-9.5 8q-35 10 -61.5 10t-58.5 -14.5t-32 -35t21 -61.5l-27 -14q-30 59 -61.5 59t-64.5 -21.5t-75.5 -64t-52.5 -50t-14 -27.5q-15 -77 -27 -98
t-13.5 -41t-21.5 -71q-30 -73 -30 -167.5t13 -109t54 -17.5l-4 -33h-41q0 -37 17 -57.5t30.5 -20.5t51.5 10l2 -8q-68 -18 -68 -30l8 -23q6 -20 29 -20t57 12l6 -23q-67 -22 -67 -45q0 -8 2 -12l2 -16l6 -13l23 -22q2 -2 4.5 -4t3.5 -3t11 -1q26 0 79 63l14 -10
q-49 -56 -49 -88q0 -144 250 -144q10 0 14 4l39 27l37 57q4 14 4 28t-35 67l15 10q41 -68 65 -68q33 0 33 76q0 25 -68 57l11 19q45 -25 63 -25t29 13l71 69q26 26 54 105l8 -4q-25 -71 -25 -90t2 -25v-4q1 -13 3 -18q5 -15 47 -15zM1167 1532q8 -4 14 -4q18 0 18 28
q0 5 -4 21q-21 -23 -28 -45zM1132 1569q-4 8 -4 10zM1048 1556l-2 3v2z" />
    <glyph glyph-name="d" unicode="d" horiz-adv-x="1238" 
d="M532 25l-14 -2q-22 0 -63.5 20t-61.5 20l-55 -12q-17 -3 -27 -18t-23 -66l-16 6q10 52 10 67t-12 28.5t-31 13.5t-69 -23l-8 17q46 21 58.5 33.5t12.5 29.5v19q0 20 -10.5 38.5t-46.5 55.5l12 12q30 -32 41 -41v2q70 26 70 49v9q-5 108 -32 321.5t-71 410.5t-80 197h-8
q-21 -5 -123 -12l-14 60l47 38q17 19 17 29t-25 62l18 10q20 -36 31.5 -48t32.5 -12t146.5 39.5t125.5 50.5t-12 66l10 2q17 -70 29 -70q14 5 14 19.5t-4 58.5l12 2q9 -64 15.5 -68.5t22.5 -4t32 3t35 10.5q35 14 55 63l4 -2l-16 -41q20 18 20 41t-6 54l29 6q10 -50 23 -65
t36.5 -16.5t45.5 -5.5t36 -6.5t36.5 -10.5t28.5 -10q52 -17 57 -21t21.5 -4t59.5 53l14 -13q-39 -47 -39 -62.5t20 -48t66.5 -84.5t82 -87.5t68.5 -81.5q69 -95 69 -266q0 -387 -116 -646q-73 -162 -206 -229q-16 -10 -16 -26l22 -115l-29 -4l-20 108l-33 -26h-20
q-5 64 -14.5 68.5t-20.5 4.5l-92 -4q-31 0 -31 -30l-2 -86h-23v108q0 17 -16 27l-65 30q-8 5 -15 5zM520 340l8 -68q0 -38 -8 -96l-21 64l21 -72l2 2q110 -18 149.5 -18t56.5 13.5t19 33.5t1 41q-1 50 40 57q15 0 21 12q112 184 112 393q0 35 -80 46l3 18q36 -4 52 -4
q31 0 31 34.5t-13.5 86t-15 60t-5 49t-7.5 69.5t-19.5 54.5t-39.5 25.5t-57 -15l-8 19q36 14 50 25.5t15 11.5h2q-24 72 -116.5 115.5t-168.5 43.5q-4 0 -12 -4q0 -6 60 -49l-2 -4q-58 43 -62 43l-6 -2q-2 0 -2 -9t12 -65h-2q-16 72 -20 72h-2q-68 -50 -68 -72l4 -213
q0 -20 32 -34q5 -3 14 -3t71 19l6 -14q-92 -29 -92 -68l6 -242v-49q45 -127 45 -229q0 -38 -6 -78zM248 211q16 -8 32 -8l29 -2q8 0 16 12q-10 10 -28 10t-49 -12zM522 170l-2 4v2zM340 199l-4 4z" />
    <glyph glyph-name="e" unicode="e" horiz-adv-x="1546" 
d="M423 559q0 27 -35 27q-6 0 -78 -29l-16 41q92 45 92 53l2 39q1 10 -18.5 198.5t-18.5 254.5q-7 21 -19 30t-44 9l-29 -2l-2 30q63 2 74 20q14 23 14 56t-22.5 72t-44.5 39t-56 -15l-10 25q40 17 51.5 27t11.5 26q-10 17 -26 17l-148 -4q-19 0 -33.5 -12t-39.5 -56l-17 8
q31 53 31 68t-3.5 25t-9.5 23.5t-9 26.5q-9 32 -78 74l10 15q59 -39 79.5 -39t55.5 6.5t195 10.5t172 5l-5 -2q20 2 29 6q21 10 25 74h32q0 -69 18 -76q30 -14 176.5 -22.5t217.5 -8.5q28 0 47 76l17 -4q-9 -33 -9 -53t17.5 -32.5t48 -25.5t43.5 -22q184 12 256 84l86 -90
q-87 -84 -96 -320v140q-4 -34 -22.5 -108t-19.5 -104t10.5 -41.5t57.5 -33.5l-6 -16q-50 22 -67 22t-24 -5q-22 -15 -30 -105l-12 2q2 22 2 50.5t-9.5 49t-28.5 45.5q-72 92 -72 190l2 19q0 24 -46.5 70.5t-82.5 54t-50 33.5q-14 -15 -43.5 -15t-100 17.5t-118.5 17.5
q-114 0 -114 -43q7 -46 15.5 -100t15.5 -103.5t9 -74t6 -64.5q7 -71 7 -129.5t-1 -86.5t27 -28l240 -22q22 0 31 38t13 97.5t10.5 80.5t6.5 41t-22 79l16 6q29 -75 69 -103q39 -27 46.5 -42.5t7.5 -43.5l-6 -190q0 -135 12 -264q0 -16 14 -27t62 -27l-6 -16q-56 16 -68 16
q-38 0 -43 -65q0 -20 54 -74l-6 -6q-54 57 -70 57h-4q-19 0 -45 -71l-8 4q20 59 20 69t-6 13l-17 16q-13 10 -28 10t-66 -22l-8 18q47 20 59.5 32t12.5 30v157q0 6 -19.5 25t-19.5 20l-82 -4q-16 -1 -46.5 10t-41.5 11q-35 0 -35 -45l10 -127q14 -74 20 -219t19 -215
q39 -9 318 -9q12 7 39.5 22.5t42.5 24.5t37 23q37 24 71 53q10 18 12 95h7l-3 -46q0 -67 31 -67q9 0 64 10l2 -10q-64 -13 -69.5 -19.5t-7 -23.5t-24 -71t-22.5 -77.5t12.5 -36.5t52.5 -30l-12 -27q-29 17 -55.5 17t-42.5 -23l-10 -104q0 -9 47 -30.5t102 -37.5l-2 -12
l-145 43q-14 0 -17 -7t-4 -8l-4 -73l-12 2q-1 12 -1 28.5t-0.5 24t-2.5 15.5q-2 14 -16.5 14t-67.5 -15l-2 9q61 17 66 23.5t5 12.5l15 78q0 30 -52.5 60t-78.5 30q-21 0 -52 -61l-20 10q5 16 14 36t10 26q-6 -16 -108.5 -23t-120.5 -10q-12 -15 -33 -15t-70.5 23.5
t-64.5 28.5q-22 -25 -50 -26q-56 -2 -120 -66l-12 14q2 4 18.5 22t27 40.5t10.5 35.5q0 35 22 57l4 19l4 22q-25 110 -34 260.5t-13 194.5zM1117 1534l16 -16q25 12 64 12zM273 1464l2 -2z" />
    <glyph glyph-name="f" unicode="f" horiz-adv-x="1336" 
d="M784 1159q-7 29 -19.5 49t-53.5 68l6 6q74 -88 120 -98q24 -6 58 -6t92 53l10 -12q-38 -37 -48.5 -55t-10.5 -38v-301q0 -21 -12.5 -60t-12.5 -57t60 -61l-11 -14q-48 37 -69 37q-45 0 -45 -95q0 -44 84 -71l-6 -19q-46 17 -67.5 17t-30.5 -6q-24 -14 -50 -113l-10 4
q16 57 16 85.5t-27 71t-51.5 42.5t-64.5 -15l-8 25q48 17 60.5 31t12.5 37v51q0 30 -30 30h-115q-31 0 -31 -30v-346q0 -59 60 -79q72 -25 91.5 -49t38.5 -34.5t70 -28.5l-4 -12q-65 22 -90 22l-67 -12q-6 0 -11 2l-88 10q-155 0 -258 -38q-61 -23 -61 -56q0 -20 26 -69
l-12 -7q-30 56 -43 62q-39 -11 -39 -45l-26 2q99 136 194 192q4 8 4 13v215q0 205 -26 205q-17 0 -52 -9l-6 29q44 11 57 22t13 29l-8 103l-17 520q0 25 -26 28l-56 15q-4 2 -12 2q-22 0 -57 -58l-17 11q29 44 29 65q0 45 -80 45q-15 0 -100 -32l-2 6q69 25 74.5 31.5
t5.5 17.5t-29 59l21 15q34 -54 55 -54q17 0 51 25t43.5 42.5t24.5 67.5l12 -4q-14 -55 -14 -76t11 -35t32 -20t39 -8t46 -2.5t40 -1.5l313 -12q37 0 109 12.5t79 20.5l17 16q16 16 16 34t-31 60l23 16q31 -51 52 -51t39.5 11.5t23.5 23.5l-58 -14q24 7 60 22q0 28 -15 64
l31 10q14 -41 27 -55q86 41 122 90l64 -45q-26 -37 -40.5 -95.5t-14.5 -105.5l4 -63v-207q0 -20 10.5 -38t46.5 -56l-10 -11q-37 37 -55.5 47.5t-38.5 10.5h-56q-21 0 -35 -12t-38 -58l-19 10q29 51 29 66t-8 33l-99 155q-7 7 -16 10l-53 11l-275 -13q-12 0 -26.5 -21.5
t-14.5 -31.5v-63q2 -88 2 -162q5 -6 6 -52q5 -126 35 -126h133q54 0 54 112v41zM950 1612q-12 -4 -16 -4z" />
    <glyph glyph-name="g" unicode="g" horiz-adv-x="1547" 
d="M844 127q-60 0 -67 -107l-17 3q2 16 2 41t-8 42t-18 17l-58 -107q18 43 21 74q0 31 -29 51h-8q-12 -4 -17 -10l-14 -20q-16 -21 -16 -46t6 -63l-17 -2q-11 80 -38 102q-139 115 -201 115q-31 0 -70 -49l-22 20q35 44 35 63t-16 48.5t-16.5 41.5t-34 44t-40 45.5t-18 13.5
t-76.5 -24l-10 31q90 39 90 45q0 41 -44 123t-44 137v293q0 69 36.5 203t36.5 202q0 15 -12.5 27t-54.5 30l8 19q45 -19 65 -19t58 49t65 96t27 50q0 23 -25 72l19 10q23 -47 36.5 -59.5t32.5 -12.5h52q16 0 27.5 13t11.5 34t-11 54l21 6q14 -50 25 -62t32 -12h144
q20 0 29 3q23 9 34 73l35 -6q-4 -19 -4 -43q0 -58 84 -58q12 0 21 13t24 55l16 -4q-16 -44 -16 -61.5t16 -27.5t43 -20.5t57 -25.5q78 -38 123 -117q12 -14 25 -14h117q19 0 31.5 12t33.5 59l19 -8q-23 -50 -23 -68.5t17 -31.5q13 -15 32 -15t62 17l8 -19q-62 -24 -68.5 -36
t-7.5 -25l-6 -221q0 -31 55 -86l-12 -13q-36 38 -54 49t-38 11h-4q-2 -4 -2 -20.5t47 -53.5l-19 -25q-42 35 -63 35q-23 -56 -38.5 -68.5t-16.5 -13.5l-27 35l-17 36q-22 46 -22 70.5t-3 49t-17 60t-37 50.5q-41 41 -60 72q-24 -6 -65.5 -6t-77.5 4h47q14 0 23.5 8t9.5 27
t-41 55.5t-60 36.5l-153 12q-68 0 -120 -41q-55 -42 -78 -47t-29.5 -19.5t-34.5 -76.5q-66 -150 -66 -154v-411q0 -101 65 -192q88 -124 109 -171q5 -12 63.5 -23.5t87 -11.5t66.5 66l21 -12q-29 -48 -29 -63.5t12 -33.5l13 -16l-13 -23q47 47 106.5 176t59.5 216
q0 37 -86 37q-28 0 -88 -50l-10 11q40 35 52 51t14 33v2q0 99 -12 163.5t-60 155.5l6 4q58 -108 124 -139q29 -13 57 -21q74 -22 110 -61q16 6 57 6q246 0 246 -104q0 -97 27 -112q13 -7 65 -7v-21q-52 0 -65.5 -5.5t-18.5 -22.5v-10q0 -25 43 -78l-12 -11q-31 41 -47 52.5
t-33 11.5h-90q-29 0 -31 -29q-8 -89 -54 -214t-93 -185l-2 8q0 -23 8 -42.5t41 -67.5l-8 -7q-45 68 -85.5 88.5t-93.5 20.5h-59zM678 16l-6 -10z" />
    <glyph glyph-name="h" unicode="h" horiz-adv-x="1561" 
d="M1074 1540q18 9 18 55v41h17q2 -29 4 -44t2.5 -20t3.5 -10.5t3.5 -7.5t6 -4.5t7 -3t9.5 -2t10.5 -3t18.5 -0.5t69 21t75 34.5t28 32.5t12 75l15 -2q-4 -31 -4 -62.5t9.5 -43t33.5 -11.5t69 6l4 -16q-55 -7 -72.5 -14.5t-25.5 -22.5l-14 -35q-4 -12 -4 -18q0 -27 53 -70
l-16 -20q-55 45 -70.5 45t-34.5 -17q-12 -5 -12 -12.5t20.5 -32t31.5 -108.5t11 -144l-10 -458q-2 -17 -4 -45.5t-4 -41t-8 -31.5q-9 -32 -32.5 -49t-23.5 -32v-145q0 -9 46 -48.5t51 -39.5l30 -7q19 0 88 45l7 -12q-47 -30 -61 -43.5t-17 -28.5v-4q-4 -4 -4 -12
q0 -12 65 -59l-8 -15q-51 37 -66.5 37t-23.5 -4l-25 -18q-12 -7 -12 -31l2 -25l2 -71h-35v84q0 33 -68 46.5t-159 19.5t-119 16.5t-81 41t-83 40.5l8 75q27 11 91 11h55q35 0 35 32l35 377q0 25 -17 29q-21 4 -66.5 4t-78 -5.5t-41 -22.5t-8.5 -72h-25q0 55 -8 72t-36 21.5
t-120 4.5t-96 -35l-12 -317q-2 -27 22 -63t49 -36q33 0 33 70v27h14q2 -70 8 -77t15 -9l22 -7q5 -2 18.5 -2t88.5 31l4 -10q-75 -31 -96 -58l-4 -10q-11 -15 -11 -26l17 8l-4 -15q-8 0 -13 -2q5 -26 39 -69l-20 -17q-45 62 -72 62q-46 0 -169 -59.5t-134.5 -64t-17.5 -9.5
q-18 -15 -25 -86l-20 2q2 22 2 57t-15 35t-26 -11.5t-11 -27.5v-27q0 -17 -13 -44.5t-13 -86.5v-35h-6q-5 91 -15 103l-4 12q-8 8 -25.5 8t-66.5 -10l-2 10q69 17 75 24.5t6.5 12.5t19.5 59t18 56l-37 63q-4 9 -104 29l4 35l65 -10q35 0 71 27.5t36 41.5v342q0 17 -16.5 54
t-16.5 55v311q0 10 -64 43l13 43q31 -14 44.5 -14t26.5 13.5t13 31.5l-15 176q0 6 -10 16l-78 70q-21 18 -58.5 18t-60.5 -2v21q86 6 113 37l45 61q25 35 29 121h12q-2 -18 -2 -61t16 -64q16 -12 127 -26.5t144.5 -14.5t46 13.5t37.5 58.5l14 -8q-31 -56 -31 -80
q0 -49 125 -49q33 0 115 34l4 -12q-74 -31 -98 -55l20 4l-12 -45l-41 2q-4 -4 -4 -8q0 -38 53 -113l-12 -8q-35 46 -52.5 61.5t-37.5 20.5l-33 10h-10q-22 0 -35.5 -31t-13.5 -47v-329q0 -35 32 -35h166q21 0 56 18.5t56.5 18.5t64 -16.5t60 -16.5t28 11t10.5 26v356
q0 39 -146 66l-28 73q23 0 43 -6q13 0 21.5 11t8.5 32t-10 62l23 6q15 -54 27 -67t36 -13h8q10 0 41.5 26.5t61.5 26.5z" />
    <glyph glyph-name="i" unicode="i" horiz-adv-x="814" 
d="M481 84l-3 14q-5 0 -51 -4v10l45 5q-15 22 -39 22h-110q-16 0 -82 -45.5t-66 -71.5l-16 -59l-29 8l21 55q0 45 85 159q29 38 29 54l-14 1194q0 17 -29.5 32t-33 31.5t-33 29t-43.5 12.5q-3 0 -72 -62l-24 33q55 57 55 64q0 26 -102 73l2 4q71 -32 98 -32h80q25 0 41.5 13
t36.5 60l26 -10q-18 -47 -18 -72.5t32.5 -44t69.5 -18.5h150l41 57l14 -14q6 6 6 23.5t-24 66.5l20 10q23 -47 36 -59t34 -12h39q8 0 41.5 35.5t33.5 48t-16 61.5l10 4q16 -48 23.5 -59.5t17.5 -11.5h6q20 0 92 28l2 -4q-66 -25 -88 -41l-26 -24q-8 -9 -8.5 -28t-6.5 -36.5
t-18 -25.5q-19 -13 -39 -16.5t-56.5 -15t-47.5 -14.5l6 -69v-27q0 -11 94 -14l-4 -19q-14 -1 -31 -1h-24q-26 0 -31 -11q-6 -12 -6 -41l14 -313q0 -99 -11 -291t-12 -240.5t10 -63.5t54 -44l-10 -17q-53 35 -82 35t-29 -28v-88q0 -27 65.5 -44.5t65.5 -46.5l-2 -8
q0 -9 15 -37t18 -37q12 -43 66 -96l-9 -10q-61 64 -96 72h-2l-6 2q-41 0 -41 -99l-25 2q0 39 -16 75t-49 44l-21 -37q7 16 7 25z" />
    <glyph glyph-name="j" unicode="j" horiz-adv-x="1051" 
d="M359 1597l-327 25q-36 0 -111 -47l-8 12q72 53 82 86l10 29q2 4 2 12q0 20 -61 49l10 17q45 -23 60 -23t26.5 17.5t11.5 36t-30 71.5l16 8q25 -45 39.5 -56t34.5 -11h186q28 0 42.5 13t27.5 62l32 -8q0 -85 24 -99q12 -7 25 -7q44 -2 68 -17l43 5q11 0 19 8q28 32 90 48
t100 17.5t102 1.5h246q34 0 111 43l6 -12q-86 -49 -102 -81t-35 -41.5t-21 -14.5l-12 -19q-8 -20 -8 -36.5t35 -61.5l-21 -12q-40 55 -69.5 55t-60 -18t-30.5 -33t9 -64l-17 -4q-15 65 -23 71t-18 7h-2q-71 0 -86 -13.5t-20 -29.5v-233q2 -19 8 -19q22 -22 39.5 -22t66.5 20
l9 -20q-49 -22 -60.5 -33.5t-11.5 -32.5v-59q0 -17 4 -26q8 -20 72 -36l-9 -26q-29 8 -55 8q-47 0 -47 -123l4 -422q0 -86 -12 -108t-19 -29t-11.5 -10t-4.5 -4q37 0 111 38l4 -10q-60 -30 -73.5 -43.5t-19.5 -18t-10 -13t-6 -11.5q-4 -6 -4 -19v-24l10 -102l-4 -39
q0 -24 60 -66l-11 -14q-55 39 -77 39t-59.5 -46t-37.5 -67t47 -69l-12 -15q-47 47 -73.5 47t-46 -33.5t-19.5 -67t49 -87.5l-18 -14q-54 59 -93 59h-8l-69 6q-2 -2 -4 -2h-5q-15 -3 -27 -18t-32 -62l-14 6q22 56 22 71.5t-18.5 68.5t-19.5 77.5t-13.5 36t-60.5 31.5l8 16
q51 -22 72.5 -22t44 35t22.5 57.5t-35 75.5l17 12q29 -43 45 -55t37 -12h73q25 0 29 24l8 49l-2 15l14 65v62q0 6 -4 14q-26 38 -26 77t6 87q0 6 -26.5 51t-33.5 68q-3 20 -24 20t-57 -6l-3 18q64 11 69 19.5t5 17.5v72q0 127 -16 143q-31 61 -31 422l2 197q0 12 -9 20
t-22 8z" />
    <glyph glyph-name="k" unicode="k" horiz-adv-x="1343" 
d="M415 367l-21 276q0 6 -4 14l-14 21q-1 1 -4 4.5t-4 4.5q-9 9 -25.5 9t-57.5 -16l-8 20q42 16 55 27t13 27l-16 114q-11 6 -21 6t-88 -32l-8 18q92 44 92 49q0 59 -21.5 174.5t-22.5 148t-9 40.5h-2q-20 18 -53 18t-52 -2l-2 17q51 5 69 13.5t29 24.5l15 21q4 8 4 14v49
q-22 -16 -33 -67l-47 10q4 28 4 48.5t-22.5 38t-50.5 21.5q-74 9 -83 52q-4 19 -22.5 22.5t-85.5 3.5v9q61 0 77.5 3.5t42 18t25.5 35t-16 57.5l18 9q27 -64 45 -64q21 11 21 80h24q0 -56 15.5 -75t42.5 -19l213 22q41 0 97.5 -11.5t80 -28.5t32.5 -17t16 11t7 25t-20 64
l20 8q20 -47 32.5 -59t33.5 -12h35q41 0 53 33q6 16 10 43l33 -7q-4 -32 -4 -39q0 -55 142 -74l120 -16q145 -19 154 -67q0 -6 4 -10l12 -21q2 -5 61 -35l-12 -30q-63 26 -70 26h-4q-9 0 -31 -21.5t-22 -40.5t6 -59l-16 -2q-8 51 -16 65t-23 17l-47 10l-6 2q-26 -9 -49 -18
q-49 -20 -78 -20h-8q-15 0 -23 -9l-182 -184l6 4l53 -92q-37 -22 -37 -46t9 -45q28 -71 59 -112q54 -70 57.5 -98t18.5 -31q23 -12 37 -80.5t14 -98.5t-4 -50q47 -24 103 -107t56 -145l-34 -78q0 -11 32 -72l-8 -4q-30 56 -37 62t-12 6h-27q-40 0 -69 53q-1 4 -15 13
q-45 27 -63 45q-3 5 -5 10.5t-11 5.5q-24 0 -78 -62l-13 11q50 57 50 82l-4 51l-11 43q-3 13 -26.5 25.5t-42.5 52t-19 71.5l2 9q-16 8 -32 8t-64 -35l-14 18q59 44 59 64t-3 33.5t-8.5 24.5t-12.5 20.5t-14.5 16.5t-15 13.5t-14 10.5t-12 6.5t-10.5 5.5q-37 0 -37 -63
t27 -157.5t51 -99.5h6q6 -2 23.5 -2t74.5 43l11 -14q-41 -33 -52.5 -49.5t-11.5 -36.5v-14q0 -11 10.5 -27t29 -25t69.5 -14l-2 -20q-21 2 -55.5 2t-51.5 -21l-31 -80q1 -11 4 -16q9 -14 72 -31l-4 -18q-39 10 -55.5 10t-22.5 -3q-8 -5 -19 -23t-11 -99h-11q-2 82 -10 94.5
t-10 15t-3.5 4t-3.5 3t-4 2.5q-6 2 -19 2t-58 -12l-6 16q62 18 67.5 28t5.5 21l-12 53l-22 9l-46 -4q0 -2 -44.5 -34.5t-47.5 -45.5l-4 -62q0 -6 -11 -43t-11 -57t6 -78h-6q-12 81 -27 107q-8 12 -22.5 12t-63.5 -12l-4 14q50 14 62 22.5t12 22.5l16 162q0 14 -3 22
q-8 20 -69 43l9 21q48 -21 66 -21t30 17l22 20q7 10 7 19zM548 1196q0 -41 34 -41q9 0 21 6l16 13l31 32h2q39 42 74 54v10q0 24 6.5 39.5t9.5 23.5l12 27l11 67q0 9 -8 21l-52 49q-9 6 -18 6h-109q-14 0 -22 -14t-8 -31v-262z" />
    <glyph glyph-name="l" unicode="l" horiz-adv-x="1090" 
d="M612 1741l-2 -29q0 -33 5 -40.5t16 -10.5t17 -3.5t10 0.5q14 3 57 56l10 -6q-47 -57 -47 -72l10 -53q0 -22 -1 -38.5t44 -71.5l-6 -7q-32 41 -42.5 50.5t-21.5 9.5l-24 4q-7 0 -23 -4l-92 -70q-12 -12 -12 -24l6 -48l-2 -55q0 -34 10.5 -50.5t29 -16.5t50.5 4l2 -35
q-51 -8 -63.5 -23t-12.5 -44t12.5 -37t67.5 -9l-2 -22q-52 0 -66 -6.5t-16 -24.5q-13 -35 -20.5 -215.5t-16.5 -255.5q0 -5 8.5 -24t28.5 -19t59 14l7 -22q-63 -21 -70 -37q-2 -6 -2 -21l6 -34q3 -23 33 -23l180 10q20 7 32.5 22t33.5 64l18 -4q-10 -84 -10 -102q0 -4 13 -4
h5l68 -4q32 0 89.5 88t57.5 109.5t-41 64.5l15 12q38 -47 54 -47t112 94l10 -8q-41 -44 -41 -53l2 -199q-6 -46 -47 -121q-56 -100 -56 -122t52 -64l-13 -14q-43 38 -56.5 38t-43.5 -12q-20 -11 -45 -92l-10 2q16 49 16 73t-13.5 54t-15.5 43q-18 -5 -26.5 -21t-11.5 -59
l-33 2q0 56 -32.5 74t-143.5 18t-174.5 -13t-196.5 -64q-22 -17 -37 -91l-14 2q10 52 10 63.5t-2 18t-3.5 9t-6.5 8.5q-12 14 -26 14t-64 -18l-4 10q47 19 59.5 27t15.5 18v29q1 7 17 61q0 2 -13 10l15 -6l26 23q6 6 6 19.5t-16 62.5l10 4q18 -55 27 -68q12 6 12 17.5t-5 30
t-4 75.5t-8 93t-40 36q-7 0 -43 -4l-4 31q65 11 73 30q3 7 3 48.5t-24 167t-24 188.5l3 43q0 2 -13.5 27.5t-13.5 52.5l14 145q0 28 -7 38.5t-10.5 16t-13.5 8.5t-14 5q-10 4 -32 4h-42q-27 0 -88 -45l-8 12q41 32 53.5 49.5t16.5 36.5l6 74q0 34 -49 92l10 10
q53 -55 82 -55q78 0 218.5 13.5t180 22.5t44.5 13q14 10 16 74z" />
    <glyph glyph-name="m" unicode="m" horiz-adv-x="1923" 
d="M325 508l2 27q0 2 -4 10q-35 49 -35 110t6 95v2q0 334 -17.5 521.5t-33.5 219.5l-41 39q-8 4 -14 4h-78q-16 0 -25.5 -9.5t-23.5 -45.5l-15 4q17 32 17 51.5t-17 28.5q0 8 -13.5 8t-53.5 -17l-7 11q40 16 49 23.5t9 22.5t-47 62l8 4q45 -41 62.5 -41t52.5 11.5t53 11.5
h344q22 0 34 15.5t23 41.5l15 -8q-19 -45 -19 -56t10 -24l33 -41q6 -14 21.5 -14t52.5 12l6 -16q-39 -15 -49 -24t-10 -25v-2q0 -5 6 -11q82 -102 161 -262.5t95 -275.5q10 -19 20.5 -19t50.5 15l9 -19q-52 -19 -52 -39q0 -34 23 -81.5t43 -47.5t49 19l14 -21
q-47 -25 -47 -41q3 -8 14 -8t17.5 6.5t11.5 20t8.5 24t8 30.5t6.5 28q3 64 33 137t69 153q58 115 58 146q0 17 -50 39l7 18q33 -12 45 -12q22 0 56 100t34 140q0 20 -43 61l12 10q37 -37 52.5 -37t21.5 2l24 2q23 9 23 39l-2 29l16 2q4 -39 11 -49t22 -10q223 -10 393 -78
q9 -6 21.5 -6t68.5 8l2 -10q-14 -3 -24 -6t-17.5 -4.5t-14 -5t-9.5 -5t-8 -6.5t-6 -7q-7 -10 -16 -19t-9 -28t12 -50l-14 -7q-15 40 -24 52.5t-23 15.5l-23 2l-65 -6q-10 0 -15 -8l-24 -31q-6 -3 -6 -10v-162q0 -4 94 -45l-10 -29q-79 29 -88 29q-19 0 -19 -21l2 -159
q0 -62 -28 -99q-5 -4 -6 -22.5t-11 -135.5t-10 -182l6 -301q0 -22 23 -24l59 -4q25 0 72 43l8 -8q-47 -41 -47 -70v-14q0 -12 15 -19.5t42 -17.5l-6 -11q-41 17 -50.5 17t-17.5 -4v-2q-6 -12 -6 -15.5t17 -54.5l-11 -4q-12 39 -18.5 49t-15.5 10l-304 25h-43
q-42 0 -68.5 -17t-35.5 -71l-10 2q6 40 6 54t-10 24h-2q-13 10 -25.5 10t-52.5 -4v10q14 1 24 2.5t17.5 2.5t13 3.5t8.5 3.5t7 5t5 5.5l5 7.5q14 23 14 34.5t-23 50.5l13 12q19 -32 29.5 -42.5t19 -9.5t10.5 1l37 8q11 6 14 19l17 114q-7 17 -10 23q-10 14 -64 26l2 17
q21 -6 51.5 -6t30.5 22l-6 637q0 19 -10 30t-23 11q-26 0 -50 -72t-24 -116q0 -20 56 -35l-4 -21q-32 9 -47.5 9t-22.5 -21l-47 -172l-2 -12q0 -25 53 -47l-8 -19q-46 17 -53 17q-35 0 -57 -59t-29 -133q-20 -226 -29.5 -247t-9.5 -35t12 -63h-6q-14 41 -22 52t-9.5 13
t-7.5 7.5t-8 7.5t-20.5 2t-53.5 -19l-6 13q35 18 45 28.5t10 24.5v4q0 23 -22 23q-15 0 -58 -21l-6 14q53 28 57 50l-6 12q-42 53 -72 133.5t-58 172.5t-58 149q-7 14 -23 14t-45 -14l-8 16q47 19 47 37q0 33 -46.5 103.5t-55.5 107.5q-62 102 -69.5 102t-15 -51t-7.5 -90
t-8.5 -115.5t-16.5 -83.5q35 -40 35 -121q0 -7 -3 -41t2 -46t14 -93q25 -213 50 -213h60q15 0 27 9.5t34 43.5l15 -8q-27 -47 -27 -59.5t8.5 -28t20 -21t53.5 -16.5l-2 -8q-31 6 -50.5 6t-22.5 -0.5t-3 -5.5q-8 -8 -8 -20t18 -52l-12 -2q-21 52 -37 52q-63 0 -206.5 -32
t-143.5 -50q0 -27 45 -74l-6 -8q-49 47 -76 47q-57 0 -86 -68l-18 2l43 94q0 14 -10 23t-48 25l4 14q41 -14 57.5 -14t16.5 16.5t-31 46.5l17 14q33 -36 43 -36t22 12q46 33 59 75.5t13 114.5zM261 1485h-10q2 -2 5 -1t5 1z" />
    <glyph glyph-name="n" unicode="n" horiz-adv-x="1633" 
d="M284.5 -90.5q-12.5 12.5 -32.5 12.5t-41 -74l-14 7q14 45 14 60.5t-11.5 25.5t-26.5 10t-70 -21l-6 11q49 20 62 29.5t15 21.5q14 61 56 91t114 40q37 3 37 125q0 10 -2 14h-2q-15 23 -37 23l-67 -4l-2 24q86 10 86 14q8 89 8 193t-2 121l-66 -29l-6 25l70 33
q-9 76 -43 135t-111 116l4 9q65 -47 90 -54q29 2 29 37l-8 150q-11 45 -79 89t-105 44t-74 -49l-31 24q33 44 33 64.5t-19 48.5l-24 35q-18 30 -92 69l6 11q73 -37 108 -37l41 2q10 5 103.5 25t113 22.5t49 6.5t49.5 4.5t29 13.5t19 63l18 -4q-8 -36 -8 -50.5t1 -19.5
t4 -8.5t4.5 -4.5t7.5 -3.5t11 -5t19 -2.5t66 39l10 -15q-57 -45 -57 -65q0 -6 2 -11v-6q8 -27 76.5 -82t94.5 -55t74 45l17 -18q-49 -49 -49 -64.5t6 -27.5l-2 2q2 -6 8 -9.5t27.5 -21t29 -23.5t26.5 -22.5t27.5 -26t22.5 -26t21 -30.5q21 -37 28 -67q36 -48 117 -143.5
t88 -97.5l-68 135q14 -15 40.5 -15t42.5 15t16 39v26q0 33 19.5 93t19.5 98v57q0 118 -25 129l-43 19l-63 18q-14 4 -17 4q-20 0 -51 -59l-21 10q25 49 25 60.5t-16 27.5l-129 102q-24 19 -105 56l2 4q81 -34 113 -37q232 -35 506 -35q44 0 51 80l24 -2q-2 -12 -2 -27.5
t0.5 -23t4 -13t4.5 -8.5t7.5 -5t8.5 -2q10 -3 36 -3t49 -12t34 -35t20 -49q26 -74 80 -125l-10 -10q-59 55 -96 61l-39 4q5 -41 12 -53t16.5 -29t14.5 -26l-10 -7q-57 99 -110 106q-7 1 -28 1q-30 0 -52 -53q-34 -86 -34 -158l2 -49q-1 -127 -31 -362.5t-36 -305.5l-17 -186
q0 -7 121 -70l-18 -24l-109 49q-15 0 -24 -15t-9 -26t27 -64l-14 -6q-21 47 -32 58.5t-24 11.5h-8q-13 0 -24 -11.5t-37 -56.5l-12 6q30 54 30 80t-52 95t-70.5 69t-61.5 -31l-12 15q49 38 49 57v2q-6 6 -22 6t-56 -18l-6 18q61 28 61 47q0 9 -2 13v-2l-6 10l-18 16
q-12 10 -25 10t-57 -36l-15 16q45 40 45 53t-13 32t-49.5 75t-58.5 88q-62 91 -118 149q-17 13 -23 13l-125 -54q21 -231 21 -344v-24q0 -76 27 -96.5t70 -20t49 4.5q13 7 34 69l16 -4q-14 -46 -14 -62.5t14 -27.5q7 -11 23.5 -11t69.5 31l8 -14q-38 -25 -51 -36.5
t-13 -21.5l2 -10l4 -25q2 -16 16.5 -28.5t61.5 -32.5l-8 -16q-54 22 -72 22t-30 -12q-17 -9 -17 -29.5t13 -60.5l-21 -6q-19 63 -29.5 68t-23.5 5l-64 2q-73 2 -144 -10q-140 -25 -140 -86q0 -18 18 -63l-20 -9q-19 47 -31.5 59.5zM502 831l2 -14l8 -82q107 52 107 56
q0 14 -36 61t-48.5 47t-22.5 -21t-10 -47z" />
    <glyph glyph-name="o" unicode="o" horiz-adv-x="1419" 
d="M1401 926l88 12l4 -33l-86 -12q-10 -59 -11 -127q-4 -142 -145 -289l-122 -121q-7 -7 -7 -22q0 -30 68 -82l-10 -12q-59 45 -90 45l-13 -2q-4 0 -6 -2l-53 -23q-16 -6 -16 -23t18 -59l-18 -6q-28 61 -43 61q-37 0 -37 -36q0 -3 10 -58h-37q-20 78 -26 78l-383 2
q-18 0 -119 -20l-2 12q90 16 90 20q18 7 18 25q0 36 -69 70l-52 14q-14 4 -40.5 8.5t-41.5 7.5q-40 8 -57 39l-55 96q-18 32 -47.5 100t-51 106t-40.5 38h-80l-2 51q100 7 100 17l4 141q0 20 -67 57l6 11q53 -31 71 -31q13 0 11 29.5t-14 43t-66 38.5l8 18q53 -23 81.5 -23
t61 31t60 77.5t57.5 94.5q72 117 166 135l37 15q12 6 12 23.5t-10 56.5l16 4q20 -70 35 -70l49 6q1 0 21 10q16 11 16 30.5t-14 62.5l22 8q15 -45 25 -58.5t26 -13.5l181 4q17 1 59 65.5t68 121.5l20 -9q-82 -180 -82 -189t10 -24h2q34 -35 107.5 -75.5t128.5 -40.5
q24 0 63 57l19 -12q-33 -49 -33 -69.5t35 -52.5t56 -32t69 37l10 -14q-55 -43 -55 -62v-6q3 -9 8 -14q52 -45 69 -174q8 -59 15 -82zM696 1337l-65 4q-4 0 -12 -4q-92 -63 -165 -161.5t-73 -196.5q0 -92 43.5 -217t56.5 -178q36 -64 51 -96t38 -44t59 -59l74 16l2 -4
q-27 -14 -54 -32q9 -1 35 -5q53 -10 82 -10l35 2l33 -2q16 0 22 6l23 21q51 45 88 105t37 108t-60 88l52 80q34 -23 53.5 -23t25.5 5q7 7 7 26l2 164q-9 109 -59 210q-93 190 -195 212h-9q-67 -15 -127 -15zM1311 1190l-2 6q0 -4 2 -6z" />
    <glyph glyph-name="p" unicode="p" horiz-adv-x="1451" 
d="M418 -115h-18q-16 0 -22 -6l-49 -47q-13 -7 -13 -27t17 -63l-17 -6q-17 48 -27 61t-24 15l-6 -2q-13 0 -19 -2q-15 -6 -38 -66l-19 8q23 42 23 60.5t-15.5 34.5t-38 16t-59.5 -19l-10 21q39 14 48.5 19.5t14 8t8 9t4.5 7.5q5 5 5 20.5t-2 24.5q-5 24 -47 77l14 10
q32 -41 49 -54t37 -16h4q10 0 20 7q36 25 89 55q30 41 30 84l-12 35q-59 118 -59 339l4 166q0 13 -14.5 20.5t-59.5 14.5l6 23q32 -6 46 -6t21 3q7 4 13 21q46 127 61 260q0 3 -4 17l-16 20q-13 19 -28.5 20t-67.5 -12l-6 21q49 14 62 25t15 32l19 209q0 41 -32 41t-32 -49
q0 -7 4 -35l-22 -4q-6 44 -14 59t-23 17l-90 2q-22 0 -36.5 -10.5t-43.5 -53.5l-14 10q28 45 30 68t-2 31l-10 20q-7 17 -24 27.5t-68 21.5l4 19q48 -10 64.5 -10t30 8.5t17.5 12t5 5t3.5 5t3.5 6t2 6.5q3 7 3 24.5t-8 54.5l16 5q12 -51 21.5 -66t27.5 -20h3l22 -2
q35 0 100 13.5t84 16.5q21 0 22 26.5t-1 51.5l20 2q5 -82 35 -82l119 10l10 -2l88 9q159 0 248 -37h4q75 -17 180 -17q17 0 29 13t31 59l20 -8q-18 -42 -18 -63t23 -45.5t48.5 -41t54 -32.5t34.5 -19.5t22 -3.5t57 37l17 -14q-51 -42 -51 -58t6 -22l16 -37q3 -7 17.5 -17.5
t26 -63t11.5 -105.5t-7 -91t-7 -41q0 -32 78 -65l-8 -17q-46 16 -64 17.5t-30 -10.5l-39 -41q-12 -18 -20 -44.5t-20 -38.5t-46 -22l-54 -37q-19 -10 -20.5 -33t10.5 -63l-22 -8q-17 56 -32 65q-16 9 -55 9t-123.5 -30t-129.5 -30t-60 -11t-43 -52l-16 10q47 64 37 84v2
q-9 14 -21 14l-51 6q-36 0 -39 -30l-51 -516q0 -41 121 -41h6l8 -2q22 0 78 53l14 -14q-59 -59 -59 -86l2 -5v-8q4 -12 6 -14l37 -47q14 -21 96 -70l-4 -8q-80 45 -109 47l-102 16q-18 0 -27.5 -20t-9.5 -40t10 -85l-10 -4q-19 85 -43 109l-20 20q-6 10 -30 10t-51.5 -21.5
t-27.5 -37t8 -55.5l-18 -5q-7 37 -11.5 45.5t-6.5 14.5t-7 10t-7 6q-2 4 -20 4zM1021 1239l-2 14q-26 73 -89 103q-49 22 -128 41q-26 -4 -33 -4l-39 6q-29 0 -35 -27l-61 -409l37 30h4q-35 -67 -35 -80q3 -45 17.5 -84.5t22.5 -43t43.5 -3.5t76.5 19t41 51q0 1 -13 49
l25 10q24 -51 49 -61q79 25 128.5 107t49.5 188q0 2 -4 10l-43 45q-18 0 -63 -24l-11 16q59 31 62 47zM1041 1200l11 -12l2 2q-7 7 -13 10z" />
    <glyph glyph-name="q" unicode="q" horiz-adv-x="1948" 
d="M920 -256l-8 25q-20 0 -31 -12t-26 -62l-21 6v94q-42 32 -142.5 93.5t-182.5 112t-152.5 112.5t-79.5 108q-3 13 -12 19q-66 41 -111 124q-80 149 -80 334v234q0 40 17.5 116t17.5 120t21 113q24 83 56 158.5t32 90t-39 67.5l14 11q46 -62 72 -62q5 2 15 13.5t17 11.5
t11 -6l35 32q-8 30 -68 68l10 16q50 -34 73.5 -34t81 32.5t64.5 32.5v96l21 9q17 -50 28.5 -62t32.5 -12h144q24 0 24 32.5t-8 69.5l18 4q14 -51 23.5 -67.5t26.5 -22.5l102 -24q20 0 31.5 12.5t29.5 52.5l13 -6q-27 -55 -27 -72q0 -10 25 -10h8q34 0 81 -24t55 -28.5
t17 -4.5q19 0 56 53l18 -12q-33 -45 -33 -64.5t51 -55.5t120 -78.5t85 -57.5t26 -15t56 41l13 -14q-50 -40 -50 -51.5t7 -18.5l75 -110l23 -21q13 -16 30 -16t66 25l10 -21q-63 -35 -63 -59q0 -11 4.5 -35t44 -132t39.5 -169v-266l-20 -46l4 -26q0 -72 -85 -214
q-48 -78 -48 -88.5t57 -49.5l-12 -17q-47 33 -62.5 33t-28.5 -14.5t-22 -32.5q-23 -49 -62 -55q-7 0 -25 -18q-63 -60 -84.5 -71.5t-21.5 -41t9 -68.5t20 -39h8q27 0 40 12.5t26 63.5l31 -8q-11 -26 -11 -48.5t14 -36.5t39 -20.5t49 -9.5t53.5 -6t43.5 -6l106 -11
q19 0 31 13.5t27 56.5l26 -8q-12 -30 -12 -58q0 -67 164 -67h22l453 -8q10 0 16 6l29 24q14 12 14 36t-16 57l19 8q18 -49 29 -61.5t30 -12.5h8q29 0 88 53l8 -8q-42 -38 -52.5 -54.5t-10.5 -38t55 -71.5l-10 -12q-56 51 -80.5 51t-69 -17.5t-69.5 -17.5h-23
q-5 0 -10.5 -9.5t-5.5 -21.5t27 -59l-17 -10q-35 63 -57 63l-12 -2h-3q-15 -3 -20.5 -8.5t-5.5 -23t6 -47.5l-23 -5q-7 45 -13 57.5t-19 12.5l-115 -29l-78 -14q-18 0 -30.5 -13t-30.5 -61l-19 7q17 42 17 70t-25 28l-213 -31q-17 0 -25 -3q-19 -9 -30 -73l-29 6
q6 31 6 47.5t-11.5 29t-34 20.5t-43.5 13.5t-51 12t-46 11.5q0 -2 -11 -2t-73.5 13t-130 29t-92 17.5t-66.5 -59.5l-18 14q33 48 33 74t-25 32l-152 15q-26 0 -57 -68l-18 10q20 53 20 70zM863 -88q24 0 24 32.5t-4 55.5l23 4q9 -84 57 -84q157 0 231.5 47t127.5 191
q2 6 2 14q0 19 -62 43l8 21h82q74 164 74 423q0 441 -92 658q-36 85 -84 115q-12 4 -25.5 4t-58.5 -50l-17 15q41 49 41 67q0 30 -71.5 67t-164.5 61t-168.5 24t-146 -27t-117 -69.5t-81 -105t-53 -122t-28.5 -132.5q-17 -115 -17 -223t2 -169q6 -168 43 -295
q9 -31 48.5 -84t39.5 -89t41.5 -122t72.5 -86q16 0 62 25l10 -19q-59 -34 -59 -51q0 -51 71 -82q60 -26 116 -39q60 -14 73 -18z" />
    <glyph glyph-name="r" unicode="r" horiz-adv-x="1231" 
d="M660 1724h35q29 0 35.5 4t17 8t15 11.5t11.5 16.5q10 16 10 55h29q2 -74 38 -83q15 -3 30 -4q36 -4 38 -53q0 -10 8 -18q58 -61 58 -137q0 -257 -119 -459q3 -6 178 -90l-14 -25q-166 76 -172 76t-12 -2.5t-11 -8.5t-9 -12t-8 -17.5t-7 -19.5t-6.5 -22.5t-6.5 -23.5
q-4 -17 -12 -52l-12 -39q0 -5 18 -24q43 -33 114 -146t114.5 -158.5t68 -45.5t66.5 10l6 -21q-50 -13 -63 -22t-13 -27l-2 -26q-2 -4 -2 -11q0 -33 37 -66.5t71.5 -33.5t77.5 29l11 -19q-56 -35 -56 -58.5t31.5 -55t48 -31.5t72.5 12v-29q-64 -14 -70 -18.5t-10 -8.5
q-8 -7 -8 -24t39 -71l-10 -9q-30 43 -44 54.5t-24 11.5t-18 -4l-25 -17q-17 -13 -55 -81l-13 8l31 69q-9 23 -37 23l-69 -4q-24 0 -29 -31l-12 -45h-19l23 98q0 58 -43 58q-21 0 -74 -35l-12 16q61 44 61 70q0 48 -34.5 136t-63.5 99q-27 19 -73 95q-139 230 -232 299
q-9 12 -23 12q-40 0 -51 -125l-37 -428q0 -15 78 -58.5t100 -43.5t66 8l4 -17q-82 -16 -100 -45l-25 -39q-6 -12 -6 -21.5t35 -66.5l-13 -8q-44 62 -63 62l-45 -5q-21 0 -53.5 20.5t-40.5 20.5q-4 -4 -12.5 -10t-14.5 -10.5t-12 -8.5q-9 -6 -28.5 -15t-27.5 -19t-8 -34.5
t2 -41.5h-20q-8 78 -33 78t-80 -43l-8 12q41 31 53 47t12 33l5 55v10q0 12 -11.5 21t-16.5 13q-20 16 -40 30l12 21q65 -25 76 -25t32 23.5t21 42.5l-18 981q-1 0 -4 39q-7 118 -15 124l-143 101q-20 12 -31 12t-88 -24l-24 24q114 47 121 59l30 72q4 12 4 27.5t-36 70.5
l16 13q29 -44 44.5 -56t35.5 -12h164q13 0 22.5 11t9.5 31.5t-18 62.5l22 8q24 -62 43 -69q8 -3 23 -3l34 1q22 0 29 3.5t16.5 7.5t13.5 9.5t10.5 14t8.5 18.5q7 28 7 57l24 2q2 -67 20 -81q26 -20 59 -20zM479 1071q0 -39 35 -39q8 0 20 6l35 19q7 11 37 29q72 43 72 100
q0 18 12 51t12 49v98q0 16 -12 43.5t-12 43t-14 31.5q-30 36 -44 36h-98q-20 0 -31.5 -28t-11.5 -40v-399z" />
    <glyph glyph-name="s" unicode="s" horiz-adv-x="1619" 
d="M210 420q8 0 14 18q0 10 -37 70l6 4q42 -63 56 -63h86q20 0 75 53l5 -4q-56 -53 -56 -74l-4 -53q0 -129 25 -150q17 -18 38 -61.5t27 -46.5q45 -28 60 -84q3 -10 8 -15l39 -28l245 -35l5 -2l102 43q11 11 30 24q36 24 36 56t-33 82l8 6l45 -58q10 8 20.5 29t10.5 29
t-7 16t-44 35l4 8q52 -33 61.5 -33t21 43t11.5 57t-4 36l-17 51q0 11 -14 22t-23 11q-25 0 -63 -109l-10 4q26 70 26 115l-6 41q0 6 -4 14l-37 41q-5 5 -14 8l-37 6l-14 2q-21 0 -41 -67l-23 8q13 44 13 56q0 19 -23 28l-113 72q-6 2 -20 2l-43 -2q-50 0 -109 32
q-10 5 -42 5.5t-87.5 20t-97 48t-83.5 74.5q-58 63 -134 184q-10 17 -24.5 17t-75.5 -15l-15 39q96 27 96 35q2 17 3 51q4 78 10 92l28 84q9 25 36.5 68.5t27.5 51.5t-31 61l12 8q38 -58 54 -58q6 0 10 2l37 13q41 31 93 88t52 77t-18 72l18 6q24 -61 38 -70q16 -9 31 -9
t24.5 9.5t9.5 20.5t-33 70l8 6q31 -55 39 -62t14 -8l70 -4q30 -2 58 12.5t28 38t-6 52.5l33 6q8 -45 20.5 -59.5t34.5 -14.5l178 4q26 0 40 13.5t30 62.5l28 -8q-14 -38 -14 -63.5t29.5 -43t74 -32.5t91.5 -46.5t61 -31.5q40 0 39 28q0 21 -51 62l12 14q47 -39 61 -39
t51.5 22.5t61.5 22.5q70 0 70 -98v-20q0 -15 2 -22q7 -17 69 -36l-6 -20q-42 14 -64.5 14t-41 -35.5t-26.5 -90.5q-15 -103 -14.5 -151t4.5 -55q10 -20 71 -41l-9 -18q-42 14 -66 14t-57.5 -45.5t-33.5 -66t10 -68.5l-23 -4q-11 51 -23 69.5t-32 26.5q-54 23 -74 71t-20 120
q0 6 -25 72t-28 71l-133 117q-31 18 -31 49l-10 -2q-12 0 -39 16q43 -34 43 -43q0 -4 -8 -4l-97 21q-24 0 -57 -60l-16 10q26 45 26 65.5t-18 20.5q-42 0 -95 -28t-53 -53q0 -19 21 -62l-21 -8q-28 63 -53 63l-12 -2l-54 -14l-10 -6q-13 -14 -41 -39q-65 -56 -65 -66l6 -166
q0 -21 59 -47.5t69 -34.5q16 -12 40.5 -12t44.5 66l26 -8q-12 -38 -12 -55t27 -35.5t49 -18.5l41 -4q22 0 34.5 19t24.5 51l19 -9q-21 -48 -21 -65q0 -31 63 -31h23q24 0 64 66l14 -11q-33 -55 -33 -70t12 -27.5t40.5 -13t69 -15t76 -43t60.5 -54t60.5 -65.5t56.5 -60
q43 -43 72 -364q0 -5 67 -39l5 -49l-82 35q-9 0 -17 -5h2q-7 -4 -10 -18v-18q0 -21 11.5 -33.5t60.5 -32.5l-9 -20q-49 20 -70 20t-75.5 -75t-54.5 -96.5t45 -66.5l-14 -16q-46 43 -60 43t-23.5 -4.5t-20 -11t-15.5 -8.5q-101 -84 -279 -84l-147 6q-8 0 -29 -72l-4 2
q14 63 14 68.5t-2 7.5h-8l-254 18q-25 0 -35 -17t-10 -67l-14 -2q-2 66 -9.5 71t-17.5 5q-18 0 -49 -68l-12 7q24 48 24 64.5t-42 66t-42 77.5v109q0 195 19 307q0 5 -2 7q-5 7 -66 26l2 10q52 -16 66 -16z" />
    <glyph glyph-name="t" unicode="t" horiz-adv-x="1598" 
d="M1322 1786l-2 -33q0 -47 23 -59l92 -58q13 -10 32 -10t70 25l8 -19q-46 -19 -61 -32.5t-23 -55t-8 -223.5q0 -13 100 -59l-16 -19q-71 27 -78 27q-55 0 -55 -37q0 -16 6 -55h-10q-7 62 -12 68t-11 7h-8q-13 0 -28 -16t-37 -43l-9 6q43 53 43 70l-254 129q-7 7 -48.5 17.5
t-52.5 10.5t-19 -8l-68 -67q-14 -199 -14 -449q0 -38 14 -117t14 -122l-12 -89l10 -184q0 -100 -20 -184q0 -17 6 -23l55 -63q13 -12 32.5 -12t66.5 16l6 -21q-49 -15 -63 -26.5t-17 -30.5q-11 -81 -57 -123q-9 -11 -9 -20l4 -60l-26 2l-4 56q0 34 -71 30h-13
q-49 0 -80.5 -25.5t-50.5 -105.5l-15 4q17 60 17 77.5t-7 34.5t-18 91q-25 180 -84 180h-10q2 2 4 2l74 19l22 -100l2 -3q4 0 15 11q63 71 62 153.5t-34 192.5q-9 30 -75 80l8 10q53 -41 80 -47q19 6 22 31l2 59q2 34 -14.5 66t-38 32t-117.5 -18l-10 39q131 34 131 55
q0 217 -11.5 280t-22.5 100q-22 77 -72 77q-21 0 -33 -4l-12 51q67 17 67 61q0 64 -18 64q-12 0 -19.5 -11t-7.5 -26t12 -57l-22 -7q-15 44 -26 57t-40 13t-86.5 -16.5t-62 -42.5t-36.5 -64t-32.5 -55.5t-11.5 -32t-23 -19.5q-34 -14 -39 -38q-4 -27 -20 -44
q-33 -35 -55 -128l-11 2q17 64 17 94l-19 168q0 64 21 123l2 8l-25 78l2 360q0 25 -55 82l8 8q54 -57 80 -57h4q14 0 26 12t36 58l12 -9q-29 -50 -29 -65.5t6 -22.5l35 -51q10 -10 29 -11.5t63.5 -27.5t83.5 -26l48 7q146 21 360 21l217 -2q23 0 64.5 -20.5t65 -20.5t65 28
t56 34.5t21.5 22.5t11 67zM1084 1399l3 -2q-3 0 -3 2z" />
    <glyph glyph-name="u" unicode="u" horiz-adv-x="1828" 
d="M624 1432l-27 2q-27 0 -33 -21q4 -15 8 -70.5t9.5 -101t25.5 -84.5t47.5 -39t55.5 8l8 -26q-64 -17 -72 -39q-4 -9 -4 -25v-108q0 -7 11 -23t13 -71t15 -74q42 -48 85 -240q15 -65 13 -63l133 -140q9 -8 19 -8h203q13 0 24 17q14 29 42 72.5t38 73t10 61t-13 41.5t-56 24
l6 16q44 -16 65 -16q53 0 63 154q4 64 5 67l12 209q0 178 8 318l-65 127q-11 14 -25 14h-18q-13 0 -20 -3q-17 -7 -44 -69l-18 8q23 50 23 63t-6.5 24t-20 28t-22.5 28.5t-27 32.5t-27 31q-18 22 -102 49l4 15q60 -21 83.5 -21t79.5 10.5t85 10.5h6q15 0 25.5 14t25.5 57
l20 -6v-92q44 -33 60 -33t16 8q0 20 -10.5 38.5t-46.5 56.5l12 12q34 -37 52.5 -48t39.5 -13l246 -13q14 0 21.5 14t13.5 58l20 -2q-4 -21 -4 -40.5t4 -26.5q6 -11 25 -13h4q4 -2 23.5 -2t85.5 29l4 -13q-75 -31 -95 -59l-98 -145q-12 -13 -12 -28t39 -65l-19 -12
q-39 53 -63 53q-10 0 -17 -2l-22 -8q-23 -9 -23 -81t1 -96q2 -121 38 -138q16 -8 68 -11l-2 -20q-52 0 -67.5 -5.5t-22.5 -21.5q-31 -41 -31 -114l2 -72q0 -86 -49 -135q-4 -8 -4 -12q0 -160 -72 -236q-8 -8 -8 -18q-3 -115 -60 -220t-153 -153q-12 -6 -12 -21t14 -61
l-14 -6q-15 42 -23 54.5t-18 12.5q-42 0 -113.5 -22t-97 -22.5t-35.5 -10.5l-45 -70q-17 -25 -33 -108h-8q10 56 10 97t-43.5 97t-105.5 98q-136 94 -234 115l2 9q62 -13 86.5 -13t24.5 29q0 10 -6 23q-38 57 -100.5 258t-101 283.5t-67.5 82.5l-211 -28l-8 47
q240 41 240 53l2 86v45q0 325 -150 332q-20 0 -37 -11.5t-51 -52.5l-14 13q47 58 47 81q0 5 -4 17l-8 37q-5 17 -20 29t-62 32l6 17q53 -23 70.5 -23t32.5 10l38 17q7 2 18 3.5t11 2.5q0 33 -59 90l12 12q37 -36 54.5 -45.5t37.5 -9.5l176 12q21 0 28.5 12t10.5 64h23
q0 -54 5.5 -65.5t26.5 -14.5l58 -10q6 0 14 4l98 55q31 15 62 94l12 -6q-18 -67 -18 -110l39 -117q10 0 16 -21q24 0 82 58l8 -8q-57 -60 -57 -82v-8q0 -16 18.5 -31t48.5 -33l-6 -10q-58 31 -68 31t-20 -5q-60 -36 -149 -36z" />
    <glyph glyph-name="v" unicode="v" horiz-adv-x="1635" 
d="M1189 1808q0 -67 129 -67l59 4q11 0 17 6l14 16q15 17 15 31t-21 66l21 8q20 -48 32 -60t33 -12h213q35 0 109 43l6 -10q-72 -43 -91 -78.5t-54.5 -73.5t-75 -71t-84 -69.5t-85.5 -78t-76 -88.5q-75 -99 -87 -237v-9q0 -15 12.5 -26.5t54.5 -30.5l-8 -18q-48 22 -73 22
t-61 -53t-74 -131t-52 -98q-4 -10 -4 -15q-2 -43 -45 -122.5t-43 -107t12.5 -37.5t48.5 -24l-8 -16q-50 16 -60 16t-20 -10v-6q0 -22 49 -63l-12 -13q-48 45 -63.5 45t-26 -9t-10.5 -21v-17q0 -50 33 -60q16 -5 43 -9l-5 -39q-12 2 -34 2t-36.5 -10t-20.5 -32q-7 -30 -7 -60
t13 -40.5t61 -27.5l-6 -17q-46 17 -68 17t-34.5 -30t-14.5 -64l-16 -3q-13 27 -13 46.5t4 31.5l-12 2q-19 0 -69 -43l-19 19q47 42 47 67.5t-22 57t-46.5 67t-26 59.5t-13.5 33q-58 45 -112 284q-23 106 -31.5 129t-14 39t-8.5 24.5t-9 24t-11 25t-11 20.5q-12 21 -25 28
q25 6 25 38.5t-23 85.5t-52.5 91.5t-51.5 38.5t-61 -17l-11 27q47 19 60.5 34.5t13.5 41.5v57q0 4 -4 12l-78 132q-9 12 -23 12q-26 0 -46 -66l-27 9q12 39 12 55q0 30 -62.5 53t-82 23t-86.5 -13l-4 13q83 18 106 43l80 84q14 14 14 30t-20 66l18 8q20 -43 32 -56.5
t28 -13.5l387 11l76 10q10 2 19 14t9 29t-37 72l13 8q36 -60 59 -66q23 6 53 72l19 -8q-23 -47 -23 -70q0 -45 68 -49q6 0 14 4l27 20l43 -129q-1 -1 -4.5 -2t-5.5 -2l-7 13l-4 -39q0 -29 52 -88l-13 -13q-35 40 -52.5 51t-37.5 11h-94q-12 0 -23 -12l-53 -80
q-4 -8 -4 -13.5t6 -17.5t43 -80.5t49 -95.5q43 -94 43 -156.5t3 -110.5t10 -111q18 -145 67 -157v277q4 -14 33 -24.5t64 -10.5t40 16q148 413 148 518q0 14 -14 21v2q-22 8 -27 8q-22 0 -59 -49l-25 18q31 42 31 58t-19 35l-16 14l35 180h53q28 0 42 13t30 63l28 -10
q-10 -34 -10 -58z" />
    <glyph glyph-name="w" unicode="w" horiz-adv-x="1812" 
d="M673 -33q-24 -10 -32 -86l-15 2q4 46 4 54q0 53 -39 53q-32 0 -67 -21l-8 17q42 17 54.5 27t12.5 22l-18 174q-24 74 -60 133q-36 0 -92 2v18q38 0 86 -2q19 9 19 27q0 79 -31 185t-68 106q-16 0 -47 -6l-8 26q43 9 56.5 18t13.5 25l-4 66q0 8 -15 28t-57.5 133
t-75.5 210.5t-35 99.5q-30 27 -39.5 67t-19.5 60l-25 29q0 8 -22 12h-8q-25 0 -39.5 -19t-28.5 -51l-18 10q20 47 20 63t-5 23q-6 9 -15 9t-12.5 -1.5t-7.5 -6t-8 -9.5t-10 -14t-11 -17q-19 -31 -31 -47l-2 3q43 68 57 98l29 76q6 15 6 18q0 30 -39 80l14 10q32 -43 48 -55
t36 -12h45q11 0 24 14t87 35.5t100 45t41 46t15 54.5t-4 50l57 9q9 -55 55 -99l43 -139q-54 -52 -75 -79t-19 -28l18 -188q3 -24 27.5 -46t26.5 -32l53 -145q3 -15 9.5 -20t20.5 -5t52 4l4 -18q-42 -6 -55 -12.5t-13 -18.5l35 -248q2 -11 32 -32.5t30 -22.5q8 3 17 72t11 84
t8 47.5t12.5 51.5t16.5 50q19 53 41.5 95t22.5 47l-21 204l-65 99h2q-10 10 -23.5 41.5t-21.5 35.5l-19 9q-4 4 -8 4l-21 92q24 18 31 36t12 79l17 -2q-4 -38 -4 -64t14 -43h-2q0 -2 6 -7t10 -5q25 0 25 41q0 11 -20 59l24 12q20 -40 33 -53.5t29 -13.5q79 0 79 57l-4 39
l25 4q10 -51 22 -65.5t35 -16.5l25 -4q6 0 8 2l37 10q15 4 21 13t6 33t-3 40h23q6 -62 16 -69.5t12 -8.5q6 -4 31 -10l11 -116q-17 -19 -17 -34t27 -65l-10 -6q-33 69 -50 72q-12 -4 -16 -8l-49 -58q-6 -6 -6 -18l78 -819q3 73 55 119q2 1 6.5 19.5t41.5 225.5t69 314l2 12
l18 20l-10 13l12 -11l2 2v-2q4 -4 17 -4t31 17t18 35l-23 112q-4 4 -22 9t-34 21t-29.5 38.5t-20.5 29.5l-23 72q19 8 19 20.5t-1.5 21.5t-2 11t-1.5 9.5t-2.5 10.5t-4 10.5t-5 13t-7.5 15.5t-10.5 20t-12.5 24l10 4q41 -76 74 -98l28 -21q8 -4 15 -4h88q68 0 133 119l10 -6
q-41 -87 -41 -98t3 -10t5 1l156 49q23 16 47 90l12 -4q-7 -27 -17.5 -102.5t-10.5 -89.5h239v-19h-125q-44 0 -60.5 -17.5t-87.5 -77.5q-144 -122 -153 -163l-127 -508q-32 -124 -104 -271t-151.5 -299t-117.5 -267q-4 -12 -8 -63.5t-24.5 -78.5t-42.5 -112l-11 2
q17 58 17 111v24q-10 98 -43 314.5t-43 328.5q-3 23 -24 39t-42 16q-33 0 -65.5 -163.5t-48 -312.5t-15.5 -172.5t64 -71.5l-10 -11q-53 43 -66 43t-23 -4h-2z" />
    <glyph glyph-name="x" unicode="x" horiz-adv-x="1349" 
d="M935 457l-37 2q-26 0 -39 -15q51 -68 56.5 -88.5t6.5 -29.5q121 -154 135 -154h7q16 0 69 35l6 -6q-54 -34 -71 -56.5t-17 -35.5t-1 -22t0 -15t5 -17q7 -19 45 -53l-10 -12q-48 39 -65 39l-29 -4q0 -1 -7 -5t-7 -8v-2q-4 -12 -4 -22t30 -54l-10 -8q-23 36 -34.5 46
t-26.5 10h-2q-14 0 -23 -10.5t-27 -49.5l-12 4q17 44 17 59t-50.5 58t-70.5 43t-49 -35l-21 17q31 30 31 48.5t-5 24t-8 1.5q-9 -11 -22 -21l-37 -10l-8 73l27 6q11 0 23.5 18.5t12.5 36t-32 64.5l14 10q40 -49 63 -49q19 76 19 107t-28.5 99t-88.5 108q-5 10 -17.5 10
t-33 -29t-36 -57.5t-15.5 -30.5v-63q0 -11 9 -21t44 -33l-4 -10q-47 29 -61 29q-31 0 -31 -37t43 -111l-15 -133h-24q-19 0 -21 13q-2 -13 -8 -13l-117 -14q-22 -3 -22 -25q0 -13 49 -55l-6 -8q-43 39 -59 39l-29 -4q-34 -9 -50 -27.5t-16 -66.5v-17h-14q-2 83 -30 98
q-30 16 -33 52q0 9 -11 16h2q-17 10 -32.5 10t-90.5 -12l-6 22q113 20 123 25q32 32 64 63q94 91 94 111v17q0 20 -10 30.5t-52 22.5l7 22q27 -8 47 -8t34.5 26t21 70.5t6.5 80.5q2 93 73 143q11 12 19.5 53t21.5 59t24 45l-2 78q0 64 6 111q-29 39 -73 120.5t-57 104
t-48 53.5q-88 79 -98 133q-3 23 -25 23l-34 -2q-81 0 -127 55q-12 14 -29.5 14t-50.5 -6l-4 15q41 10 53.5 18t15.5 23l4 28q0 21 -36 66l12 10q42 -53 71 -53h472q12 0 18 2l-4 2v12l20 -4l11 -20q-19 -31 -19 -90q0 -27 43 -68l-16 -14q-40 41 -63 41t-52 -12t-29 -29v-45
q0 -9 20 -28t49.5 -86.5t45.5 -139.5q9 -33 37 -33q13 0 27 12t14.5 44.5t27.5 81.5t60 63v12q0 21 16 59.5t17 63.5q0 8 -30 35.5t-31 43.5t-7 19l-63 61l8 37l6 2q38 25 88.5 25t106.5 -43q8 -4 12 -4h207q27 0 57 14t43 20q31 14 43 78l19 -4q-7 -47 -7 -49q0 -63 76 -86
q4 -2 88 -2l6 -24q-96 -3 -104 -7q-217 -131 -217 -196q0 -2 129 -70l-17 -24q-127 61 -131 61t-12 -8q-77 -88 -192 -285t-115 -256v-49q0 -13 20.5 -23t28 -41t5 -63.5t15.5 -68.5t64 -58q3 -21 22.5 -29t49.5 -12z" />
    <glyph glyph-name="y" unicode="y" horiz-adv-x="1447" 
d="M265 1559l227 14q42 0 84 -6l2 -31q-52 -7 -79 -48t-27 -129.5t14 -117.5l111 -94q17 -14 35 -14t63 30l15 -22q-54 -36 -54 -57.5t12.5 -49.5t20.5 -28q15 0 45 29t73.5 98t43.5 100t-62 65q-2 -4 -2 -8l-14 4q10 52 10 65.5t-14.5 21.5t-24.5 8t-75 -19l-5 10
q70 25 78 40q9 18 13 22q-22 4 -27 4v6l27 -6l2 12q0 19 -35 74l14 8q27 -42 41 -53.5t31 -11.5h188q3 0 13 4q47 29 93.5 37t88 8t49.5 8l47 47q16 13 41 92l8 -2q-22 -73 -22 -84.5t2 -15.5v-2q0 -5 139 -58l-12 -20l-115 35q-16 0 -25 -13l-57 -75q-10 -15 -10 -26
t47 -50l-16 -19q-42 37 -55 37t-25 -12l-23 -25q-14 -14 -14 -29t26 -63l-18 -12q-36 61 -57 61t-25 -22q-9 -56 -90 -125q-4 -3 -7.5 -10t-74 -96t-70.5 -113q0 -16 60 -53l-10 -17q-50 31 -66 31q-31 0 -48 -64.5t-17 -109.5v-416q0 -8 8 -20q88 -78 100 -160q1 -7 3 -9
q6 -8 48 -8h25l2 -12q-65 -2 -70.5 -7.5t-5.5 -12.5l-4 -29q0 -10 107 -127l-21 -24q-116 114 -125 114q-33 -2 -134.5 -13t-148.5 -11t-111 29.5t-92 29.5t-67 -10l-4 20q51 13 70.5 26.5t28 28.5t24.5 37q35 48 35 74.5t-23 81.5l17 6q19 -50 32 -67q20 -25 38.5 -25
t30 12t11.5 23v151q0 1 -7 17q-21 46 -21 93.5t-36 168t-37 156.5t-9 45l-27 24q-13 13 -30.5 13t-67.5 -23l-10 20q40 22 52.5 35.5t12.5 37t-14.5 60.5t-34.5 37q-5 0 -113 -43l-18 33q127 55 127 60q0 58 -78 125q-83 71 -100 120q-5 15 -13 47t-14 52t-21 37.5
t-31.5 17.5t-58.5 -10l-6 22q49 15 61.5 26t12.5 32v6q0 19 -55 71l6 7q53 -56 72 -56h4q16 0 53 68l10 -6q-33 -55 -33 -72.5t19.5 -30.5t47.5 -19q55 -13 95 -13zM796 1321q51 -31 74.5 -31t23.5 24.5t-21 37.5l-18 10q-8 4 -14 4h-11q-21 -3 -34 -45zM892 1296l-4 -2
q2 0 4 2zM877 1288l-2 -2q2 0 2 2z" />
    <glyph glyph-name="z" unicode="z" horiz-adv-x="1348" 
d="M955 426l94 -2q15 0 32.5 34t33.5 40q21 13 29 62q15 91 71 93l37 2q16 0 31 10.5t49 49.5l8 -8q-49 -55 -49 -78l6 -109q0 -6 160 -16v-29q-105 6 -127 6q-35 0 -41 -24q-12 -37 -41 -95q-68 -139 -68 -156t4 -63l-12 -2q-8 78 -33 103v-2q-6 6 -36 6t-90.5 2.5
t-101 5.5t-114.5 8.5t-93 6.5t-38 -9t-34 -10l-43 8q-121 -16 -248 -16l-115 14q-29 0 -84 -37l-10 15q43 28 56 44.5t21 62.5t40 71q4 4 8 12l59 156q2 4 2 15.5t-51 57.5l8 11q47 -45 59.5 -45t16.5 2l8 12q135 365 211 397q-1 0 2.5 6.5t10 19.5t15 29t17.5 36t16.5 39
t14 39t8.5 36t14.5 57.5t24.5 100.5h2q-14 -86 -14 -111v-4q0 -12 7.5 -22.5t19 -10.5t23 21.5t18.5 47.5q18 70 53 70h6q4 14 4 23.5t-10.5 19t-26.5 9.5h-350q-30 0 -61.5 -32t-71 -90.5t-50 -70.5t-10.5 -16.5t45 -57.5l-12 -10q-41 49 -55 49t-27 -8l-23 -20
q-6 -5 -29.5 -57.5t-33.5 -73.5l-20 10q45 116 45 123v129l49 127l-37 131q-2 7 -121 35l8 30q127 -20 139.5 -18.5t18.5 16.5l10 27q6 12 6 31.5t-18 83.5l14 4q27 -86 73 -122q16 -13 31 -14t66.5 -13.5t81 -12.5t68.5 61l18 -12q-35 -50 -35 -71t21 -21q53 0 53 102h27
q0 -70 32.5 -94t88.5 -24t168.5 27.5t144.5 28.5t46 9.5t23 11.5q21 6 21 84h16q0 -54 3.5 -62.5t4.5 -12t6.5 -6.5t7 -4t10 -3.5t14 -5t22 -2.5t74.5 35l8 -12q-46 -27 -59 -41t-15.5 -31t-23.5 -54.5t-22 -48t-7 -31.5t-18.5 -49.5t-23 -51t-28.5 -59.5l-28 -55
q-30 -60 -45 -85.5t-15 -35.5t51 -52l-12 -15q-45 37 -63 37q-25 0 -52.5 -56.5t-27.5 -79.5t57 -62l-12 -17q-48 35 -68 35q-35 0 -86 -75t-51 -103t55 -68l-10 -14q-50 37 -69 37t-28 -16t-12 -36q-6 -54 -43 -63q-20 -6 -28 -42.5t-8 -56.5q0 -34 30 -38l127 -25
q2 -2 5.5 -2t11.5 4q52 29 188 29z" />
    <glyph glyph-name="braceleft" unicode="{" horiz-adv-x="692" 
d="M169 1257q53 18 53 35v29q0 112 69.5 185t178.5 98q14 4 31 63l63 -22q-12 -37 -12 -49t14 -23v-4q9 -6 35 -6h45v-58q-84 -7 -84 -24l-4 -4q0 -2 18 -47l-45 -44q-30 62 -33 62l-65 -2q-20 -2 -43 -11.5t-31 -11.5l-31 -90q19 -89 152 -241q18 5 43 18l41 -45
q-61 -26 -61 -29l2 -26q0 -153 -34 -213q-17 -30 -46 -62l-140 -117q31 0 101 -58.5t98 -113.5h-2q29 -46 29 -124t-19.5 -131.5t-46.5 -94t-55 -77.5q-66 -89 -66 -162q0 -3 7.5 -21.5t9.5 -25.5l10 -17q28 -15 92.5 -32.5t108.5 -41.5l35 17l20 -41l-31 -17q0 -8 19 -14
l-2 -16l4 6l-8 -35q-1 0 -7 1t-8 1l6 10l-22 -6l8 -24l-45 -11q-8 23 -8 28t2 5h-51q-102 0 -175 91t-73 192q0 89 75.5 200t75.5 191q0 182 -249 258l2 -2q-13 3 -67 34t-54 36q0 16 53.5 42.5t71.5 28.5l-2 -2q227 69 227 221q0 68 -24 145t-66 132q-7 14 -17.5 14
t-50.5 -18zM425 1493v-20l12 4q0 16 -12 16zM589 -356q-9 -11 -9 -13zM546 -322l4 -6z" />
    <glyph glyph-name="bar" unicode="|" horiz-adv-x="566" 
d="M367 610l-20 -460v-267q0 -73 6 -108q3 -13 61 -27l-20 -67q-46 12 -49 12q-21 0 -21 -21t17 -67l-66 -4q-12 55 -27 69l-30 13l-4 1009l10 445q0 66 -8 200q-3 32 -17 50.5t-49 31.5l27 86q35 -14 48 -14t17 2q8 61 8 76h80q0 -46 17 -84h6q4 0 53 14l16 -78
q-50 -15 -66 -65q-17 -56 -16 -111.5t1 -60.5v-56q0 -79 13 -255.5t13 -262.5zM240 1483v-2l10 -13q-9 15 -10 15z" />
    <glyph glyph-name="braceright" unicode="}" horiz-adv-x="745" 
d="M481 1380l6 -49q0 -104 -71.5 -210.5t-71.5 -177t17.5 -114t39.5 -69t63 -48.5q69 -38 105 -47q39 -10 63.5 -19t53 -9t67.5 10l2 -72q-68 3 -137 -26l-53 -23q-139 -58 -177 -105q-46 -56 -46 -132q0 -4 18 -121q54 -69 83.5 -132t29.5 -152.5t-72 -173t-191 -83.5h-57
l23 23l-45 -10l-15 30q-21 17 -78 37l27 53q56 -16 65 -16t25.5 8.5t53 16.5t57.5 12q53 10 92 84v-2l10 18q-16 56 -61 130t-79 142.5t-34 133.5l2 32q3 58 17.5 96.5t50.5 76.5l57 45v-2q17 13 41 29q47 32 47 42q-107 68 -143 104t-48 66q-30 73 -30 191.5t182 310.5
l2 43q0 24 -20 66.5t-23 58.5q-69 27 -125 27h-8q-2 -3 -14 -48l-47 2l4 46q4 8 4 18q-10 10 -78 12v60q39 -7 56.5 -7t21.5 5l26 20q15 10 15 26.5t-6 51.5l69 4q6 -38 13 -50t25 -18t36.5 -15t29.5 -15.5t24 -20t18 -19.5q13 -16 39 -52h-2q13 -11 21 -11t48 17l37 -60
q-55 -32 -55 -39zM456 584l-14 12l6 -12h8z" />
    <glyph glyph-name="asciitilde" unicode="~" horiz-adv-x="1028" 
d="M180 510l4 63q0 15 -22 15h-47v55q52 0 61.5 9.5l11.5 11.5q4 6 4 10v10q0 11 -36 47l49 49q35 -35 41.5 -35t7.5 1q3 2 12 4q75 43 162 43q21 0 156 -45l41 -11q140 25 221 137l45 -43q-44 -55 -56 -96l-8 -24q3 0 27 -19l-29 -37l-24 15q-77 -80 -228 -80
q-47 0 -114 24l2 -2q-77 21 -89.5 21t-26.5 -3t-31.5 -7t-26.5 -5l-43 -40v2q-3 -3 -11 -70h-53z" />
    <glyph glyph-name="exclamdown" unicode="&#xa1;" horiz-adv-x="668" 
d="M222 190q-27 68 -27 144t21 155l12 48q12 73 15 177q7 251 48 369q-4 0 -24 19l30 35q9 -9 13 -11l4 17l47 -13q-8 -35 -8 -38l10 -19q12 -35 25 -35t53 15l18 -68q-47 -16 -47 -24v-11q5 -32 28 -203.5t46 -261.5h-2l4 -2q3 -11 9.5 -41t10.5 -43h11q3 -113 71 -151
l-63 -113q-35 15 -53 15t-46 -8t-28 -20.5t8 -51.5l-76 -2l-8 71v-16q-14 10 -24 12l2 -2q-9 2 -17.5 2t-44.5 -39l-55 39q37 48 37 55zM412 1309q-31 0 -31 -43v-35h-65q-2 54 -9 59.5t-18.5 5.5t-46.5 -34l-63 67q32 28 32 45q0 6 -63 15l2 92q50 0 68 14q-2 8 -27 49
l61 47q25 -33 37 -43h6q14 0 33 6t21 5l102 -25q10 10 35 22l27 -36l-29 -23v-45l6 -2q-29 -58 -29 -82q0 -4 43 -43l-47 -47q-39 31 -45 31zM254 1448v8h-24z" />
    <glyph glyph-name="cent" unicode="&#xa2;" horiz-adv-x="932" 
d="M530 774l21 -303q0 -21 -12.5 -62.5t-12.5 -56.5t4 -59v-2q4 -33 13 -36t20.5 -3.5t27.5 -1t85 30t139 79.5l4 -63q-68 -52 -96 -85.5t-63 -49t-71.5 -23.5t-58.5 -22v-6q0 -12 53 -27l-4 -61q-49 12 -59 12h-4l2 -2l-8 -13q6 -6 18 -32l-39 -21l-4 4v-4l-47 4l4 39
q-24 7 -28.5 15.5t-4.5 46.5v41q-69 5 -146 70t-129 159.5t-52 175.5v111q0 23 36.5 94t80 128.5t79 83.5t131.5 64q-1 6 0.5 15t0.5 14q-2 12 -52 35l2 63q59 -22 65.5 -22t14.5 8l-43 33l12 18l-14 -14l-12 10l28 33l11 -10l2 2q38 -27 64 -27t58 21l52 -107
q-49 -25 -60 -63h107q16 0 46.5 15t53.5 44l88 -59q-26 -41 -26 -62.5t6 -40.5l65 -16l-31 -58h-10l2 -2l-41 -20l-12 22q-29 -15 -29 -35t13 -61l-70 -2q-6 37 -12 49t-30 21.5t-68 46.5t-58 45v-10l-2 -33v-78zM411 319l15 449v66q0 34 -2 49l-33 -25q-13 -9 -49.5 -70.5
t-36.5 -74.5v-84q0 -6 12 -45l-10 -2q8 -76 35 -149.5t69 -113.5zM804 842l-8 -4z" />
    <glyph glyph-name="sterling" unicode="&#xa3;" horiz-adv-x="1307" 
d="M-46 -420l4 51q0 13 -14 30q-44 51 -44 98.5t32 80.5t69 48t91.5 34t74.5 29q77 183 120 356l17 76l-43 18l-72 -4q-46 0 -88 21q-12 0 -68 -15l-4 62q61 15 64 22l14 31q0 6 -37 55l54 31q33 -39 38 -39h7q14 4 35 8.5t28 6.5l23 4q87 17 187 243q43 99 91 217t105 234
t121.5 211.5t151 155t183.5 59.5q116 0 141.5 -15t45.5 -34h-2q71 -56 82.5 -84.5t11.5 -46.5t-15 -35v2q-20 -35 -20 -45.5t29 -46.5l-62 -41q-29 41 -41 41q-18 -6 -33 -10l3 2q-24 -7 -42.5 -7t-44 16t-42.5 36q-45 51 -76 51q-50 0 -121.5 -115.5t-129.5 -265t-100 -289
t-42 -188.5h94l53 2q81 0 133 -27q18 0 70 19l4 -62q-57 -17 -60 -26l-12 -25v2q-2 -4 -2 -10t39 -58l-57 -34q-37 51 -49 51q-166 -5 -205.5 -17.5t-61.5 -28t-31 -30t-27.5 -44.5t-30.5 -57q-29 -66 -89 -173v2q-7 -16 -32 -47q-60 -75 -60 -119q0 -25 143 -46.5
t229.5 -21.5t141 29t82.5 121q-27 77 -29 88q-50 55 -80 119q0 -3 -6 -3l-49 5l2 57q45 -8 62 -8q0 -3 -5 -6l9 10l2 8q0 9 -17 70l60 2q14 -56 14 -62q72 -44 120 -124t48 -166.5t-65 -171t-159 -133t-171.5 -48.5t-209 50.5t-200.5 50.5q-3 0 -17.5 -16t-33.5 -37
q-51 -55 -113 -74q-33 -11 -49 -76z" />
    <glyph glyph-name="currency" unicode="&#xa4;" horiz-adv-x="1184" 
d="M992 1212l-2 -8l-25 -2l25 -2l-2 -8h-27l-4 -6l27 -6v-6h-33l33 -5l-4 -32q0 -4 -2 -17q0 -14 47 -30l-41 -86l-35 16h2l-20 8q2 0 -28 -36.5t-34 -39.5q28 -110 55 -110h13l35 2l4 -68q-59 -5 -64 -26q-20 -79 -43 -121q5 -12 10 -39l15 -10q65 -52 166 -52l2 -92
q-115 -6 -115 -53q0 -14 6 -43l-76 -14q-9 34 -18 47q-1 -4 -6 -13.5t-8 -15.5l-62 39q22 30 23 33q-18 11 -54 47l35 -2l-39 31l-104 -33q-13 -3 -18 -15t-5 -49h-75q0 37 -6 48t-23 16l-115 35h-2q-14 -14 -50 -36q-78 -48 -91 -124l-70 4q6 41 6 63t-18 43l-2 9h-4h4
l-2 12q12 44 69 115l35 47q-10 24 -26.5 75.5t-16.5 55.5q0 86 45 186q-44 57 -84 85.5t-94 37.5l14 94q29 -10 41.5 -10t20.5 1t19 4q20 7 20 38v33h76q0 -65 28 -84q54 -30 90 -74q18 8 48.5 13.5t47.5 9.5q44 12 44 71h82q0 -43 14 -53q18 -14 51.5 -20.5t48.5 -14.5
q50 27 113 86l-6 41l43 12l6 -20l14 31l60 -4l-4 -9h20zM775 750l4 45v20l-23 33q-8 10 -28 43v-2q-28 41 -72 55h2q-33 11 -57 29q-23 -2 -67 -13.5t-70 -13.5q-84 -82 -84 -166q0 -44 9.5 -59t16 -26.5t8.5 -14.5l19 -33h4q14 -3 35.5 -20t34.5 -17l-2 2q33 -10 55 -10
q72 0 120.5 36t96.5 105z" />
    <glyph glyph-name="yen" unicode="&#xa5;" horiz-adv-x="1396" 
d="M587 313l-11 164q0 27 2 41l-43 4q-82 8 -116 8h-31q-6 0 -29 -57l-55 27q20 44 20 55q-7 13 -19 15.5t-65 2.5v60q70 0 82 12l-4 -2l27 31q0 2 -23 57l54 25q24 -51 30 -51h172q1 0 0 8q-6 29 -6 49q-172 0 -229 20l-45 -10l-4 -4l-33 31l16 18l-22 14l24 39
q25 -14 25 -18l31 6q0 9 -13 53l66 2q2 -14 2 -32l-2 -15q30 0 104 4l33 2q-40 67 -175 258t-194 263l-4 -11l-45 11q9 30 9 31.5t-17 13.5q-58 41 -76 59q-26 0 -26 -4v-8q-7 0 -58 51l72 10l-18 31l39 25q16 -24 16 -31h147q193 0 281 -10h10q58 0 142 28l4 -61
q-60 -19 -112 -50.5t-52 -50.5q27 -33 142 -199.5t128 -211.5l43 -41q53 29 119 164.5t100 244.5q-46 42 -83.5 50.5t-65.5 21.5l-17 -35h-49l-12 2l10 17q-5 62 -57 112l63 62q55 -55 111 -55l383 10h55q1 0 19 47l61 -4q-26 -59 -27 -66q10 -6 76 -14l-2 -55
q-47 6 -62.5 5.5t-64.5 -26t-65 -29.5q-41 -8 -143.5 -126.5t-188.5 -247t-86 -166.5v-10h22q18 -1 51 -1.5t53 -1.5q54 -1 110 -14.5t137 -13.5v-58q-66 0 -146.5 -16t-124.5 -16l-100 4l2 -62h106q108 0 168 -36q10 -7 33 -7h12l45 2l3 -57q-56 -7 -69.5 -12.5t-26.5 -20
t-13 -22.5t16 -53l-59 -25q-24 55 -39 55h-182q-4 -12 -4 -170v-33q-2 -39 28 -57q10 -6 30.5 -16t29.5 -15l33 -20v2q35 -19 118 -23l-2 -63q-79 0 -131 -25h-442q-10 0 -21 -49l-69 4q12 35 12 47t-8 15h-2q-12 6 -27 6l-72 -4l-2 51q93 23 93 33l-13 71l64 5
q16 -59 24 -62l2 -2l29 12q23 7 34 13q30 16 30 71zM326 784q1 0 5 -1t6 -1l-13 6zM1385 1554l4 -6q0 2 -4 6zM343 784v-2v2z" />
    <glyph glyph-name="brokenbar" unicode="&#xa6;" horiz-adv-x="547" 
d="M336 1262l9 -273v-59q6 -6 14 -10l16 -19l-32 -27q0 -3 -2.5 -11t0.5 -11q13 -15 69 -45l-41 -41l-49 25q-7 -8 -12 -54l-56 2l5 58q2 0 6 -2l-17 14l6 -6l-4 2l-47 -25l-45 47q60 33 60 37v62l16 116q0 292 -33 339q-16 23 -53 36l33 96q27 -12 45 -12q25 0 28 74l80 -2
q0 -63 15 -90h4q7 0 51 12l16 -72q-47 -14 -53 -18h2q-31 -18 -31 -143zM353 344l-10 -364v-80q0 -6 -2.5 -25.5t-2 -34.5t4.5 -34q8 -40 59 -60l-23 -74q-46 23 -57 23q-15 -5 -24 -14l-11 -7q2 0 2 -20l-8 -33l-45 6l-2 25q0 14 4 14h2l-2 2q-8 0 -67 -26l-3 55l48 20
q4 52 4 97l-8 292v224q0 1 -52 41l39 43q42 -29 45 -30q6 0 17 5q-2 0 -2 15.5t2 44.5h57v-37q0 -23 -2 -23l12 -6l27 18l98 5q-93 -62 -100 -62zM377 1430l-10 -11h14q0 5 -4 11z" />
    <glyph glyph-name="section" unicode="&#xa7;" horiz-adv-x="918" 
d="M831 1253l-8 2q-59 0 -59 -61q0 -18 6 -53l-76 -2q-8 52 -35 78.5t-73 46.5l-29 12l-49 -23q-10 -26 -12 -28h2q-33 -56 -37 -58q28 -131 123 -286q37 -60 72 -125q81 -149 81 -330q0 -138 -93 -300q-101 -177 -226 -250q-71 -40 -140 -40h-71q-16 0 -27 -11t-26 -50
l-68 32q16 43 16 54t-14 22l-18 21l-17 -19l-39 27l29 43l8 20q17 37 17 51.5t-15 67.5l62 19q19 -73 72 -110q20 -14 47 -32.5t40 -31.5q8 1 22 4t23 4l45 43l9 61q0 75 -84 211q-35 56 -70 118q-84 147 -84 286v190q0 66 48 163.5t118.5 185.5t159.5 151t162 63l41 -6
q20 -4 34 -4t45 51l60 -41q-29 -41 -29 -53q0 -35 92 -47l-2 -66h-33zM483 625q-105 252 -164 325l-10 -37l15 -6l-21 -33q8 -182 75 -319q30 -61 61 -113q86 -144 116 -241q29 63 29 100q0 112 -41 197v-2q-13 18 -19 32z" />
    <glyph glyph-name="dieresis" unicode="&#xa8;" horiz-adv-x="923" 
d="M647 1149l-22 22q-3 78 -80 78q-10 0 -49 -8l-2 90q79 9 92 19v2q25 31 25 63v41l69 2q2 -58 10.5 -71.5t20.5 -24.5v2q21 -21 61 -21h39l2 -65q-121 -6 -121 -94v-35h-45zM162 1253l-39 -2l-2 64q121 14 121 143h67q0 -58 11 -75t19.5 -27t10 -12t4.5 -4q10 -11 44 -33
q-60 -60 -60 -99q0 -18 10 -59l-75 -4q-9 55 -37 81.5t-62 26.5h-12z" />
    <glyph glyph-name="copyright" unicode="&#xa9;" horiz-adv-x="1540" 
d="M1042.5 161q-120.5 -63 -251 -63t-251.5 42t-215.5 116t-154 184.5t-63.5 239.5l-21 8q8 24 21 104q34 205 86 279q68 165 230 267t319 102q316 0 487 -205q61 -73 129 -211t68 -215q0 -128 -48.5 -256t-131.5 -228.5t-203.5 -163.5zM1257 554.5q44 98.5 44 220.5
t-65.5 250t-187 208t-270 80t-274.5 -76.5t-200 -206t-74 -257.5t43.5 -227.5t116.5 -172.5t173.5 -116.5t205.5 -43.5t203 46.5t169.5 121.5t115.5 173.5zM709 326l-6 -50h-57l4 56q-245 92 -271 315v4q-2 4 -2 19v8q-9 83 -12 166l-31 2v47h17q16 0 18 -2l10 24
q15 34 38 69.5t32 51.5l-23 11l25 40q25 -17 25 -20q21 12 63 44q96 73 141 73h117q57 0 164 -35l-2 2l27 -8q16 -4 22.5 -4t50.5 47l43 -60q-39 -36 -39 -49l9 -33v5q5 -18 8 -25q12 -20 67 -29l-32 -73l-39 8q-24 0 -39 -29v-2q0 -8 14 -68l-55 -2q-11 44 -19 52l-34 -21
l-27 35l27 25l-25 79l-86 60l-27 -17q-18 24 -18 29q-133 -8 -195 -119q-55 -101 -55 -231q0 -18 25 -97t34 -92q43 -54 77 -73t100 -19q0 -3 20 6q68 33 78 33h2q48 72 70 156q-2 4 -48 37l39 43l47 -27q11 2 33 64l56 -4q-23 -71 -23 -74.5t9.5 -26t15.5 -115.5l22 11
l19 -43l-41 -19q-157 -152 -363 -155zM654 330l-4 2q2 -2 4 -2zM977 883h-2h2z" />
    <glyph glyph-name="ordfeminine" unicode="&#xaa;" horiz-adv-x="789" 
d="M292 858q-12 18 -12 23v2l-4 -4l-19 -11l-18 37h-27q-3 -1 -14 5q-35 16 -64.5 16t-74.5 -8l-2 65q64 7 85 21l24 16q14 10 24 20l32 27l21 80q52 204 76 233l28 29q42 39 54 109l65 -2q-8 -58 -8 -75t14.5 -43t36 -98.5t40.5 -132t60 -117.5t97 -79l-27 -74
q-43 16 -70 16q-18 0 -18 -61h-102q0 22 -12.5 47t-30.5 25l-60 -9l-18 3q-23 0 -31 -3q4 -21 16 -53zM444 1022q-8 4 -50 31l-45 -25q38 -27 62 -37q21 12 33 31zM382 1200l8 -6l-6 10zM329 1030v-2q2 0 4 2h-4z" />
    <glyph glyph-name="guillemotleft" unicode="&#xab;" horiz-adv-x="1050" 
d="M41 592q71 0 105 29v-3l24 29h-2l162 164q41 43 41 58t-19 49l97 38q17 -48 35 -55q3 1 59 37l27 -51l-41 -37h-11q-5 -5 -24 -33q-55 -106 -105 -184l-32 -39l-25 -23q25 -27 57.5 -73.5t54 -70.5t38.5 -24t42 11l35 -95q-46 -20 -51 -43q6 -17 37 -65l-51 -25l-27 35
l-4 -2l-4 14q-14 20 -62 49.5t-128 92t-128 117.5h3q-30 25 -103 30v70zM697 580q10 -13 18 -37l-6 -6q88 -127 123 -127q7 0 41 12l43 -98q-42 -12 -52 -43l35 -60l-39 -35l-39 41l-2 4q-31 33 -43 41h2q-90 53 -184 129.5t-135 135.5l-10 2h8q-4 0 -4 4l8 -2l-10 20l14 14
q-12 0 -18 -8v8h4q29 54 187 191q67 58 86 76.5t74.5 39.5t98.5 56l37 -41q-77 -61 -170 -213q-44 -71 -67 -102v-2zM445 555q0 8 2 12v-8l4 6v-4zM438 541l11 -2h-11v2zM502 242l-4 -2h6q-2 0 -2 2z" />
    <glyph glyph-name="logicalnot" unicode="&#xac;" horiz-adv-x="1324" 
d="M215 485l6 45q0 2 -6 2q-1 0 -18 -45l-58 5q19 48 19 67l-33 33q0 -4 -1.5 -4t-3.5 1t-8.5 4.5t-13.5 6.5l6 14l-10 7l27 32l-21 39l58 4l24 -41q161 27 377 27h125l62 -12q34 0 115 10t115 10t60 -9t32.5 -7.5t39.5 31.5l33 -33q-27 -34 -27 -39q0 -28 2 -61.5t0.5 -62
t0 -44t17 -34t46.5 -25.5l-23 -84l-41 4q-17 0 -27 -24.5t-20 -70.5l-61 2q10 65 10 87.5t-4.5 46.5t-8 84t-10.5 88h-123l-135 6q-90 4 -129 4l-245 -17h-93q2 -2 2 -20v-27h-57zM1065 287h-29l25 -11q4 6 4 11z" />
    <glyph glyph-name="registered" unicode="&#xae;" horiz-adv-x="1544" 
d="M109 702v3l-20 -7l-19 43q18 9 27 9h4q2 133 56 259t142.5 221t212.5 152.5t248.5 57.5t243 -54.5t211 -141t152 -203t59.5 -239t-49 -250.5t-132.5 -228.5t-204 -163t-253.5 -62.5q-288 0 -471.5 162t-206.5 442zM1168 412q133 153 133 319q0 239 -141 407
q-67 80 -168 127.5t-221 47.5l-35 -2h-8l-13 2q-126 0 -254 -96l6 -29v-2l183 10h166l63 -6q71 0 107 47l96 -84q-33 -33 -33 -74q-2 -49 8.5 -55t20.5 -6h35v-72l-54 -8q-7 -7 -10 -20l-6 -25q-2 -8 -2 -17.5t45 -35.5l-37 -68q-42 23 -56 23t-41.5 -29t-43.5 -57
q27 -26 74.5 -103t94.5 -133.5t91 -60.5zM418 1120l-35 4v15q-72 -83 -112.5 -187.5t-40.5 -203.5q0 -3 8 -31l-2 2q8 -28 8 -42.5t-4 -21.5l8 -57q16 -99 119 -201v6h21q16 0 16 -4v-2l10 9q0 12 -29 67l64 4q19 -51 23 -51t6 2t4 2q14 0 22 55.5t8 89.5v93q0 69 14.5 186
t14.5 149t-4 50l-61 39q-1 0 -7 5t-13 10q-18 13 -38 13zM670 594l-2 -68q0 -43 35 -73.5t102 -42.5l-4 -48h-28q-27 0 -31 -4q0 -15 14 -61l-57 -2q-15 47 -17 47h-231q0 -6 -2 -12q75 -52 163 -84.5t159 -32.5q152 0 301 109q-9 26 -26 28q-7 0 -9 2h-2q-17 -9 -33 -59
l-59 20q12 35 12 49.5t-4 18.5q-59 59 -125 174q-19 39 -49 78q-47 62 -86 78l-11 6q-10 -29 -10 -90v-33zM746 1104l-39 -6q-29 -60 -29 -109v-35l2 -129l88 -26q35 15 62 24l2 4l-4 -2q57 73 57 129q0 18 -21.5 64.5t-35.5 62.5q-13 3 -46.5 13t-35.5 10zM1041 1044
l-27 -8h33q0 4 -6 8zM418 1176l-4 -2z" />
    <glyph glyph-name="macron" unicode="&#xaf;" horiz-adv-x="1017" 
d="M702 1165l-84 -2h-82q-152 0 -281 8q0 -3 -26 -51l-55 27q24 43 26 53l-8 4l-14 3l-50 3l3 56h43q26 0 28 2l15 14l8 16q0 14 -19 56l62 24q14 -36 22 -45.5t19 -9.5h233q22 0 66.5 -3t64.5 -3q-9 3 -14 8l24 39q95 -61 168 -61q13 0 41 10l4 -105q-51 -3 -104 -30
l21 -43l-50 -9l-16 19l-10 -10l-27 30h-8z" />
    <glyph glyph-name="degree" unicode="&#xb0;" horiz-adv-x="870" 
d="M491 784q-27 72 -137 74l-23 -2q-105 35 -161 127t-56 202t92 192.5t184 82.5t166.5 -34t124.5 -101t50 -149q0 -35 -21 -117l12 10l31 -35q-131 -115 -131 -160q0 -5 16 -40zM239 1237v-88q0 -8 8 -32.5t10 -31.5q48 -51 134 -100q20 4 52 10t40 9h-2q35 15 71.5 56
t36.5 80t-36 93t-78 80h-35q2 0 2 -4.5t-11 -42.5l-55 2q8 30 10 32l-55 -18q-59 -19 -92 -45z" />
    <glyph glyph-name="plusminus" unicode="&#xb1;" horiz-adv-x="1065" 
d="M414 299q39 39 38 43.5t-1.5 8t-1.5 8.5t-3 9q-4 9 -11.5 9t-46.5 -8l-2 71q43 5 51 13v43l2 43q0 15 -4 53l-16 18l-250 -4v-12h-17l-28 -31l-52 27q40 54 45 72q-13 63 -67 102l59 84q16 -14 47 -31v35l70 2q3 -40 10 -51h-2q6 -8 57.5 -8t68.5 2t28.5 9t15.5 9.5
t11.5 13t7.5 11.5v-2l12 22q-10 10 -10 94l-6 -6l-37 8h39l-33 23q59 82 63 178h97q0 -117 22 -117q14 0 53 17l21 -74q-36 -13 -44.5 -22t-8.5 -27l-3 -127l130 4l30 -2h33q93 0 158 53l61 -82q-50 -39 -72 -100q17 -29 37 -49l-39 -56q-20 15 -33 27q-21 19 -40 19
l-125 -9h-41l-43 2q-39 0 -58 -2l-2 -110v-43q0 -71 -14 -119v4q-2 -2 -2 -12t10 -25q3 3 3 2q-1 -3 1 -1q6 5 31 34l35 -27l-8 -14h151l-12 12l31 31q43 -43 79 -56.5t82 -15.5l3 -96q-60 -8 -80 -8h-2q0 -13 18 -49l-55 -35q-10 15 -19 33l-18 18l-8 2l-226 -14h-249
l-117 8q-14 0 -47 -49l-58 39q25 43 25 49.5t-12 28.5l-2 12l-11 12q43 37 43 57t-14 58l72 27q27 -64 92 -69q14 -1 39 1t35 2h34zM550 1053l-27 -9h29q0 7 -2 9zM507 301q-2 2 -4 2t-4 -1t-3 -1h11zM373 958l9 -2h-7z" />
    <glyph glyph-name="twosuperior" unicode="&#xb2;" horiz-adv-x="837" 
d="M532 862l-143 -8h-131q-25 0 -41 6v-2q-8 0 -39 -2l-4 47l31 2l12 27q25 51 64 82q79 64 79 200v27q-20 18 -59 45l-29 -8q3 -4 29 -29l-37 -37q-37 37 -41 37q-33 0 -41 -61l-47 2v22l-24 -10l-23 43q27 15 31 15h2q15 66 43.5 99t64.5 51t42.5 25.5t6.5 22.5v39l72 2
q3 -38 10 -51t23 -18l31 -11q24 -12 33 -12t53 35l49 -58q-37 -33 -37 -49t9 -39t9 -42t-11 -51t-27.5 -56t-33.5 -44q-46 -54 -55 -81q35 -10 62 -10h98q65 0 154 73l39 -41q-103 -85 -103 -137q0 -18 23 -57l-70 -43q-33 55 -74 55z" />
    <glyph glyph-name="threesuperior" unicode="&#xb3;" horiz-adv-x="731" 
d="M206 649l-39 4l4 47q14 -2 29 -2v31l47 2v-35h2l20 -12l84 21q9 10 26 31.5t26 31.5q3 8 4 20.5t4 20.5l-8 22l2 -2q-11 31 -21 48l-55 20q-48 15 -66 25h2q-27 10 -50 10t-70 -6l-2 65q72 7 100.5 30.5t73 53.5t51.5 35q9 29 47 107q-25 49 -27 59l-53 31
q-104 -41 -180 -101l-47 49q34 25 67 60l-8 2l12 45l31 -10q-5 27 -33 63l66 49q26 -39 46.5 -39t25.5 64l96 -2q0 -68 39 -68q24 0 63 33l74 -74q-33 -32 -33 -61q0 -8 51 -8v-72q-43 0 -55 -4h2q-10 -5 -16 -21q-38 -96 -127 -176q16 -22 89 -88q54 -49 54 -119
q0 -46 -57 -124q-19 -26 -19 -34t29 -53l-68 -38q-27 43 -35.5 43t-41.5 -9q-22 -10 -29 -67l-82 4q10 39 10 52t-24 30l-29 18v-2h-2zM384 1432v-23l8 18zM216 700q-12 0 -14 -2h8q2 0 6 2zM333 1309l-2 -2h4z" />
    <glyph glyph-name="acute" unicode="&#xb4;" horiz-adv-x="1231" 
d="M1050 662l27 96l17 -9l-11 -45q2 -41 10 -41l58 -37q30 0 44 2l6 75l16 1q7 -91 8 -98l14 -27q6 -10 10 -10q33 0 95 23l5 -13q-71 -34 -71 -46l-4 -20q1 -16 58 -64l-14 -26q-44 44 -54 44q-30 0 -74 -13.5t-44 -26.5q0 -24 24 -73l-19 -11q-27 56 -43 56
q-85 0 -134 -15q-20 -7 -20 -13.5t-4 -10.5l-11 -24q0 -28 7.5 -43.5t35.5 -35.5l-16 -16q-34 37 -45 37q-51 0 -150.5 -60t-113 -64.5t-26.5 -8t-13 -7.5l-125 -12q0 -5 -0.5 -5t-3.5 5q-26 47 -57 47q6 0 9 102q110 30 287 133q57 34 91.5 42t76.5 63.5t42 88t-20 88.5
l19 8q33 -66 47 -66l29 -6q14 4 23 8q4 1 7 4t5 4.5t2 9.5v10z" />
    <glyph glyph-name="mu" unicode="&#xb5;" horiz-adv-x="1356" 
d="M268 -147q0 -28 51 -50l-29 -73q-47 20 -56 20t-22 -14h15l6 -2v-47q-4 0 -8 2h-27l6 -15l-33 -18l2 -14h-28l-25 24q0 5 -2 17q-52 -5 -115 -45l-57 79q85 60 109.5 131.5t77.5 304.5q149 656 212 795q11 20 11 29.5t-27 75.5l72 20q24 -58 63 -69q88 -20 88 -119
q0 -106 -70.5 -242t-70.5 -194.5t10.5 -75t44.5 -35.5q2 1 39 10l39 10q132 61 180 163q34 74 49.5 158.5t28.5 128.5q29 100 115 153q35 23 41 88l72 -5l-3 -38v-7q0 -27 25 -59q23 -23 28 -43.5t5 -75t-39.5 -132.5t-86 -161t-56.5 -131q10 -23 20 -35l27 -43h22
q65 0 102 31q52 43 95 101q14 20 14 90h62q0 -64 9 -84.5t34 -20.5h12q34 2 37 2v-63q-61 -7 -68 -21q-42 -91 -95 -154q-97 -116 -179 -116q-28 0 -79 19.5t-63.5 19.5t-48.5 -31l-57 58q41 37 41 49q0 32 -41 92q-87 -134 -179 -169q-41 -16 -78.5 -16t-95.5 31t-98 62
q-31 -37 -42 -70t-11 -71t13.5 -88t13.5 -81l-2 -18v-18z" />
    <glyph glyph-name="paragraph" unicode="&#xb6;" horiz-adv-x="1365" 
d="M790 705l-16 -578q0 -39 12 -61.5t47 -38.5l-34 -90q-50 16 -58 16q-16 0 -31 -70l-59 4l4 68q0 20 -15.5 58.5t-15.5 47.5l17 514q-30 51 -81.5 75.5t-137.5 41t-125.5 29.5t-79 48.5t-61.5 68.5q-54 86 -74 86q-5 0 -56 -17l-30 56q37 16 47 23.5t10 17.5l-2 30
q0 271 167 406q158 129 423 129q59 0 169 -11.5t163 -11.5h249l33 2q46 0 74 -12l39 18l24 -41q-12 -6 -16 -10h12v-47h-14l14 -14l-30 -33l-29 25q-72 -15 -174 -15h-23q-65 0 -65 11v-224q0 -74 16.5 -227.5t16.5 -247.5v-526q0 -37 -7 -66l-6 -59q3 -29 49 -45l-36 -96
q-28 12 -39 12t-14.5 -12t-6.5 -50h-61l4 27l-14 10l16 27q-2 16 -10 39v6q-5 10 -21 10t-51 -6l-4 70q52 11 55 30q6 68 6 141.5t-6.5 206t-7.5 158.5l-12 -6l-17 43q12 4 17 4t12 -4l-8 88l-17 326l17 227q0 70 -17 107l-30 24q-19 15 -39 13.5t-56 3.5
q-28 -51 -35.5 -81.5t-7.5 -79.5t13.5 -115t13.5 -105l-8 -152z" />
    <glyph glyph-name="periodcentered" unicode="&#xb7;" horiz-adv-x="664" 
d="M254 866q28 -41 59 -45q20 14 37 62l82 -29q-16 -37 -16 -54.5t18 -27.5t37 -10h37l10 -98q-47 -2 -72 -25q14 -16 33 -35l-51 -49q-20 16 -37 29q-8 -15 -8 -54h-96q-2 68 -56 68q-31 0 -73 -16l-37 86q23 8 57.5 34.5t34.5 47.5t-31 57zM375 606l10 -10l23 10h-33z" />
    <glyph glyph-name="cedilla" unicode="&#xb8;" horiz-adv-x="673" 
d="M366 -350q-32 -19 -32 -49v-33l-80 -2q-2 60 -43 72l-25 10l-41 -10l-12 47q25 8 31 8l-11 28l43 17q9 -15 9 -22t-2 -7q60 7 149 105q-3 8 -6.5 20t-5.5 16l-12 35q-50 26 -64 37q-67 -18 -91 -36.5t-26 -55.5l-47 2v33q-6 -2 -17.5 -2.5t-17.5 -1.5l-4 47q11 2 21 2
t10 -8q25 49 60 94t54 70.5t19 40.5t-24 49l90 63q31 -43 57 -43q2 0 29 19l32 26l39 -37l-34 -34l2 -7l-15 -4q-13 -15 -28 -47v2l-7 -12q61 -32 101.5 -87t52.5 -120q3 -16 16.5 -25t51.5 -18l-15 -68h-35q-8 3 -19 3t-68 -52t-87 -65h2z" />
    <glyph glyph-name="onesuperior" unicode="&#xb9;" horiz-adv-x="716" 
d="M449 1280l-20 -307q11 0 77 -31l25 -12l10 -23l-6 23l21 12l18 -33v-2h-2v-2l-6 -4l4 -4h-2l6 -4v-31q-14 0 -20 2l10 -20l-41 -21l-6 8l-11 -20l-38 8q-3 12 -3 22.5t3 12.5h-56l-76 -2q-74 0 -141 22l-59 19l12 45l37 -10q47 39 82 39h2q12 0 12 219l-10 151
q-16 4 -46 17q-74 30 -138 35l2 65q41 -6 71 -6t74 12h2q6 4 14 4h101q1 0 16 47l58 -4l-15 -55q47 10 58 64l100 -17q-8 -31 -8 -41t10.5 -12t44.5 -2v-58h-25l-6 -20l-28 18q-57 -3 -109 -55q2 -14 2 -49zM584 918l-10 -11l2 -6l-6 -4h4v-4v4q7 0 8.5 3.5t1.5 17.5z
M560 915l-2 -4l12 -2q-3 6 -10 6zM554 915l2 -2z" />
    <glyph glyph-name="ordmasculine" unicode="&#xba;" horiz-adv-x="806" 
d="M221 932q-101 107 -101 262q0 18 64 133q32 46 90 84.5t110 38.5q6 0 67.5 -14t70.5 -17l-2 2q64 -18 91 -42t52 -76.5t25 -61.5v-119q0 -87 -89.5 -176.5t-175.5 -89.5q-24 0 -36 2l-3 -16l-4 2v14l-12 2l-6 -8q-36 16 -64 20l-8 -8q0 -12 -2 -29t-2 -18l-96 70
q12 25 31 45zM409 1331q-1 0 -14 -4.5t-16 -5.5t-15 -6t-15.5 -8.5t-13.5 -11t-14 -14t-11 -17.5t-10 -22q-10 -33 -12 -62l8 4l25 -41q-27 -15 -29 -15h-2q10 -60 33.5 -97t73.5 -62l55 20l6 10h-2l33 37q4 6 15.5 51t11.5 81q0 85 -74 173l-62 -12z" />
    <glyph glyph-name="guillemotright" unicode="&#xbb;" horiz-adv-x="1012" 
d="M348 592q-12 37 -47.5 73.5t-67 68.5t-40.5 59l-7 41q-7 57 -43 116l52 29q41 -70 77 -94q66 -43 167.5 -133t144.5 -138l12 2l8 -43l-12 -4h-2q-28 -50 -83.5 -99.5t-120 -99t-95.5 -85.5v-6q0 -9 2 -15l18 -49l-59 -4q-12 35 -18 41q-42 -9 -89 -39l-38 59
q72 43 85.5 73t29.5 58.5t27.5 45t35 50.5t30.5 44zM625 885h2q77 -51 185.5 -148.5t139.5 -146.5q-37 -49 -168 -177t-159 -137l-31 -10v-35h-47v25l-29 -12l-18 43q59 31 114 141q29 58 39 74l54 88q-98 147 -152 147q-9 0 -43 -12l-35 102q45 18 56 47q-7 24 -31 72
l51 29q41 -73 72 -90zM277 266l14 13l-14 14v-27zM576 612h-3l11 -24v20zM582 262q5 0 0.5 1.5t-9.5 2.5z" />
    <glyph glyph-name="onequarter" unicode="&#xbc;" horiz-adv-x="1434" 
d="M1097 1370q15 -57 25 -57q30 0 84 22l4 -67q-64 -21 -86 -58q-55 -85 -212.5 -284.5t-280 -356.5t-122.5 -176t-46.5 -73.5t-86.5 -86.5l33 -20l-29 -39q-57 37 -86.5 37t-62.5 -12l-29 102q13 3 27 7l25 7q10 3 12 4q-2 2 -31 23l37 66q36 -29 51 -29l-16 -17h30l-14 17
q12 0 42 33t46.5 51.5t36.5 43t27 32.5h-56q0 47 2 49l-133 -4q-107 0 -168 30l11 48l6 -3q26 21 53.5 29t38.5 14q6 48 6 152l-10 207q2 2 2 6q-17 5 -42 18q-60 31 -134 39l2 62q41 -6 60.5 -6t54.5 8l36 8h101q0 2 12 47l61 -4l-14 -53l64 6q2 2 12 51l59 -2
q-10 -55 -10 -59t78 -6v-58q-108 0 -168 -55v-25q0 -234 -12 -321q2 0 20 -15l84 -40l14 -33l-4 -8l8 10l-2 4l-2 -4l2 6l-12 29l25 14l20 -41l-12 -8v-27q45 58 178.5 246.5t214.5 282.5v-3l131 166q2 2 2 7.5t-14 62.5zM1169 -152l-35 21q-12 -6 -14.5 -12.5t-10.5 -53.5
l-53 2q0 20 2 45t0 27l-51 51v-2q0 -2 -4 -2l-39 4v47q25 2 33 2v11q0 63 10 102q-39 24 -53 35l-92 -16q-27 0 -69.5 12t-57.5 14q0 -1 -33 -29l-31 39q21 19 23 19l-23 8l13 45q24 -8 30 -8q93 150 177 264t184 211q3 24 6 64l55 -3q-10 -60 -10 -65q5 0 57 10l2 -53
q-47 -10 -51 -10q-12 -70 -12 -187v-94q0 -68 26 -104q78 13 116.5 30.5t72.5 63.5q2 2 4 2v45h47v-27l23 6l16 -43q-18 -6 -24.5 -6t-6.5 2q0 -42 -7 -82t-7 -60t37 -71l-56 -39q-39 52 -77 52h-109v-1l1 -6v-6l1 -21v-15h-37q0 -16 10.5 -63.5t10.5 -76.5v-14q4 -4 33 -27
zM997 297q4 20 4 35q0 63 -21 121q-63 -77 -137 -195h53q41 0 68 -6l6 14zM419 201l-28 -19l18 27zM475 555v-16q12 16 20 24zM507 600q0 -6 4 -14q5 2 9 10q-5 0 -13 4zM382 176l9 6l-7 -10zM505 629v2v-2z" />
    <glyph glyph-name="onehalf" unicode="&#xbd;" horiz-adv-x="1446" 
d="M935 1130l135 170q0 11 -16 66l59 4q13 -57 23 -57q30 0 84 22l4 -67q-59 -20 -86 -58q-55 -86 -212.5 -285.5t-280 -356.5t-122.5 -175.5t-46.5 -73t-86.5 -86.5l33 -20l-29 -39q-57 37 -86.5 37t-62.5 -12l-29 102q13 3 27 7l25 7q10 3 12 4q-2 2 -31 23l37 66
q36 -29 51 -29l-16 -17h30l-14 17q15 0 50 39.5t53 60.5t42.5 51t30.5 37l-24 -10q-17 30 -17 31h-274q-15 0 -41 14t-27 14l10 46q9 -3 11 -3q43 37 92 43l6 183q0 129 -6 182q-14 3 -64.5 27t-113.5 32l2 62q47 -6 67 -6l84 14l41 -2h51q7 0 21 49l61 -4q-9 -31 -14 -55
l74 10q-2 2 -2 8t10 27l31 -10h24q0 -33 11.5 -47.5t46.5 -36.5l-43 -70q-53 33 -67 33t-48 -43v-11l-4 -63v-25l-13 -241h3q3 0 11 -5q32 -19 83 -46l8 -2l27 16l24 -39q-2 -2 -4 -2l-6 -19l-10 9q-4 -2 -9 -2l-10 -13l10 -28l13 16v-4l12 -4q6 0 6 4t-8 16q43 56 176 242
t211 279v-3zM1175 264l32 2q37 0 60 -8q10 7 55 21.5t105 54.5l39 -41q-65 -44 -95 -80l-22 -27q-29 -31 -29 -45t23 -51l-70 -35q-17 31 -27 41t-22 10h-252l-41 5q-25 0 -88 -23l-4 64q58 18 86 53q3 4 27 26q62 56 94 140l-2 -2l22 67l-12 58l-35 30l-25 -16l5 -4
l-41 -41q-33 37 -37 39l-45 -25q2 -2 2 -6l-2 -25l-47 3q0 7 1 14.5t1 9.5l-27 -6l-12 47q29 8 32 8h3q26 73 49.5 102t59 45t41 23.5t5.5 26.5l-2 33l72 2q4 -58 26 -68q9 -3 22 -6.5t19 -7.5v2q23 -12 39.5 -12t51.5 34l49 -65q-37 -29 -43 -43q12 -26 12 -57.5t-15.5 -70
t-15.5 -46.5t43 -33l-39 -62l-45 21q-21 0 -49 -64h4l58 -12h6zM112 664l6 -2v-46l-10 2zM433 201l-28 -19l20 27zM544 618q6 -6 -6 -18zM396 176l9 6l-7 -10zM913 502q1 0 3 1z" />
    <glyph glyph-name="threequarters" unicode="&#xbe;" horiz-adv-x="1550" 
d="M1167 1296l2 4q0 12 -17 66l60 4q12 -57 22 -57q24 0 74 18l23 -61q-63 -21 -95 -60q-54 -90 -210 -286.5t-279 -352.5t-123 -180q0 -22 -38 -60t-47.5 -48t-25.5 -25.5t-22 -21.5l39 -29l-27 -37v-2q-4 2 -6 4l8 16l-10 -14q-57 37 -86 37t-66 -12l-26 102q15 4 37.5 11
t23.5 7q-8 10 -31 23l11 18q-6 -2 -17 -5.5t-15.5 -5.5t-12 -7.5t-11.5 -12.5q-8 -18 -12 -50l-74 4v43q0 24 -24 41h2l-27 14l-45 2v47h33q8 0 12 4q-12 0 -12 -2v33l47 -2v-17q0 -9 -2 -10.5t-10 -1.5l35 -18q45 19 48.5 16.5t12.5 -0.5l27 8q26 27 37 46.5t18 54.5
l-21 59l-4 6l-30 12q-118 48 -142 47t-69 -10l-2 64q68 13 97 31t38.5 25t28 25t20.5 19l45 29l18 45q5 13 11.5 31.5t11.5 29.5l-23 56l-59 32l-35 -14l2 2q-73 -27 -139 -82l-39 41q92 80 92 107q0 7 -28 49l53 51q35 -45 45 -45q25 7 31.5 21t7.5 51h76q0 -63 26 -72
l33 -12l-2 2l16 -4q15 0 58 43l41 -54q-31 -35 -31 -49t9 -39t9 -47t-21 -61t-47 -65q-73 -73 -81 -109h2q9 0 22 -11q43 -45 70 -64t50.5 -19t54.5 6l22 -88q-76 -19 -98 -84q-29 -74 -76 -109q13 -8 25 -8l-17 -17h33l-16 17q6 0 16 10q91 91 191 222.5t208 281.5t183 240
zM1177 -195l2 43v27q-65 59 -72 64q0 82 11 153q-26 15 -41 33q-42 -4 -60 -4l-151 8q-23 -2 -80 -33l-31 54q64 36 82 75q42 88 156 231t194 228q2 2 6 41l47 -4q-2 -16 -2 -33l33 8l12 -43q-26 -12 -32 -12v-6l-17 -184v-37l-2 -43q0 -100 33 -131q140 22 188 96
q-3 3 -6 45l47 6q4 -24 4 -31l27 11l21 -43q-23 -11 -31 -11v-106q0 -41 45 -84l-51 -49q-51 51 -101 51l-56 1q-79 0 -94 -36q-5 -12 -5 -27t10 -92l6 -51q5 -5 49 -24l-4 -62q-65 33 -72 33h-2q0 -2 -1 -7t-9 -55h-53zM1113 336q0 18 -8 51.5t-12 61.5q-21 -27 -64 -94.5
t-67 -96.5h45q45 0 63 -6l43 49v35zM919 233l6 21l-16 -18zM1245 670q0 10 -7 14q0 -6 7 -14z" />
    <glyph glyph-name="questiondown" unicode="&#xbf;" horiz-adv-x="737" 
d="M323 643q-130 0 -130 -67t29.5 -106.5t87.5 -72.5l2 6l20 -6l-2 -2q50 -12 78.5 -12t55.5 39l110 -74q-22 -38 -22 -47q0 -27 30 -27q13 0 41 9l2 -78q-63 -6 -80 -35q-16 -29 -27.5 -38.5t-43.5 -16.5l2 2q-15 -5 -22 -17.5t-13 -50.5l-82 4q10 39 10 51t-22 25
q-242 139 -242 348v117q0 93 111 229q10 13 10 23.5t-23 54.5l68 35q28 -53 45 -53l47 4l12 31l15 32q0 51 -24 63q-13 6 -36 11l17 74q36 -8 45 -8q17 0 33 30l-17 25l2 2l-8 10l29 17l-21 -27l37 24q26 -41 42 -41t46 11l27 -97q-55 -15 -55 -28v-6q3 -69 17.5 -173
t25.5 -132q-101 -54 -136.5 -58t-57.5 -4h-33zM582 1454q0 -84 60 -125l-72 -92q-42 31 -76 31q-12 0 -12 -51h-78l-2 8q-5 3 -8 8q-56 84 -109 84h-30l-4 115q56 7 79 30l-30 35l47 47q4 -5 9 -12q7 -12 13 -14q4 4 4 8l9 -6q8 19 8 59l90 4q5 -49 29 -67l43 36l51 -57
q-21 -17 -21 -18v-23zM435 1184l4 -2l-8 -8z" />
    <glyph glyph-name="Agrave" unicode="&#xc0;" horiz-adv-x="1144" 
d="M288 1928q0 10 -30.5 33t-30.5 33q0 15 -37.5 35t-74.5 39t-37 34q0 73 -130 133q0 7 -21 9l-84 -2q-12 -17 -29 -17q-10 0 -31 -62l-20 8q7 44 7 98q-11 79 -59 122q-10 12 -10 20l-49 35l18 19l46 -33q0 47 46 47l31 -1q-15 0 -19 185l13 9q51 -48 51 -64q0 -6 32 -16
l153 -111h-3l-1 -18q90 -66 90 -156q10 -33 160 -85q11 2 109 7l3 -13q-54 -27 -87 -32q8 -8 10 -36l44 -39q-8 -15 115 -15q1 0 16 23t39 73l36 -17q-40 -83 -40 -137q6 -22 43.5 -57t46.5 -35l45 -35l-80 -156l-52 29q-52 30 -104 71.5t-52 64.5zM1112 344q-65 55 -98 55
h-17l11 -102q50 -22 70 -71q18 -44 65 -44q2 0 61 46t78 46q-11 -14 -38 -40q-66 -67 -66 -72t4 -15v-2q7 -11 67 -22l21 -4q0 -5 -24 -7t-33 -5t-12 -6t-6 -6.5t-16.5 -9t-26 -24.5t-14.5 -35q-3 -42 -18 -42q-19 0 -53 39t-57 79l-49 -28q-22 -10 -29 -191q0 -21 -19 -28
q0 66 -40 136.5t-92.5 113t-81.5 42.5t-99 -4l-33 -14q-1 0 -38.5 -30.5t-51.5 -30.5l8 8h-2q-4 0 -38 29.5t-46 29.5l-145 -8q-31 -26 -92 -37q-15 -26 -66.5 -38t-116.5 -21.5t-84.5 -20t-26.5 -10.5t-11 2q59 35 84 64l37 53q8 11 11 39t9 35q-4 -37 -4 -55.5t4 -22.5v20
q0 64 45 66q0 72 80 96l-23 166q-3 18 -53 47l6 31q31 -11 35 -11q19 0 50.5 52.5t49.5 64.5q-2 21 -2 58l11 135q0 9 -29.5 30t-30.5 35v4q42 -18 62 -18t41.5 45.5t21.5 62.5t-24 39q-31 29 -23 45q50 -30 63 -30t27 14q-2 8 -2 40.5t35 121.5t35 139l-2 25q0 6 -33 32
l10 29q30 -14 33 -14q37 0 155 124q49 52 70 68q0 20 15 60h24q-2 -12 -2 -39t12 -61t49.5 -109.5t69.5 -132.5q80 -146 99 -281q11 -82 35 -115t37 -50q30 -41 30 -105l-4 -80v-64q61 -84 80 -209q6 -30 47 -69q12 -12 12 -27zM641 283l12 2l31 4l57 63l-12 180
q-35 26 -53.5 78t-18.5 77.5t1.5 29.5t1.5 6l-31 -43q-8 -11 -8 -19.5t9 -30t9 -37.5t-6 -22q-29 48 -42.5 60t-33.5 12h-223l14 -55q3 -13 39.5 -39.5t38.5 -42.5q-44 16 -63 16t-35 -12l-19 -27v-194l76 4l62 -10q4 0 26.5 10t36.5 10t18 -2q-39 -24 -51.5 -36.5
t-15.5 -26.5v-23l-2 -6q0 -14 15 -15q33 -4 46 -32q-45 14 -58 14t-11.5 -19.5t43.5 -72.5q36 40 44.5 60.5t32 63.5t23.5 51t-14.5 33.5t-14.5 36t9 17.5q42 -63 67 -63zM514 952l-59 11q-21 0 -39 -25q-33 -45 -33 -79t2 -42l45 -16q67 0 105 14.5t59 18.5l33 10
q-29 61 -29 91.5t-27.5 169.5t-42.5 187l-88 -200v-21q5 -5 9 -41v-8q4 -25 47 -43q26 -14 26 -23q0 -4 -8 -4z" />
    <glyph glyph-name="Aacute" unicode="&#xc1;" horiz-adv-x="1144" 
d="M1051 2294l27 96l17 -9l-11 -45q2 -41 10 -41l58 -37q30 0 44 2l6 75l16 1q7 -91 8 -98l14 -27q6 -10 10 -10q33 0 95 23l5 -13q-71 -34 -71 -46l-4 -20q1 -16 58 -64l-14 -26q-44 44 -54 44q-30 0 -74 -13.5t-44 -26.5q0 -24 24 -73l-19 -11q-27 56 -43 56
q-85 0 -134 -15q-20 -7 -20 -13.5t-4 -10.5l-11 -24q0 -28 7.5 -43.5t35.5 -35.5l-16 -16q-34 37 -45 37q-51 0 -150.5 -60t-113 -64.5t-26.5 -8t-13 -7.5l-125 -12q0 -5 -0.5 -5t-3.5 5q-26 47 -57 47q6 0 9 102q110 30 287 133q57 34 91.5 42t76.5 63.5t42 88t-20 88.5
l19 8q33 -66 47 -66l29 -6q14 4 23 8q4 1 7 4t5 4.5t2 9.5v10zM1112 344q-65 55 -98 55h-17l11 -102q50 -22 70 -71q18 -44 65 -44q2 0 61 46t78 46q-11 -14 -38 -40q-66 -67 -66 -72t4 -15v-2q7 -11 67 -22l21 -4q0 -5 -24 -7t-33 -5t-12 -6t-6 -6.5t-16.5 -9t-26 -24.5
t-14.5 -35q-3 -42 -18 -42q-19 0 -53 39t-57 79l-49 -28q-22 -10 -29 -191q0 -21 -19 -28q0 66 -40 136.5t-92.5 113t-81.5 42.5t-99 -4l-33 -14q-1 0 -38.5 -30.5t-51.5 -30.5l8 8h-2q-4 0 -38 29.5t-46 29.5l-145 -8q-31 -26 -92 -37q-15 -26 -66.5 -38t-116.5 -21.5
t-84.5 -20t-26.5 -10.5t-11 2q59 35 84 64l37 53q8 11 11 39t9 35q-4 -37 -4 -55.5t4 -22.5v20q0 64 45 66q0 72 80 96l-23 166q-3 18 -53 47l6 31q31 -11 35 -11q19 0 50.5 52.5t49.5 64.5q-2 21 -2 58l11 135q0 9 -29.5 30t-30.5 35v4q42 -18 62 -18t41.5 45.5t21.5 62.5
t-24 39q-31 29 -23 45q50 -30 63 -30t27 14q-2 8 -2 40.5t35 121.5t35 139l-2 25q0 6 -33 32l10 29q30 -14 33 -14q37 0 155 124q49 52 70 68q0 20 15 60h24q-2 -12 -2 -39t12 -61t49.5 -109.5t69.5 -132.5q80 -146 99 -281q11 -82 35 -115t37 -50q30 -41 30 -105l-4 -80
v-64q61 -84 80 -209q6 -30 47 -69q12 -12 12 -27zM641 283l12 2l31 4l57 63l-12 180q-35 26 -53.5 78t-18.5 77.5t1.5 29.5t1.5 6l-31 -43q-8 -11 -8 -19.5t9 -30t9 -37.5t-6 -22q-29 48 -42.5 60t-33.5 12h-223l14 -55q3 -13 39.5 -39.5t38.5 -42.5q-44 16 -63 16t-35 -12
l-19 -27v-194l76 4l62 -10q4 0 26.5 10t36.5 10t18 -2q-39 -24 -51.5 -36.5t-15.5 -26.5v-23l-2 -6q0 -14 15 -15q33 -4 46 -32q-45 14 -58 14t-11.5 -19.5t43.5 -72.5q36 40 44.5 60.5t32 63.5t23.5 51t-14.5 33.5t-14.5 36t9 17.5q42 -63 67 -63zM514 952l-59 11
q-21 0 -39 -25q-33 -45 -33 -79t2 -42l45 -16q67 0 105 14.5t59 18.5l33 10q-29 61 -29 91.5t-27.5 169.5t-42.5 187l-88 -200v-21q5 -5 9 -41v-8q4 -25 47 -43q26 -14 26 -23q0 -4 -8 -4z" />
    <glyph glyph-name="Acircumflex" unicode="&#xc2;" horiz-adv-x="1144" 
d="M740 1707l2 39v18l-6 14l2 2q-2 10 -22.5 34t-58.5 92t-52 89q-29 -29 -46.5 -66t-17.5 -57t41 -45l-59 -75q-32 22 -43 22q-29 0 -29 -82l-57 56l14 32l-4 4l10 7q13 30 52.5 185t60.5 212l-2 -4q0 2 -45 37l39 41q41 -27 45 -27l16 14q-4 18 -4 41l45 8q3 -14 6 -18
l11 16l41 -26q-17 -26 -17 -27v-4q53 -60 162 -315q13 -29 40 -56t60 -39l-26 -86q-40 15 -59 15t-25 -10.5t-12 -44.5zM756 1782l-6 -8l11 -18zM1112 344q-65 55 -98 55h-17l11 -102q50 -22 70 -71q18 -44 65 -44q2 0 61 46t78 46q-11 -14 -38 -40q-66 -67 -66 -72t4 -15
v-2q7 -11 67 -22l21 -4q0 -5 -24 -7t-33 -5t-12 -6t-6 -6.5t-16.5 -9t-26 -24.5t-14.5 -35q-3 -42 -18 -42q-19 0 -53 39t-57 79l-49 -28q-22 -10 -29 -191q0 -21 -19 -28q0 66 -40 136.5t-92.5 113t-81.5 42.5t-99 -4l-33 -14q-1 0 -38.5 -30.5t-51.5 -30.5l8 8h-2
q-4 0 -38 29.5t-46 29.5l-145 -8q-31 -26 -92 -37q-15 -26 -66.5 -38t-116.5 -21.5t-84.5 -20t-26.5 -10.5t-11 2q59 35 84 64l37 53q8 11 11 39t9 35q-4 -37 -4 -55.5t4 -22.5v20q0 64 45 66q0 72 80 96l-23 166q-3 18 -53 47l6 31q31 -11 35 -11q19 0 50.5 52.5t49.5 64.5
q-2 21 -2 58l11 135q0 9 -29.5 30t-30.5 35v4q42 -18 62 -18t41.5 45.5t21.5 62.5t-24 39q-31 29 -23 45q50 -30 63 -30t27 14q-2 8 -2 40.5t35 121.5t35 139l-2 25q0 6 -33 32l10 29q30 -14 33 -14q37 0 155 124q49 52 70 68q0 20 15 60h24q-2 -12 -2 -39t12 -61
t49.5 -109.5t69.5 -132.5q80 -146 99 -281q11 -82 35 -115t37 -50q30 -41 30 -105l-4 -80v-64q61 -84 80 -209q6 -30 47 -69q12 -12 12 -27zM641 283l12 2l31 4l57 63l-12 180q-35 26 -53.5 78t-18.5 77.5t1.5 29.5t1.5 6l-31 -43q-8 -11 -8 -19.5t9 -30t9 -37.5t-6 -22
q-29 48 -42.5 60t-33.5 12h-223l14 -55q3 -13 39.5 -39.5t38.5 -42.5q-44 16 -63 16t-35 -12l-19 -27v-194l76 4l62 -10q4 0 26.5 10t36.5 10t18 -2q-39 -24 -51.5 -36.5t-15.5 -26.5v-23l-2 -6q0 -14 15 -15q33 -4 46 -32q-45 14 -58 14t-11.5 -19.5t43.5 -72.5
q36 40 44.5 60.5t32 63.5t23.5 51t-14.5 33.5t-14.5 36t9 17.5q42 -63 67 -63zM514 952l-59 11q-21 0 -39 -25q-33 -45 -33 -79t2 -42l45 -16q67 0 105 14.5t59 18.5l33 10q-29 61 -29 91.5t-27.5 169.5t-42.5 187l-88 -200v-21q5 -5 9 -41v-8q4 -25 47 -43q26 -14 26 -23
q0 -4 -8 -4z" />
    <glyph glyph-name="Atilde" unicode="&#xc3;" horiz-adv-x="1144" 
d="M314 1883l-2 11l-2 2q0 -2 -21 -2h-41v55q61 2 64 10l10 21q6 9 6 16t-43 47l60 41q37 -33 43 -33t12 6q88 43 162 43q14 0 88.5 -23t101.5 -36q63 12 121 45.5t94 77.5l62 -45q-41 -50 -56 -86q3 -3 45 -31l-37 -61q-29 21 -53 24q-13 -3 -30 -20q-32 -21 -80.5 -36
t-91 -15t-121 21.5t-100 21.5t-56.5 -7l-33 -8l-51 -49v-2q0 -18 -6 -57h-55q10 53 10 69zM1112 344q-65 55 -98 55h-17l11 -102q50 -22 70 -71q18 -44 65 -44q2 0 61 46t78 46q-11 -14 -38 -40q-66 -67 -66 -72t4 -15v-2q7 -11 67 -22l21 -4q0 -5 -24 -7t-33 -5t-12 -6
t-6 -6.5t-16.5 -9t-26 -24.5t-14.5 -35q-3 -42 -18 -42q-19 0 -53 39t-57 79l-49 -28q-22 -10 -29 -191q0 -21 -19 -28q0 66 -40 136.5t-92.5 113t-81.5 42.5t-99 -4l-33 -14q-1 0 -38.5 -30.5t-51.5 -30.5l8 8h-2q-4 0 -38 29.5t-46 29.5l-145 -8q-31 -26 -92 -37
q-15 -26 -66.5 -38t-116.5 -21.5t-84.5 -20t-26.5 -10.5t-11 2q59 35 84 64l37 53q8 11 11 39t9 35q-4 -37 -4 -55.5t4 -22.5v20q0 64 45 66q0 72 80 96l-23 166q-3 18 -53 47l6 31q31 -11 35 -11q19 0 50.5 52.5t49.5 64.5q-2 21 -2 58l11 135q0 9 -29.5 30t-30.5 35v4
q42 -18 62 -18t41.5 45.5t21.5 62.5t-24 39q-31 29 -23 45q50 -30 63 -30t27 14q-2 8 -2 40.5t35 121.5t35 139l-2 25q0 6 -33 32l10 29q30 -14 33 -14q37 0 155 124q49 52 70 68q0 20 15 60h24q-2 -12 -2 -39t12 -61t49.5 -109.5t69.5 -132.5q80 -146 99 -281
q11 -82 35 -115t37 -50q30 -41 30 -105l-4 -80v-64q61 -84 80 -209q6 -30 47 -69q12 -12 12 -27zM641 283l12 2l31 4l57 63l-12 180q-35 26 -53.5 78t-18.5 77.5t1.5 29.5t1.5 6l-31 -43q-8 -11 -8 -19.5t9 -30t9 -37.5t-6 -22q-29 48 -42.5 60t-33.5 12h-223l14 -55
q3 -13 39.5 -39.5t38.5 -42.5q-44 16 -63 16t-35 -12l-19 -27v-194l76 4l62 -10q4 0 26.5 10t36.5 10t18 -2q-39 -24 -51.5 -36.5t-15.5 -26.5v-23l-2 -6q0 -14 15 -15q33 -4 46 -32q-45 14 -58 14t-11.5 -19.5t43.5 -72.5q36 40 44.5 60.5t32 63.5t23.5 51t-14.5 33.5
t-14.5 36t9 17.5q42 -63 67 -63zM514 952l-59 11q-21 0 -39 -25q-33 -45 -33 -79t2 -42l45 -16q67 0 105 14.5t59 18.5l33 10q-29 61 -29 91.5t-27.5 169.5t-42.5 187l-88 -200v-21q5 -5 9 -41v-8q4 -25 47 -43q26 -14 26 -23q0 -4 -8 -4z" />
    <glyph glyph-name="Adieresis" unicode="&#xc4;" horiz-adv-x="1144" 
d="M739 1818l-22 22q-3 78 -80 78q-10 0 -49 -8l-2 90q79 9 92 19v2q25 31 25 63v41l69 2q2 -58 10.5 -71.5t20.5 -24.5v2q21 -21 61 -21h39l2 -65q-121 -6 -121 -94v-35h-45zM254 1922l-39 -2l-2 64q121 14 121 143h67q0 -58 11 -75t19.5 -27t10 -12t4.5 -4q10 -11 44 -33
q-60 -60 -60 -99q0 -18 10 -59l-75 -4q-9 55 -37 81.5t-62 26.5h-12zM1112 344q-65 55 -98 55h-17l11 -102q50 -22 70 -71q18 -44 65 -44q2 0 61 46t78 46q-11 -14 -38 -40q-66 -67 -66 -72t4 -15v-2q7 -11 67 -22l21 -4q0 -5 -24 -7t-33 -5t-12 -6t-6 -6.5t-16.5 -9
t-26 -24.5t-14.5 -35q-3 -42 -18 -42q-19 0 -53 39t-57 79l-49 -28q-22 -10 -29 -191q0 -21 -19 -28q0 66 -40 136.5t-92.5 113t-81.5 42.5t-99 -4l-33 -14q-1 0 -38.5 -30.5t-51.5 -30.5l8 8h-2q-4 0 -38 29.5t-46 29.5l-145 -8q-31 -26 -92 -37q-15 -26 -66.5 -38
t-116.5 -21.5t-84.5 -20t-26.5 -10.5t-11 2q59 35 84 64l37 53q8 11 11 39t9 35q-4 -37 -4 -55.5t4 -22.5v20q0 64 45 66q0 72 80 96l-23 166q-3 18 -53 47l6 31q31 -11 35 -11q19 0 50.5 52.5t49.5 64.5q-2 21 -2 58l11 135q0 9 -29.5 30t-30.5 35v4q42 -18 62 -18
t41.5 45.5t21.5 62.5t-24 39q-31 29 -23 45q50 -30 63 -30t27 14q-2 8 -2 40.5t35 121.5t35 139l-2 25q0 6 -33 32l10 29q30 -14 33 -14q37 0 155 124q49 52 70 68q0 20 15 60h24q-2 -12 -2 -39t12 -61t49.5 -109.5t69.5 -132.5q80 -146 99 -281q11 -82 35 -115t37 -50
q30 -41 30 -105l-4 -80v-64q61 -84 80 -209q6 -30 47 -69q12 -12 12 -27zM641 283l12 2l31 4l57 63l-12 180q-35 26 -53.5 78t-18.5 77.5t1.5 29.5t1.5 6l-31 -43q-8 -11 -8 -19.5t9 -30t9 -37.5t-6 -22q-29 48 -42.5 60t-33.5 12h-223l14 -55q3 -13 39.5 -39.5t38.5 -42.5
q-44 16 -63 16t-35 -12l-19 -27v-194l76 4l62 -10q4 0 26.5 10t36.5 10t18 -2q-39 -24 -51.5 -36.5t-15.5 -26.5v-23l-2 -6q0 -14 15 -15q33 -4 46 -32q-45 14 -58 14t-11.5 -19.5t43.5 -72.5q36 40 44.5 60.5t32 63.5t23.5 51t-14.5 33.5t-14.5 36t9 17.5q42 -63 67 -63z
M514 952l-59 11q-21 0 -39 -25q-33 -45 -33 -79t2 -42l45 -16q67 0 105 14.5t59 18.5l33 10q-29 61 -29 91.5t-27.5 169.5t-42.5 187l-88 -200v-21q5 -5 9 -41v-8q4 -25 47 -43q26 -14 26 -23q0 -4 -8 -4z" />
    <glyph glyph-name="Aring" unicode="&#xc5;" horiz-adv-x="1144" 
d="M938 2024l11 -26q0 -23 -21 -61.5t-25 -55.5v-6q0 -16 39 -31l-6 -10q-20 10 -32.5 10t-28.5 -8q-90 -78 -120 -99t-30 -29t11 -32l-15 -4q-8 23 -16 29t-23 6h-4q-17 0 -27 -7t-20 -30l-18 6q10 25 10 34.5t-14.5 16.5t-33.5 8q-53 3 -69 31q-15 18 -18 37
q-87 5 -133 17l-2 12q2 2 19 2q34 0 34 16t-22 33t-37.5 17t-41.5 -11l-4 9q41 15 45 26q-6 0 -8 10q-49 9 -53 27q0 4 -15 9t-28 16q-18 15 -18 41q0 115 -66 145l53 65q26 -14 66.5 -14t70.5 10q0 28 24 41.5t68.5 22t78.5 20t73.5 11.5t105.5 -33t93 -80
q11 -18 40.5 -35.5t50.5 -35t21 -38t10 -35t28 -14.5t34 6l6 -12q-29 -7 -36 -12t-7 -15zM740 2104l2 13l-2 6q-17 11 -38.5 39t-37.5 39q-12 -5 -19 -29l-26 2q2 4 2 14q0 27 -53 27q-8 0 -35 -7t-29 -9.5t-8 -9.5q-16 -18 -16 -24.5t38 -21.5l-6 -8q-27 10 -42 10
t-31 -25.5t-28.5 -27.5t-12.5 -10v-39q0 -6 53.5 -45.5t54.5 -59.5q0 -6 16.5 -16t30 -10t33.5 10l10 -10q-32 -15 -32 -21t6 -18q0 -8 18 -8h8q15 0 25 -5t12 -5h43l21 6q1 1 10 13q29 38 47 50q0 27 14 29l4 12q5 2 5 6v35q0 51 -43 51h-23l-2 8q44 7 47 19q-1 3 -8.5 8
t-7.5 12zM1112 344q-65 55 -98 55h-17l11 -102q50 -22 70 -71q18 -44 65 -44q2 0 61 46t78 46q-11 -14 -38 -40q-66 -67 -66 -72t4 -15v-2q7 -11 67 -22l21 -4q0 -5 -24 -7t-33 -5t-12 -6t-6 -6.5t-16.5 -9t-26 -24.5t-14.5 -35q-3 -42 -18 -42q-19 0 -53 39t-57 79l-49 -28
q-22 -10 -29 -191q0 -21 -19 -28q0 66 -40 136.5t-92.5 113t-81.5 42.5t-99 -4l-33 -14q-1 0 -38.5 -30.5t-51.5 -30.5l8 8h-2q-4 0 -38 29.5t-46 29.5l-145 -8q-31 -26 -92 -37q-15 -26 -66.5 -38t-116.5 -21.5t-84.5 -20t-26.5 -10.5t-11 2q59 35 84 64l37 53q8 11 11 39
t9 35q-4 -37 -4 -55.5t4 -22.5v20q0 64 45 66q0 72 80 96l-23 166q-3 18 -53 47l6 31q31 -11 35 -11q19 0 50.5 52.5t49.5 64.5q-2 21 -2 58l11 135q0 9 -29.5 30t-30.5 35v4q42 -18 62 -18t41.5 45.5t21.5 62.5t-24 39q-31 29 -23 45q50 -30 63 -30t27 14q-2 8 -2 40.5
t35 121.5t35 139l-2 25q0 6 -33 32l10 29q30 -14 33 -14q37 0 155 124q49 52 70 68q0 20 15 60h24q-2 -12 -2 -39t12 -61t49.5 -109.5t69.5 -132.5q80 -146 99 -281q11 -82 35 -115t37 -50q30 -41 30 -105l-4 -80v-64q61 -84 80 -209q6 -30 47 -69q12 -12 12 -27zM641 283
l12 2l31 4l57 63l-12 180q-35 26 -53.5 78t-18.5 77.5t1.5 29.5t1.5 6l-31 -43q-8 -11 -8 -19.5t9 -30t9 -37.5t-6 -22q-29 48 -42.5 60t-33.5 12h-223l14 -55q3 -13 39.5 -39.5t38.5 -42.5q-44 16 -63 16t-35 -12l-19 -27v-194l76 4l62 -10q4 0 26.5 10t36.5 10t18 -2
q-39 -24 -51.5 -36.5t-15.5 -26.5v-23l-2 -6q0 -14 15 -15q33 -4 46 -32q-45 14 -58 14t-11.5 -19.5t43.5 -72.5q36 40 44.5 60.5t32 63.5t23.5 51t-14.5 33.5t-14.5 36t9 17.5q42 -63 67 -63zM514 952l-59 11q-21 0 -39 -25q-33 -45 -33 -79t2 -42l45 -16q67 0 105 14.5
t59 18.5l33 10q-29 61 -29 91.5t-27.5 169.5t-42.5 187l-88 -200v-21q5 -5 9 -41v-8q4 -25 47 -43q26 -14 26 -23q0 -4 -8 -4z" />
    <glyph glyph-name="AE" unicode="&#xc6;" horiz-adv-x="2077" 
d="M1785 1305q-25 -4 -61 -66l-15 8q29 52 29 75.5t-55 76.5l12 -10q-45 65 -86 65l-297 -2q-15 0 -26 -38t-11 -97l6 -23q0 -2 11.5 -16.5t11.5 -77.5l-10 -145q0 -43 13 -92.5t36 -49.5q3 0 46 18.5t74 18.5t48 -2q35 0 35 33v137q0 18 -19 30t-51 26l6 12
q39 -25 59.5 -25t31.5 10.5t34 88.5l8 -3q-18 -60 -18 -84t28.5 -55t49.5 -31t79 27l11 -18q-46 -27 -58 -41t-12 -37v-4q-1 -9 27.5 -42t27.5 -63l-2 -55q0 -14 10.5 -21.5t67.5 -29.5l-8 -29q-58 25 -68.5 25t-29.5 -19l-21 -28q-4 -8 -4 -15l4 -39q0 -74 -30.5 -104.5
t-32.5 -112.5h-17v21q0 64 -24 90q-67 68 -74 211q0 24 -21 24l-90 -14l-59 4q-22 0 -39.5 -45t-17.5 -78v-41q0 -157 4 -157q20 0 51 8l8 -29q-51 -12 -63.5 -25.5t-12.5 -39.5v-41q0 -31 31 -31h156q26 0 39 13t24 63l29 -6q-8 -31 -8 -52q0 -33 61 -57.5t90 -24.5
q47 0 49 29l9 47q12 74 141 88q32 3 96 60l10 -11q-64 -57 -71 -91.5t-25 -140.5t-27.5 -138.5t-9.5 -40t29 -86.5l-23 -6q-28 79 -28 82q0 29 -76 36q-32 0 -55 -57l-19 8q18 42 17 57t1 15t3 -0.5t4 -1.5q-33 15 -91 31.5t-73.5 25t-24.5 8.5h-456q-100 0 -111 -49
l-39 -86q-2 -6 -40.5 -75t-46 -93t-28.5 -30q11 29 11 93.5t-45.5 131.5t-94.5 67q-22 0 -92 -4l-37 -14q-2 -1 -49.5 -31t-60.5 -30l10 8h-2q-4 0 -28 29.5t-35 29.5l-150 -8q-38 -26 -102 -37q-24 -26 -79 -38t-122.5 -21.5t-90 -20t-29.5 -10.5t-11 2l33 18q59 31 71 46
l54 53q10 10 22.5 38.5t22.5 35.5q-29 -64 -29 -68.5t1 -6.5t1 -3l8 20q19 64 64 66q22 73 110 96l29 166q0 16 -37 47l16 31q27 -11 31 -11q19 0 67 52.5t70 64.5q9 45 39.5 108.5t30.5 79.5t-19.5 36t-19.5 34l2 4q37 -18 57 -18t59.5 51t39.5 64t-14.5 32.5t-14.5 29
t6 15.5q40 -30 53.5 -30t28.5 12l8 27q15 48 78 137t80 139l6 25v2q0 4 -22 30l18 29q25 -14 38.5 -14t67 36.5t118.5 88t92 67.5q22 43 32 60h25q-23 -48 -23 -76t9 -80q13 8 36 59l21 -8q-21 -46 -21 -61q5 12 67 21t92 9t42.5 13.5t30.5 56.5l20 -10q-20 -47 -20 -66.5
t16 -29.5l8 -9q10 -6 19 -6h225l4 4l4 -4q9 0 23 14t52 29t73.5 24.5t78 40t72.5 79.5l11 -9q-46 -68 -46 -102v-352q0 -34 35 -113l-8 -4q-33 72 -61 100l-99 84q-8 4 -10 9zM681 283l45 6l78 63l45 180q-28 29 -28 90t20 101l-45 -43q-16 -16 -16 -31l2 -35q0 -31 -17 -43
q-13 48 -23 60t-30 12h-223l-2 -55q-1 -13 25 -39.5t26 -42.5q-39 16 -57.5 16t-38.5 -12l-27 -27l-63 -194l77 4l58 -10q4 0 31 10t41 10t16 -2q-73 -37 -86 -63l-8 -23l-7 -12q0 -6 10 -8q34 -6 40 -33q-43 14 -58.5 14t-15.5 -22t22 -70q53 43 70 70q9 11 31 36
q50 57 57 74l-10 53q0 15 14 29q24 -63 47 -63zM767 952l-55 11q-25 0 -61 -40t-50 -81l-6 -25l41 -16q67 0 109.5 14.5t64.5 18.5l37 10q-6 35 -6 56.5t6 39.5t19.5 113t19.5 172v30q-5 21 -6 23l-141 -186l-7 -21q0 -33 -8 -49q0 -18 9 -26.5t19 -13.5t13.5 -8t5.5 -4.5
t4 -3.5q3 -2 3 -8t-11 -6z" />
    <glyph glyph-name="Ccedilla" unicode="&#xc7;" horiz-adv-x="1176" 
d="M437 -373q-32 -19 -32 -49v-33l-80 -2q-2 60 -43 72l-25 10l-41 -10l-12 47q25 8 31 8l-11 28l43 17q9 -15 9 -22t-2 -7q60 7 149 105q-3 8 -6.5 20t-5.5 16l-12 35q-50 26 -64 37q-67 -18 -91 -36.5t-26 -55.5l-47 2v33q-6 -2 -17.5 -2.5t-17.5 -1.5l-4 47q11 2 21 2
t10 -8q25 49 60 94t54 70.5t19 40.5t-24 49l90 63q31 -43 57 -43q2 0 29 19l32 26l39 -37l-34 -34l2 -7l-15 -4q-13 -15 -28 -47v2l-7 -12q61 -32 101.5 -87t52.5 -120q3 -16 16.5 -25t51.5 -18l-15 -68h-35q-8 3 -19 3t-68 -52t-87 -65h2zM416 147q-47 0 -49 -120h-12v24
q0 90 -44 90q-32 0 -67 -18l-4 16q48 17 61 27t13 24l2 33q0 4 -3.5 9t-5.5 8q-123 143 -180 365t-57 480l2 58l6 100q0 14 -3 21q-7 17 -69 39l9 18q48 -16 61.5 -16t131 120t125 123.5t12.5 8.5q15 15 28 77l12 -2q-10 -55 -10 -67q0 -46 63 -52q9 16 9 31.5t-37 69.5
l16 10q29 -43 44 -55.5t34 -12.5h168q22 0 34 12.5t27 61.5l25 -8q-14 -41 -14 -63t35 -45t53.5 -23t27.5 10t9 23v8q0 30 -58 90l10 10q60 -57 91 -57h47q42 0 61 -111q7 -41 17 -53.5t26 -60t23 -54.5q22 -22 33.5 -24t25.5 -2t53 6l2 -21q-63 -8 -82.5 -24.5t-19.5 -49.5
t49 -77l-16 -14q-50 49 -68 49t-22 -2h-2q-15 -5 -19 -17t-4 -32t4 -68h-8q-10 107 -28 122q-21 16 -25 44q0 6 -35 38q-118 108 -130.5 130t-29.5 22h-219q-13 0 -23.5 -14.5t-23 -31t-31 -21t-36 -46t-37 -98.5t-39.5 -84q4 -46 5.5 -171t4.5 -138q26 -28 46 -81
q67 -177 141 -251q8 -8 12 -12.5t10.5 -10.5t9.5 -8.5t8 -6.5q16 -13 23 -13t11 1.5t7 3t8 5.5t8 7l10 10l-42 -41q102 0 155 -21q9 0 15 6l75 56q6 6 19 31.5t22 35.5q74 78 119 109q12 46 33 85.5t22 39.5q-2 -4 -2 -12v-93h4q14 0 31 -10l-35 -49v-111q0 -37 -25.5 -87
t-31.5 -68q0 -25 47 -64l-16 -18q-42 39 -58.5 39t-29.5 -11h-2q-5 0 -11 -22v-227h-26v55q0 67 -26.5 95t-88.5 28h-22l-193 -29q-2 -1 -5.5 -3t-4.5 -2.5t-3.5 -2.5t-3 -3.5t-1.5 -3.5q-2 -6 -2 -14l2 -77l-15 -2l-2 73q0 11 -8.5 20t-19.5 9l-70 2q-16 0 -59 -61l-9 6
q39 55 39 67q-6 6 -14 6z" />
    <glyph glyph-name="Egrave" unicode="&#xc8;" horiz-adv-x="1466" 
d="M397 1955q0 10 -30.5 33t-30.5 33q0 15 -37.5 35t-74.5 39t-37 34q0 73 -130 133q0 7 -21 9l-84 -2q-12 -17 -29 -17q-10 0 -31 -62l-20 8q7 44 7 98q-11 79 -59 122q-10 12 -10 20l-49 35l18 19l46 -33q0 47 46 47l31 -1q-15 0 -19 185l13 9q51 -48 51 -64q0 -6 32 -16
l153 -111h-3l-1 -18q90 -66 90 -156q10 -33 160 -85q11 2 109 7l3 -13q-54 -27 -87 -32q8 -8 10 -36l44 -39q-8 -15 115 -15q1 0 16 23t39 73l36 -17q-40 -83 -40 -137q6 -22 43.5 -57t46.5 -35l45 -35l-80 -156l-52 29q-52 30 -104 71.5t-52 64.5zM1083 1389q-44 65 -86 65
l-297 -2q-15 0 -25.5 -38t-10.5 -97l6 -23q0 -2 11 -17t11 -77l-10 -145q0 -43 13 -92.5t36 -49.5q3 0 46.5 18.5t74.5 18.5t47 -2q35 0 35 33v137q0 18 -18.5 30t-51.5 26l6 12q39 -25 59.5 -25t32 10t33.5 89l8 -3q-18 -60 -18 -84t28.5 -55t49.5 -31t80 27l10 -18
q-46 -27 -58 -41t-12 -37v-4q-1 -9 28 -42t28 -63l-2 -55q0 -16 26 -31q1 0 51 -20l-8 -29l-53 21q-6 2 -17 2t-28 -17l-21 -28q-4 -8 -4 -15l4 -39q0 -74 -34 -108q-27 -27 -29 -109h-16v21q0 63 -25 90q-67 69 -74 211q0 24 -20 24l-90 -14l-60 4q-22 0 -39.5 -45.5
t-17.5 -77.5v-41q0 -157 4 -157q22 0 51 8l8 -29q-50 -12 -62.5 -25.5t-12.5 -39.5v-41q0 -31 30 -31h156q26 0 39 13t25 63l28 -6q-8 -31 -8 -52q0 -33 61 -57.5t90 -24.5q48 0 50 29l8 47q12 74 141 88q31 3 96 60l11 -11q-65 -57 -71.5 -90.5t-24.5 -140.5t-27.5 -139.5
t-9.5 -44.5l28 -82l-22 -6q-34 88 -29 83q-13 22 -27.5 25t-25 6.5t-23.5 3.5q-32 0 -55 -57l-18 8q16 41 16 56.5t1.5 15.5t2.5 -0.5t4 -1.5q-32 15 -90.5 31.5t-74 25t-23.5 8.5h-457q-99 0 -111 -49l-38 -86l-33 15l43 90q10 44 10 113t-33 430.5t-35 553.5
q-2 20 -14.5 32t-60.5 28l6 20q60 -16 66.5 -16t10.5 1q12 1 19 17l25 31l10 27l2 8l-8 31q-5 14 -54.5 27.5t-75 13.5t-57.5 -62l-22 12q20 44 20 59.5t-18 35.5l-51 43q-22 16 -30.5 16t-74.5 -16l-8 20q54 19 70 37t16 45v23q0 19 -55 71l6 6q55 -55 72 -55h4
q13 0 23.5 18.5t25.5 51.5l8 -4q-25 -54 -25 -66t9 -22.5t16 -10.5h6q23 4 43 74l21 -6q-11 -35 -11 -59.5t50.5 -49t78.5 -24.5q21 0 52 63l18 -8q-25 -55 -25 -65q0 -23 49.5 -46.5t71.5 -23.5t33 12t29 51l20 -8q-20 -44 -20 -61q4 12 66.5 21t92.5 9t42.5 13.5
t29.5 56.5l21 -10q-21 -46 -21 -66.5t17 -29.5q13 -15 26 -15h225q1 0 5 4l4 -4q8 0 22 14t52.5 29t74 24.5t78 40t72.5 79.5l10 -9q-45 -67 -45 -102v-352q0 -36 35 -113l-9 -4q-31 70 -61 100l-98 84q-8 4 -11 9q-14 -2 -26 -14.5t-35 -51.5l-14 8q28 52 28 76.5t-55 75.5
z" />
    <glyph glyph-name="Eacute" unicode="&#xc9;" horiz-adv-x="1466" 
d="M1159 2321l27 96l17 -9l-11 -45q2 -41 10 -41l58 -37q30 0 44 2l6 75l16 1q7 -91 8 -98l14 -27q6 -10 10 -10q33 0 95 23l5 -13q-71 -34 -71 -46l-4 -20q1 -16 58 -64l-14 -26q-44 44 -54 44q-30 0 -74 -13.5t-44 -26.5q0 -24 24 -73l-19 -11q-27 56 -43 56
q-85 0 -134 -15q-20 -7 -20 -13.5t-4 -10.5l-11 -24q0 -28 7.5 -43.5t35.5 -35.5l-16 -16q-34 37 -45 37q-51 0 -150.5 -60t-113 -64.5t-26.5 -8t-13 -7.5l-125 -12q0 -5 -0.5 -5t-3.5 5q-26 47 -57 47q6 0 9 102q110 30 287 133q57 34 91.5 42t76.5 63.5t42 88t-20 88.5
l19 8q33 -66 47 -66l29 -6q14 4 23 8q4 1 7 4t5 4.5t2 9.5v10zM1083 1389q-44 65 -86 65l-297 -2q-15 0 -25.5 -38t-10.5 -97l6 -23q0 -2 11 -17t11 -77l-10 -145q0 -43 13 -92.5t36 -49.5q3 0 46.5 18.5t74.5 18.5t47 -2q35 0 35 33v137q0 18 -18.5 30t-51.5 26l6 12
q39 -25 59.5 -25t32 10t33.5 89l8 -3q-18 -60 -18 -84t28.5 -55t49.5 -31t80 27l10 -18q-46 -27 -58 -41t-12 -37v-4q-1 -9 28 -42t28 -63l-2 -55q0 -16 26 -31q1 0 51 -20l-8 -29l-53 21q-6 2 -17 2t-28 -17l-21 -28q-4 -8 -4 -15l4 -39q0 -74 -34 -108q-27 -27 -29 -109
h-16v21q0 63 -25 90q-67 69 -74 211q0 24 -20 24l-90 -14l-60 4q-22 0 -39.5 -45.5t-17.5 -77.5v-41q0 -157 4 -157q22 0 51 8l8 -29q-50 -12 -62.5 -25.5t-12.5 -39.5v-41q0 -31 30 -31h156q26 0 39 13t25 63l28 -6q-8 -31 -8 -52q0 -33 61 -57.5t90 -24.5q48 0 50 29l8 47
q12 74 141 88q31 3 96 60l11 -11q-65 -57 -71.5 -90.5t-24.5 -140.5t-27.5 -139.5t-9.5 -44.5l28 -82l-22 -6q-34 88 -29 83q-13 22 -27.5 25t-25 6.5t-23.5 3.5q-32 0 -55 -57l-18 8q16 41 16 56.5t1.5 15.5t2.5 -0.5t4 -1.5q-32 15 -90.5 31.5t-74 25t-23.5 8.5h-457
q-99 0 -111 -49l-38 -86l-33 15l43 90q10 44 10 113t-33 430.5t-35 553.5q-2 20 -14.5 32t-60.5 28l6 20q60 -16 66.5 -16t10.5 1q12 1 19 17l25 31l10 27l2 8l-8 31q-5 14 -54.5 27.5t-75 13.5t-57.5 -62l-22 12q20 44 20 59.5t-18 35.5l-51 43q-22 16 -30.5 16t-74.5 -16
l-8 20q54 19 70 37t16 45v23q0 19 -55 71l6 6q55 -55 72 -55h4q13 0 23.5 18.5t25.5 51.5l8 -4q-25 -54 -25 -66t9 -22.5t16 -10.5h6q23 4 43 74l21 -6q-11 -35 -11 -59.5t50.5 -49t78.5 -24.5q21 0 52 63l18 -8q-25 -55 -25 -65q0 -23 49.5 -46.5t71.5 -23.5t33 12t29 51
l20 -8q-20 -44 -20 -61q4 12 66.5 21t92.5 9t42.5 13.5t29.5 56.5l21 -10q-21 -46 -21 -66.5t17 -29.5q13 -15 26 -15h225q1 0 5 4l4 -4q8 0 22 14t52.5 29t74 24.5t78 40t72.5 79.5l10 -9q-45 -67 -45 -102v-352q0 -36 35 -113l-9 -4q-31 70 -61 100l-98 84q-8 4 -11 9
q-14 -2 -26 -14.5t-35 -51.5l-14 8q28 52 28 76.5t-55 75.5z" />
    <glyph glyph-name="Ecircumflex" unicode="&#xca;" horiz-adv-x="1466" 
d="M759 1795l2 39v18l-6 14l2 2q-2 10 -22.5 34t-58.5 92t-52 89q-29 -29 -46.5 -66t-17.5 -57t41 -45l-59 -75q-32 22 -43 22q-29 0 -29 -82l-57 56l14 32l-4 4l10 7q13 30 52.5 185t60.5 212l-2 -4q0 2 -45 37l39 41q41 -27 45 -27l16 14q-4 18 -4 41l45 8q3 -14 6 -18
l11 16l41 -26q-17 -26 -17 -27v-4q53 -60 162 -315q13 -29 40 -56t60 -39l-26 -86q-40 15 -59 15t-25 -10.5t-12 -44.5zM775 1870l-6 -8l11 -18zM1083 1389q-44 65 -86 65l-297 -2q-15 0 -25.5 -38t-10.5 -97l6 -23q0 -2 11 -17t11 -77l-10 -145q0 -43 13 -92.5t36 -49.5
q3 0 46.5 18.5t74.5 18.5t47 -2q35 0 35 33v137q0 18 -18.5 30t-51.5 26l6 12q39 -25 59.5 -25t32 10t33.5 89l8 -3q-18 -60 -18 -84t28.5 -55t49.5 -31t80 27l10 -18q-46 -27 -58 -41t-12 -37v-4q-1 -9 28 -42t28 -63l-2 -55q0 -16 26 -31q1 0 51 -20l-8 -29l-53 21
q-6 2 -17 2t-28 -17l-21 -28q-4 -8 -4 -15l4 -39q0 -74 -34 -108q-27 -27 -29 -109h-16v21q0 63 -25 90q-67 69 -74 211q0 24 -20 24l-90 -14l-60 4q-22 0 -39.5 -45.5t-17.5 -77.5v-41q0 -157 4 -157q22 0 51 8l8 -29q-50 -12 -62.5 -25.5t-12.5 -39.5v-41q0 -31 30 -31
h156q26 0 39 13t25 63l28 -6q-8 -31 -8 -52q0 -33 61 -57.5t90 -24.5q48 0 50 29l8 47q12 74 141 88q31 3 96 60l11 -11q-65 -57 -71.5 -90.5t-24.5 -140.5t-27.5 -139.5t-9.5 -44.5l28 -82l-22 -6q-34 88 -29 83q-13 22 -27.5 25t-25 6.5t-23.5 3.5q-32 0 -55 -57l-18 8
q16 41 16 56.5t1.5 15.5t2.5 -0.5t4 -1.5q-32 15 -90.5 31.5t-74 25t-23.5 8.5h-457q-99 0 -111 -49l-38 -86l-33 15l43 90q10 44 10 113t-33 430.5t-35 553.5q-2 20 -14.5 32t-60.5 28l6 20q60 -16 66.5 -16t10.5 1q12 1 19 17l25 31l10 27l2 8l-8 31q-5 14 -54.5 27.5
t-75 13.5t-57.5 -62l-22 12q20 44 20 59.5t-18 35.5l-51 43q-22 16 -30.5 16t-74.5 -16l-8 20q54 19 70 37t16 45v23q0 19 -55 71l6 6q55 -55 72 -55h4q13 0 23.5 18.5t25.5 51.5l8 -4q-25 -54 -25 -66t9 -22.5t16 -10.5h6q23 4 43 74l21 -6q-11 -35 -11 -59.5t50.5 -49
t78.5 -24.5q21 0 52 63l18 -8q-25 -55 -25 -65q0 -23 49.5 -46.5t71.5 -23.5t33 12t29 51l20 -8q-20 -44 -20 -61q4 12 66.5 21t92.5 9t42.5 13.5t29.5 56.5l21 -10q-21 -46 -21 -66.5t17 -29.5q13 -15 26 -15h225q1 0 5 4l4 -4q8 0 22 14t52.5 29t74 24.5t78 40t72.5 79.5
l10 -9q-45 -67 -45 -102v-352q0 -36 35 -113l-9 -4q-31 70 -61 100l-98 84q-8 4 -11 9q-14 -2 -26 -14.5t-35 -51.5l-14 8q28 52 28 76.5t-55 75.5z" />
    <glyph glyph-name="Edieresis" unicode="&#xcb;" horiz-adv-x="1466" 
d="M858 1784l-22 22q-3 78 -80 78q-10 0 -49 -8l-2 90q79 9 92 19v2q25 31 25 63v41l69 2q2 -58 10.5 -71.5t20.5 -24.5v2q21 -21 61 -21h39l2 -65q-121 -6 -121 -94v-35h-45zM373 1888l-39 -2l-2 64q121 14 121 143h67q0 -58 11 -75t19.5 -27t10 -12t4.5 -4q10 -11 44 -33
q-60 -60 -60 -99q0 -18 10 -59l-75 -4q-9 55 -37 81.5t-62 26.5h-12zM1083 1389q-44 65 -86 65l-297 -2q-15 0 -25.5 -38t-10.5 -97l6 -23q0 -2 11 -17t11 -77l-10 -145q0 -43 13 -92.5t36 -49.5q3 0 46.5 18.5t74.5 18.5t47 -2q35 0 35 33v137q0 18 -18.5 30t-51.5 26l6 12
q39 -25 59.5 -25t32 10t33.5 89l8 -3q-18 -60 -18 -84t28.5 -55t49.5 -31t80 27l10 -18q-46 -27 -58 -41t-12 -37v-4q-1 -9 28 -42t28 -63l-2 -55q0 -16 26 -31q1 0 51 -20l-8 -29l-53 21q-6 2 -17 2t-28 -17l-21 -28q-4 -8 -4 -15l4 -39q0 -74 -34 -108q-27 -27 -29 -109
h-16v21q0 63 -25 90q-67 69 -74 211q0 24 -20 24l-90 -14l-60 4q-22 0 -39.5 -45.5t-17.5 -77.5v-41q0 -157 4 -157q22 0 51 8l8 -29q-50 -12 -62.5 -25.5t-12.5 -39.5v-41q0 -31 30 -31h156q26 0 39 13t25 63l28 -6q-8 -31 -8 -52q0 -33 61 -57.5t90 -24.5q48 0 50 29l8 47
q12 74 141 88q31 3 96 60l11 -11q-65 -57 -71.5 -90.5t-24.5 -140.5t-27.5 -139.5t-9.5 -44.5l28 -82l-22 -6q-34 88 -29 83q-13 22 -27.5 25t-25 6.5t-23.5 3.5q-32 0 -55 -57l-18 8q16 41 16 56.5t1.5 15.5t2.5 -0.5t4 -1.5q-32 15 -90.5 31.5t-74 25t-23.5 8.5h-457
q-99 0 -111 -49l-38 -86l-33 15l43 90q10 44 10 113t-33 430.5t-35 553.5q-2 20 -14.5 32t-60.5 28l6 20q60 -16 66.5 -16t10.5 1q12 1 19 17l25 31l10 27l2 8l-8 31q-5 14 -54.5 27.5t-75 13.5t-57.5 -62l-22 12q20 44 20 59.5t-18 35.5l-51 43q-22 16 -30.5 16t-74.5 -16
l-8 20q54 19 70 37t16 45v23q0 19 -55 71l6 6q55 -55 72 -55h4q13 0 23.5 18.5t25.5 51.5l8 -4q-25 -54 -25 -66t9 -22.5t16 -10.5h6q23 4 43 74l21 -6q-11 -35 -11 -59.5t50.5 -49t78.5 -24.5q21 0 52 63l18 -8q-25 -55 -25 -65q0 -23 49.5 -46.5t71.5 -23.5t33 12t29 51
l20 -8q-20 -44 -20 -61q4 12 66.5 21t92.5 9t42.5 13.5t29.5 56.5l21 -10q-21 -46 -21 -66.5t17 -29.5q13 -15 26 -15h225q1 0 5 4l4 -4q8 0 22 14t52.5 29t74 24.5t78 40t72.5 79.5l10 -9q-45 -67 -45 -102v-352q0 -36 35 -113l-9 -4q-31 70 -61 100l-98 84q-8 4 -11 9
q-14 -2 -26 -14.5t-35 -51.5l-14 8q28 52 28 76.5t-55 75.5z" />
    <glyph glyph-name="Igrave" unicode="&#xcc;" horiz-adv-x="808" 
d="M128 1934q0 10 -30.5 33t-30.5 33q0 15 -37.5 35t-74.5 39t-37 34q0 73 -130 133q0 7 -21 9l-84 -2q-12 -17 -29 -17q-10 0 -31 -62l-20 8q7 44 7 98q-11 79 -59 122q-10 12 -10 20l-49 35l18 19l46 -33q0 47 46 47l31 -1q-15 0 -19 185l13 9q51 -48 51 -64q0 -6 32 -16
l153 -111h-3l-1 -18q90 -66 90 -156q10 -33 160 -85q11 2 109 7l3 -13q-54 -27 -87 -32q8 -8 10 -36l44 -39q-8 -15 115 -15q1 0 16 23t39 73l36 -17q-40 -83 -40 -137q6 -22 43.5 -57t46.5 -35l45 -35l-80 -156l-52 29q-52 30 -104 71.5t-52 64.5zM474 84l-2 14
q-6 0 -52 -4v10l46 5q-17 22 -39 22h-111q-16 0 -81.5 -45.5t-65.5 -71.5l-17 -59l-28 8l20 55q0 44 86 159q29 38 29 54l-15 1194q0 17 -29.5 32t-33 31.5t-33 29t-47 12.5t-57.5 -51l-17 12q37 43 37 74q0 26 -102 73l2 4q71 -32 98 -32h80q26 0 42 13t36 60l26 -10
q-18 -47 -18 -72.5t32.5 -44t69.5 -18.5h150l41 57l14 -14q6 6 6 23.5t-24 66.5l20 10q23 -47 36 -59t34 -12h39q8 0 42 35.5t34 46.5t-17 63l10 4q16 -48 23.5 -59.5t17.5 -11.5h6q20 0 93 28l2 -4q-69 -25 -88 -41l-27 -24q-8 -9 -8.5 -28t-6.5 -36.5t-18 -25.5
q-19 -13 -38.5 -16.5t-55 -14.5t-49.5 -15l6 -38q2 -19 17 -26t57 -7v-47q-49 0 -64 -15q0 -6 1 -18.5t1 -20.5l-4 37q-10 -10 -10 -47l14 -313q0 -99 -11 -291t-12 -240.5t10 -63.5t54 -44l-10 -17q-53 35 -82 35t-29 -28v-88q0 -27 66 -44.5t66 -46.5l-3 -8q0 -9 15 -37
t18 -37q11 -41 66 -96l-8 -10q-64 64 -97 72h-2l-6 2q-41 0 -41 -99l-24 2q0 39 -16.5 75t-49.5 44l-20 -37q6 14 6 25zM595 1272q-8 40 -11 67z" />
    <glyph glyph-name="Iacute" unicode="&#xcd;" horiz-adv-x="808" 
d="M891 2300l27 96l17 -9l-11 -45q2 -41 10 -41l58 -37q30 0 44 2l6 75l16 1q7 -91 8 -98l14 -27q6 -10 10 -10q33 0 95 23l5 -13q-71 -34 -71 -46l-4 -20q1 -16 58 -64l-14 -26q-44 44 -54 44q-30 0 -74 -13.5t-44 -26.5q0 -24 24 -73l-19 -11q-27 56 -43 56
q-85 0 -134 -15q-20 -7 -20 -13.5t-4 -10.5l-11 -24q0 -28 7.5 -43.5t35.5 -35.5l-16 -16q-34 37 -45 37q-51 0 -150.5 -60t-113 -64.5t-26.5 -8t-13 -7.5l-125 -12q0 -5 -0.5 -5t-3.5 5q-26 47 -57 47q6 0 9 102q110 30 287 133q57 34 91.5 42t76.5 63.5t42 88t-20 88.5
l19 8q33 -66 47 -66l29 -6q14 4 23 8q4 1 7 4t5 4.5t2 9.5v10zM474 84l-2 14q-6 0 -52 -4v10l46 5q-17 22 -39 22h-111q-16 0 -81.5 -45.5t-65.5 -71.5l-17 -59l-28 8l20 55q0 44 86 159q29 38 29 54l-15 1194q0 17 -29.5 32t-33 31.5t-33 29t-47 12.5t-57.5 -51l-17 12
q37 43 37 74q0 26 -102 73l2 4q71 -32 98 -32h80q26 0 42 13t36 60l26 -10q-18 -47 -18 -72.5t32.5 -44t69.5 -18.5h150l41 57l14 -14q6 6 6 23.5t-24 66.5l20 10q23 -47 36 -59t34 -12h39q8 0 42 35.5t34 46.5t-17 63l10 4q16 -48 23.5 -59.5t17.5 -11.5h6q20 0 93 28l2 -4
q-69 -25 -88 -41l-27 -24q-8 -9 -8.5 -28t-6.5 -36.5t-18 -25.5q-19 -13 -38.5 -16.5t-55 -14.5t-49.5 -15l6 -38q2 -19 17 -26t57 -7v-47q-49 0 -64 -15q0 -6 1 -18.5t1 -20.5l-4 37q-10 -10 -10 -47l14 -313q0 -99 -11 -291t-12 -240.5t10 -63.5t54 -44l-10 -17
q-53 35 -82 35t-29 -28v-88q0 -27 66 -44.5t66 -46.5l-3 -8q0 -9 15 -37t18 -37q11 -41 66 -96l-8 -10q-64 64 -97 72h-2l-6 2q-41 0 -41 -99l-24 2q0 39 -16.5 75t-49.5 44l-20 -37q6 14 6 25zM595 1272q-8 40 -11 67z" />
    <glyph glyph-name="Icircumflex" unicode="&#xce;" horiz-adv-x="808" 
d="M490 1774l2 39v18l-6 14l2 2q-2 10 -22.5 34t-58.5 92t-52 89q-29 -29 -46.5 -66t-17.5 -57t41 -45l-59 -75q-32 22 -43 22q-29 0 -29 -82l-57 56l14 32l-4 4l10 7q13 30 52.5 185t60.5 212l-2 -4q0 2 -45 37l39 41q41 -27 45 -27l16 14q-4 18 -4 41l45 8q3 -14 6 -18
l11 16l41 -26q-17 -26 -17 -27v-4q53 -60 162 -315q13 -29 40 -56t60 -39l-26 -86q-40 15 -59 15t-25 -10.5t-12 -44.5zM506 1849l-6 -8l11 -18zM474 84l-2 14q-6 0 -52 -4v10l46 5q-17 22 -39 22h-111q-16 0 -81.5 -45.5t-65.5 -71.5l-17 -59l-28 8l20 55q0 44 86 159
q29 38 29 54l-15 1194q0 17 -29.5 32t-33 31.5t-33 29t-47 12.5t-57.5 -51l-17 12q37 43 37 74q0 26 -102 73l2 4q71 -32 98 -32h80q26 0 42 13t36 60l26 -10q-18 -47 -18 -72.5t32.5 -44t69.5 -18.5h150l41 57l14 -14q6 6 6 23.5t-24 66.5l20 10q23 -47 36 -59t34 -12h39
q8 0 42 35.5t34 46.5t-17 63l10 4q16 -48 23.5 -59.5t17.5 -11.5h6q20 0 93 28l2 -4q-69 -25 -88 -41l-27 -24q-8 -9 -8.5 -28t-6.5 -36.5t-18 -25.5q-19 -13 -38.5 -16.5t-55 -14.5t-49.5 -15l6 -38q2 -19 17 -26t57 -7v-47q-49 0 -64 -15q0 -6 1 -18.5t1 -20.5l-4 37
q-10 -10 -10 -47l14 -313q0 -99 -11 -291t-12 -240.5t10 -63.5t54 -44l-10 -17q-53 35 -82 35t-29 -28v-88q0 -27 66 -44.5t66 -46.5l-3 -8q0 -9 15 -37t18 -37q11 -41 66 -96l-8 -10q-64 64 -97 72h-2l-6 2q-41 0 -41 -99l-24 2q0 39 -16.5 75t-49.5 44l-20 -37q6 14 6 25z
M595 1272q-8 40 -11 67z" />
    <glyph glyph-name="Idieresis" unicode="&#xcf;" horiz-adv-x="808" 
d="M579 1885l-22 22q-3 78 -80 78q-10 0 -49 -8l-2 90q79 9 92 19v2q25 31 25 63v41l69 2q2 -58 10.5 -71.5t20.5 -24.5v2q21 -21 61 -21h39l2 -65q-121 -6 -121 -94v-35h-45zM94 1989l-39 -2l-2 64q121 14 121 143h67q0 -58 11 -75t19.5 -27t10 -12t4.5 -4q10 -11 44 -33
q-60 -60 -60 -99q0 -18 10 -59l-75 -4q-9 55 -37 81.5t-62 26.5h-12zM474 84l-2 14q-6 0 -52 -4v10l46 5q-17 22 -39 22h-111q-16 0 -81.5 -45.5t-65.5 -71.5l-17 -59l-28 8l20 55q0 44 86 159q29 38 29 54l-15 1194q0 17 -29.5 32t-33 31.5t-33 29t-47 12.5t-57.5 -51
l-17 12q37 43 37 74q0 26 -102 73l2 4q71 -32 98 -32h80q26 0 42 13t36 60l26 -10q-18 -47 -18 -72.5t32.5 -44t69.5 -18.5h150l41 57l14 -14q6 6 6 23.5t-24 66.5l20 10q23 -47 36 -59t34 -12h39q8 0 42 35.5t34 46.5t-17 63l10 4q16 -48 23.5 -59.5t17.5 -11.5h6
q20 0 93 28l2 -4q-69 -25 -88 -41l-27 -24q-8 -9 -8.5 -28t-6.5 -36.5t-18 -25.5q-19 -13 -38.5 -16.5t-55 -14.5t-49.5 -15l6 -38q2 -19 17 -26t57 -7v-47q-49 0 -64 -15q0 -6 1 -18.5t1 -20.5l-4 37q-10 -10 -10 -47l14 -313q0 -99 -11 -291t-12 -240.5t10 -63.5t54 -44
l-10 -17q-53 35 -82 35t-29 -28v-88q0 -27 66 -44.5t66 -46.5l-3 -8q0 -9 15 -37t18 -37q11 -41 66 -96l-8 -10q-64 64 -97 72h-2l-6 2q-41 0 -41 -99l-24 2q0 39 -16.5 75t-49.5 44l-20 -37q6 14 6 25zM595 1272q-8 40 -11 67z" />
    <glyph glyph-name="Eth" unicode="&#xd0;" horiz-adv-x="1377" 
d="M244 692l2 17q0 6 -8.5 20.5t-15.5 34.5q-92 -2 -140 -2q2 -2 2 -4q0 -1 2 0l-15 -18q-6 -6 -9 -10l-34 26q22 34 22 36l-2 6h-16v42q-3 -6 -18 -6h-10v48h16q9 0 12 -8v12q0 8 -52 38l26 50q48 -27 48 -32v-2q51 32 79.5 32t98.5 -2l28 101q0 12 -2 19l-10 18
q-14 25 -36.5 25t-57.5 -5l-3 23q49 7 64 16.5t20 28.5q11 55 11 102t-19.5 104.5t-50.5 57.5q-8 0 -12 -2l-88 -37q-35 -15 -90 -78l-9 9q60 63 69 96.5t57 84t48 70.5t-14 66l19 6q17 -49 28.5 -62.5t27 -15t42 -4t42.5 -4.5q50 -6 95.5 -19.5t149.5 -39t166 -42
t145 -42.5q162 -52 299 -137q9 -6 26.5 -6t65.5 32l10 -16q-38 -25 -50.5 -37t-12.5 -26t33.5 -42.5t40 -46t42.5 -35.5t64 -18t72 6l2 -12q-119 -15 -119 -61q0 -9 4 -17q49 -88 49 -250q0 -143 -100 -272q-43 -56 -93.5 -118t-93.5 -116q-100 -124 -100 -256l-16 2l4 68
q0 66 -9 100.5t-38 34.5l-64 -12q-15 -5 -95.5 -15.5t-115.5 -41.5l-6 -25q0 12 -2 18q-3 -2 -35 -34l-8 6q28 30 37 43q-8 14 -20 28q-9 -1 -14 -4q-12 -9 -25 -73l-15 4q8 37 8 60t-28 33.5t-58 10.5q-115 0 -198.5 -52t-83.5 -126l-23 8l17 66q0 20 14 58t14 58t-59 52
l12 18q44 -24 59 -24t29 14l21 29q4 4 4 13t-2 13q-41 95 -41 273zM489 459l-14 -70q0 -43 14 -43l7 4q30 0 38.5 20.5t8.5 73.5h22q4 -68 27 -79q12 0 33 13t36 13l48 -8q18 0 28 20t38.5 42t55.5 37t48.5 35.5t21.5 39.5t-41 59l21 23q38 -39 55 -39t35 16l18 17q5 5 7 13
t4.5 21.5t3.5 17.5t4 12.5t6 10.5q15 16 39 25q11 6 14 21l12 63q0 10 -4.5 19.5t-10.5 48.5q-16 96 -44 96l-76 -23l-18 70q56 11 68 33q4 6 7 14v2q-56 110 -162.5 197.5t-207.5 87.5q-27 0 -27 -19l4 -28q0 -25 -20.5 -110t-20.5 -93q0 -23 62 -53l-11 -17q-45 25 -64 25
t-32.5 -23.5t-13.5 -46.5t15 -33h83q77 0 108 66l90 -48q-14 -24 -14 -38l32 12v-60l-28 -8q8 -19 18 -34l-34 -24l42 -24l-4 -64l-60 26v-8q0 -13 12 -44l-72 -18q-16 55 -52 66q-31 9 -61 6.5t-37 -2.5h-59l-6 -27l-2 -6l17 -57l-19 -94z" />
    <glyph glyph-name="Ntilde" unicode="&#xd1;" horiz-adv-x="1494" 
d="M498 1936l-2 11l-2 2q0 -2 -21 -2h-41v55q61 2 64 10l10 21q6 9 6 16t-43 47l60 41q37 -33 43 -33t12 6q88 43 162 43q14 0 88.5 -23t101.5 -36q63 12 121 45.5t94 77.5l62 -45q-41 -50 -56 -86q3 -3 45 -31l-37 -61q-29 21 -53 24q-13 -3 -30 -20q-32 -21 -80.5 -36
t-91 -15t-121 21.5t-100 21.5t-56.5 -7l-33 -8l-51 -49v-2q0 -18 -6 -57h-55q10 53 10 69zM531 924q0 25 -72 39q-15 0 -43 -21q-6 -282 -6 -317v-148q0 -40 60 -49q22 -4 55 -7t45 -6t33.5 -3t78.5 28l9 -16q-111 -53 -111 -113v-45q0 -33 45 -106l-10 -6q-34 50 -47 62
q-21 21 -49 30q-23 0 -56 -21l-35 8q-6 -6 -6 -18.5t17 -62.5l-11 -5q-22 61 -28 66.5t-12 5.5h-23l-35 -2q0 -20 11.5 -37.5t50.5 -50.5l-11 -14q-59 49 -84 49q-2 0 -6 -1t-6 -1l2 2q-24 -5 -24 -34t49 -83l-15 -10q-33 39 -50.5 50t-37.5 11h-47q-27 0 -82 -57l-10 10
q57 55 57 82v37q0 50 10 61t22 15.5t24.5 48.5t18.5 85l5 42l6 2q11 -41 37 -41q10 0 18.5 7t8.5 20q8 240 8 263.5t-2.5 43t-11.5 39.5q-17 37 -82 37l-4 43q51 4 64.5 19.5t13.5 51.5l4 189q0 120 -27 204t-86 154q-9 6 -16 6t-11 -1t-8 -4t-6.5 -5t-6.5 -6.5t-10.5 -9.5
t-39.5 -78h-4q32 67 32 90q0 16 -71 39l2 12l67 -16q19 0 34.5 41.5t15.5 68.5t-52 86l15 13q35 -40 51 -50t39 -10h26q18 0 27 4q23 8 23 72h32q0 -33 3.5 -43t4.5 -15.5t7.5 -9.5t7.5 -6q4 -4 19 -4h30q21 0 35.5 11.5t40.5 56.5l18 -10q-33 -54 -32 -76.5t6 -22.5
q1 -4 22 -11q59 -18 59 -56l-2 -15q0 -5 98 -139t171 -223q15 -15 29.5 -15t66.5 19l8 -21q-46 -18 -59 -31t-13 -32v-64q0 -10 5 -13q10 -7 12 -9q16 -8 26 -47t28.5 -70t32.5 -48t32 -17q51 0 51 110l-8 125q0 26 13 78t13 78l-12 190l-12 51q-11 43 -178 43
q-68 0 -152 -51l-8 13q76 47 96 86q4 7 43 56.5t39 74.5t-35 77l19 11q25 -42 41.5 -55t41.5 -13t38.5 13t23.5 63l35 -6q-6 -32 -6 -47q0 -37 78 -62q126 -39 317 -39q32 0 104 33l4 -10q-80 -37 -100 -64q-4 -5 -24.5 -28.5t-28 -32.5t-24 -30t-23.5 -34q-22 -41 -25 -63
l39 -100q-8 24 -47 24q-90 0 -90 -39v-53q0 -68 -10.5 -92t-15.5 -33.5t-5 -13.5l-6 -437q0 -23 72 -36l-4 -17q-54 8 -56 8q-34 0 -34 -61q0 -13 1 -59.5t-1 -69.5q-13 -11 -13 -25l4 -49q0 -94 -8 -116.5t-8 -39t31 -69.5l-13 -6q-8 7 -19.5 18t-16.5 15.5t-13 12
t-11.5 10t-9.5 7t-10 6.5q-8 5 -18 7h4q-6 2 -16 2q-25 0 -66 -54l-16 13q39 47 39 66.5t-15.5 38t-33.5 18.5t-60 -19l-12 25q63 28 63 55q0 38 -18.5 101.5t-38.5 97.5q4 -8 4 -13q0 -19 -57 -47l-17 31q21 11 27 14.5l12 7t9 6.5q6 8 6 15.5t-16 33.5q-42 71 -119 144
q-17 19 -35 19t-60 -15l-6 21q70 21 74 47v4q-2 8 -14 20q-39 22 -74 61.5t-41 76.5z" />
    <glyph glyph-name="Ograve" unicode="&#xd2;" horiz-adv-x="1285" 
d="M379 1889q0 10 -30.5 33t-30.5 33q0 15 -37.5 35t-74.5 39t-37 34q0 73 -130 133q0 7 -21 9l-84 -2q-12 -17 -29 -17q-10 0 -31 -62l-20 8q7 44 7 98q-11 79 -59 122q-10 12 -10 20l-49 35l18 19l46 -33q0 47 46 47l31 -1q-15 0 -19 185l13 9q51 -48 51 -64q0 -6 32 -16
l153 -111h-3l-1 -18q90 -66 90 -156q10 -33 160 -85q11 2 109 7l3 -13q-54 -27 -87 -32q8 -8 10 -36l44 -39q-8 -15 115 -15q1 0 16 23t39 73l36 -17q-40 -83 -40 -137q6 -22 43.5 -57t46.5 -35l45 -35l-80 -156l-52 29q-52 30 -104 71.5t-52 64.5zM206 530q69 32 72 54
q-2 7 -15 20q-55 42 -59 144q0 10 -6 16q-51 39 -66.5 82t-20.5 79q-7 50 -7 119q0 226 -105 293l86 131q33 -26 101.5 -26t117.5 18q2 69 63 98q29 13 59 21q97 26 149.5 50t87.5 24q98 0 203 -67.5t149 -162.5q26 -49 110 -105q72 -47 72 -124q0 -29 16 -58.5t42.5 -29.5
t58.5 12l8 -24q-45 -15 -58.5 -26.5t-13.5 -29.5l19 -211q0 -65 -45 -175q-53 -133 -53 -159.5t13 -39t52 -31.5l-10 -21q-46 21 -64.5 21t-27 -10t-35 -39t-33.5 -36.5t-30 -31.5t-34.5 -35.5t-30.5 -31.5q-25 -25 -55 -51t-30 -44.5t16 -62.5l-20 -8q-18 48 -29.5 60.5
t-32.5 12.5h-6q-28 0 -44.5 -13.5t-33.5 -61.5l-30 12q14 41 14 66t-23 38t-52 15q-81 6 -109 61q-2 5 -10 20q-17 27 -23 54q-35 5 -116 36t-116 44l39 -13q12 -4 24.5 -4t25 12t12.5 31.5t-35.5 56t-53 36.5t-69.5 -21zM403 1149q-19 0 -19 -25v-90q0 -35 36 -123
q108 -269 112 -354q0 -6 4 -14l22 -29q16 -22 35 -22t57 22l19 -27q-53 -31 -53 -55q0 -13 4.5 -20.5t6.5 -13.5t2.5 -8.5t3 -6.5t5.5 -5q9 -5 18 -5h13q22 0 37 -12.5t18 -12.5h55q9 0 11 2l32 17q2 1 16 29q48 97 62 113t16.5 46t12.5 37q7 14 12.5 52t15 51t9.5 20v227
q0 125 -66 125q-22 0 -37 -2l-4 25q47 7 60.5 16.5t15.5 28.5q-2 5 -13.5 18t-11.5 31l2 28q0 9 -15 25.5t-47.5 83t-57.5 94.5q-22 -12 -27 -67l-43 4q2 10 2 32q0 64 -80 64q-9 0 -50.5 -16.5t-44 -19.5t-11.5 -19l-14 -24q-13 -24 -13 -44t59 -53l-10 -17
q-50 27 -64.5 27t-27 -18.5t-20.5 -41.5q-20 -62 -45 -73zM241 428l24 -10zM265 418q4 0 6 -2z" />
    <glyph glyph-name="Oacute" unicode="&#xd3;" horiz-adv-x="1285" 
d="M1142 2255l27 96l17 -9l-11 -45q2 -41 10 -41l58 -37q30 0 44 2l6 75l16 1q7 -91 8 -98l14 -27q6 -10 10 -10q33 0 95 23l5 -13q-71 -34 -71 -46l-4 -20q1 -16 58 -64l-14 -26q-44 44 -54 44q-30 0 -74 -13.5t-44 -26.5q0 -24 24 -73l-19 -11q-27 56 -43 56
q-85 0 -134 -15q-20 -7 -20 -13.5t-4 -10.5l-11 -24q0 -28 7.5 -43.5t35.5 -35.5l-16 -16q-34 37 -45 37q-51 0 -150.5 -60t-113 -64.5t-26.5 -8t-13 -7.5l-125 -12q0 -5 -0.5 -5t-3.5 5q-26 47 -57 47q6 0 9 102q110 30 287 133q57 34 91.5 42t76.5 63.5t42 88t-20 88.5
l19 8q33 -66 47 -66l29 -6q14 4 23 8q4 1 7 4t5 4.5t2 9.5v10zM206 530q69 32 72 54q-2 7 -15 20q-55 42 -59 144q0 10 -6 16q-51 39 -66.5 82t-20.5 79q-7 50 -7 119q0 226 -105 293l86 131q33 -26 101.5 -26t117.5 18q2 69 63 98q29 13 59 21q97 26 149.5 50t87.5 24
q98 0 203 -67.5t149 -162.5q26 -49 110 -105q72 -47 72 -124q0 -29 16 -58.5t42.5 -29.5t58.5 12l8 -24q-45 -15 -58.5 -26.5t-13.5 -29.5l19 -211q0 -65 -45 -175q-53 -133 -53 -159.5t13 -39t52 -31.5l-10 -21q-46 21 -64.5 21t-27 -10t-35 -39t-33.5 -36.5t-30 -31.5
t-34.5 -35.5t-30.5 -31.5q-25 -25 -55 -51t-30 -44.5t16 -62.5l-20 -8q-18 48 -29.5 60.5t-32.5 12.5h-6q-28 0 -44.5 -13.5t-33.5 -61.5l-30 12q14 41 14 66t-23 38t-52 15q-81 6 -109 61q-2 5 -10 20q-17 27 -23 54q-35 5 -116 36t-116 44l39 -13q12 -4 24.5 -4t25 12
t12.5 31.5t-35.5 56t-53 36.5t-69.5 -21zM403 1149q-19 0 -19 -25v-90q0 -35 36 -123q108 -269 112 -354q0 -6 4 -14l22 -29q16 -22 35 -22t57 22l19 -27q-53 -31 -53 -55q0 -13 4.5 -20.5t6.5 -13.5t2.5 -8.5t3 -6.5t5.5 -5q9 -5 18 -5h13q22 0 37 -12.5t18 -12.5h55
q9 0 11 2l32 17q2 1 16 29q48 97 62 113t16.5 46t12.5 37q7 14 12.5 52t15 51t9.5 20v227q0 125 -66 125q-22 0 -37 -2l-4 25q47 7 60.5 16.5t15.5 28.5q-2 5 -13.5 18t-11.5 31l2 28q0 9 -15 25.5t-47.5 83t-57.5 94.5q-22 -12 -27 -67l-43 4q2 10 2 32q0 64 -80 64
q-9 0 -50.5 -16.5t-44 -19.5t-11.5 -19l-14 -24q-13 -24 -13 -44t59 -53l-10 -17q-50 27 -64.5 27t-27 -18.5t-20.5 -41.5q-20 -62 -45 -73zM241 428l24 -10zM265 418q4 0 6 -2z" />
    <glyph glyph-name="Ocircumflex" unicode="&#xd4;" horiz-adv-x="1285" 
d="M650 1790l2 39v18l-6 14l2 2q-2 10 -22.5 34t-58.5 92t-52 89q-29 -29 -46.5 -66t-17.5 -57t41 -45l-59 -75q-32 22 -43 22q-29 0 -29 -82l-57 56l14 32l-4 4l10 7q13 30 52.5 185t60.5 212l-2 -4q0 2 -45 37l39 41q41 -27 45 -27l16 14q-4 18 -4 41l45 8q3 -14 6 -18
l11 16l41 -26q-17 -26 -17 -27v-4q53 -60 162 -315q13 -29 40 -56t60 -39l-26 -86q-40 15 -59 15t-25 -10.5t-12 -44.5zM666 1865l-6 -8l11 -18zM206 530q69 32 72 54q-2 7 -15 20q-55 42 -59 144q0 10 -6 16q-51 39 -66.5 82t-20.5 79q-7 50 -7 119q0 226 -105 293l86 131
q33 -26 101.5 -26t117.5 18q2 69 63 98q29 13 59 21q97 26 149.5 50t87.5 24q98 0 203 -67.5t149 -162.5q26 -49 110 -105q72 -47 72 -124q0 -29 16 -58.5t42.5 -29.5t58.5 12l8 -24q-45 -15 -58.5 -26.5t-13.5 -29.5l19 -211q0 -65 -45 -175q-53 -133 -53 -159.5t13 -39
t52 -31.5l-10 -21q-46 21 -64.5 21t-27 -10t-35 -39t-33.5 -36.5t-30 -31.5t-34.5 -35.5t-30.5 -31.5q-25 -25 -55 -51t-30 -44.5t16 -62.5l-20 -8q-18 48 -29.5 60.5t-32.5 12.5h-6q-28 0 -44.5 -13.5t-33.5 -61.5l-30 12q14 41 14 66t-23 38t-52 15q-81 6 -109 61
q-2 5 -10 20q-17 27 -23 54q-35 5 -116 36t-116 44l39 -13q12 -4 24.5 -4t25 12t12.5 31.5t-35.5 56t-53 36.5t-69.5 -21zM403 1149q-19 0 -19 -25v-90q0 -35 36 -123q108 -269 112 -354q0 -6 4 -14l22 -29q16 -22 35 -22t57 22l19 -27q-53 -31 -53 -55q0 -13 4.5 -20.5
t6.5 -13.5t2.5 -8.5t3 -6.5t5.5 -5q9 -5 18 -5h13q22 0 37 -12.5t18 -12.5h55q9 0 11 2l32 17q2 1 16 29q48 97 62 113t16.5 46t12.5 37q7 14 12.5 52t15 51t9.5 20v227q0 125 -66 125q-22 0 -37 -2l-4 25q47 7 60.5 16.5t15.5 28.5q-2 5 -13.5 18t-11.5 31l2 28
q0 9 -15 25.5t-47.5 83t-57.5 94.5q-22 -12 -27 -67l-43 4q2 10 2 32q0 64 -80 64q-9 0 -50.5 -16.5t-44 -19.5t-11.5 -19l-14 -24q-13 -24 -13 -44t59 -53l-10 -17q-50 27 -64.5 27t-27 -18.5t-20.5 -41.5q-20 -62 -45 -73zM241 428l24 -10zM265 418q4 0 6 -2z" />
    <glyph glyph-name="Otilde" unicode="&#xd5;" horiz-adv-x="1285" 
d="M405 1844l-2 11l-2 2q0 -2 -21 -2h-41v55q61 2 64 10l10 21q6 9 6 16t-43 47l60 41q37 -33 43 -33t12 6q88 43 162 43q14 0 88.5 -23t101.5 -36q63 12 121 45.5t94 77.5l62 -45q-41 -50 -56 -86q3 -3 45 -31l-37 -61q-29 21 -53 24q-13 -3 -30 -20q-32 -21 -80.5 -36
t-91 -15t-121 21.5t-100 21.5t-56.5 -7l-33 -8l-51 -49v-2q0 -18 -6 -57h-55q10 53 10 69zM206 530q69 32 72 54q-2 7 -15 20q-55 42 -59 144q0 10 -6 16q-51 39 -66.5 82t-20.5 79q-7 50 -7 119q0 226 -105 293l86 131q33 -26 101.5 -26t117.5 18q2 69 63 98q29 13 59 21
q97 26 149.5 50t87.5 24q98 0 203 -67.5t149 -162.5q26 -49 110 -105q72 -47 72 -124q0 -29 16 -58.5t42.5 -29.5t58.5 12l8 -24q-45 -15 -58.5 -26.5t-13.5 -29.5l19 -211q0 -65 -45 -175q-53 -133 -53 -159.5t13 -39t52 -31.5l-10 -21q-46 21 -64.5 21t-27 -10t-35 -39
t-33.5 -36.5t-30 -31.5t-34.5 -35.5t-30.5 -31.5q-25 -25 -55 -51t-30 -44.5t16 -62.5l-20 -8q-18 48 -29.5 60.5t-32.5 12.5h-6q-28 0 -44.5 -13.5t-33.5 -61.5l-30 12q14 41 14 66t-23 38t-52 15q-81 6 -109 61q-2 5 -10 20q-17 27 -23 54q-35 5 -116 36t-116 44l39 -13
q12 -4 24.5 -4t25 12t12.5 31.5t-35.5 56t-53 36.5t-69.5 -21zM403 1149q-19 0 -19 -25v-90q0 -35 36 -123q108 -269 112 -354q0 -6 4 -14l22 -29q16 -22 35 -22t57 22l19 -27q-53 -31 -53 -55q0 -13 4.5 -20.5t6.5 -13.5t2.5 -8.5t3 -6.5t5.5 -5q9 -5 18 -5h13
q22 0 37 -12.5t18 -12.5h55q9 0 11 2l32 17q2 1 16 29q48 97 62 113t16.5 46t12.5 37q7 14 12.5 52t15 51t9.5 20v227q0 125 -66 125q-22 0 -37 -2l-4 25q47 7 60.5 16.5t15.5 28.5q-2 5 -13.5 18t-11.5 31l2 28q0 9 -15 25.5t-47.5 83t-57.5 94.5q-22 -12 -27 -67l-43 4
q2 10 2 32q0 64 -80 64q-9 0 -50.5 -16.5t-44 -19.5t-11.5 -19l-14 -24q-13 -24 -13 -44t59 -53l-10 -17q-50 27 -64.5 27t-27 -18.5t-20.5 -41.5q-20 -62 -45 -73zM241 428l24 -10zM265 418q4 0 6 -2z" />
    <glyph glyph-name="Odieresis" unicode="&#xd6;" horiz-adv-x="1285" 
d="M831 1779l-22 22q-3 78 -80 78q-10 0 -49 -8l-2 90q79 9 92 19v2q25 31 25 63v41l69 2q2 -58 10.5 -71.5t20.5 -24.5v2q21 -21 61 -21h39l2 -65q-121 -6 -121 -94v-35h-45zM346 1883l-39 -2l-2 64q121 14 121 143h67q0 -58 11 -75t19.5 -27t10 -12t4.5 -4q10 -11 44 -33
q-60 -60 -60 -99q0 -18 10 -59l-75 -4q-9 55 -37 81.5t-62 26.5h-12zM206 530q69 32 72 54q-2 7 -15 20q-55 42 -59 144q0 10 -6 16q-51 39 -66.5 82t-20.5 79q-7 50 -7 119q0 226 -105 293l86 131q33 -26 101.5 -26t117.5 18q2 69 63 98q29 13 59 21q97 26 149.5 50
t87.5 24q98 0 203 -67.5t149 -162.5q26 -49 110 -105q72 -47 72 -124q0 -29 16 -58.5t42.5 -29.5t58.5 12l8 -24q-45 -15 -58.5 -26.5t-13.5 -29.5l19 -211q0 -65 -45 -175q-53 -133 -53 -159.5t13 -39t52 -31.5l-10 -21q-46 21 -64.5 21t-27 -10t-35 -39t-33.5 -36.5
t-30 -31.5t-34.5 -35.5t-30.5 -31.5q-25 -25 -55 -51t-30 -44.5t16 -62.5l-20 -8q-18 48 -29.5 60.5t-32.5 12.5h-6q-28 0 -44.5 -13.5t-33.5 -61.5l-30 12q14 41 14 66t-23 38t-52 15q-81 6 -109 61q-2 5 -10 20q-17 27 -23 54q-35 5 -116 36t-116 44l39 -13q12 -4 24.5 -4
t25 12t12.5 31.5t-35.5 56t-53 36.5t-69.5 -21zM403 1149q-19 0 -19 -25v-90q0 -35 36 -123q108 -269 112 -354q0 -6 4 -14l22 -29q16 -22 35 -22t57 22l19 -27q-53 -31 -53 -55q0 -13 4.5 -20.5t6.5 -13.5t2.5 -8.5t3 -6.5t5.5 -5q9 -5 18 -5h13q22 0 37 -12.5t18 -12.5h55
q9 0 11 2l32 17q2 1 16 29q48 97 62 113t16.5 46t12.5 37q7 14 12.5 52t15 51t9.5 20v227q0 125 -66 125q-22 0 -37 -2l-4 25q47 7 60.5 16.5t15.5 28.5q-2 5 -13.5 18t-11.5 31l2 28q0 9 -15 25.5t-47.5 83t-57.5 94.5q-22 -12 -27 -67l-43 4q2 10 2 32q0 64 -80 64
q-9 0 -50.5 -16.5t-44 -19.5t-11.5 -19l-14 -24q-13 -24 -13 -44t59 -53l-10 -17q-50 27 -64.5 27t-27 -18.5t-20.5 -41.5q-20 -62 -45 -73zM241 428l24 -10zM265 418q4 0 6 -2z" />
    <glyph glyph-name="multiply" unicode="&#xd7;" horiz-adv-x="775" 
d="M1 629l-5 17q0 5 -10 5h-51v58q45 3 48 4q-9 26 -35 53l51 51q40 -43 70 -43l71 6l152 -6l16 31q12 25 15 22v91q0 32 -68 45l14 81q8 -2 32 -2t37 18t13 75h64q0 -37 2 -50l6 -4l-4 -6q6 -31 20 -45l8 -16q13 -15 15 -15l-2 2q0 3 61 23l4 -61q-47 -16 -47 -23v-164h137
q21 0 31 2l-22 15l26 38q84 -53 117.5 -53t65.5 15l49 -99q-45 -23 -60 -49q7 -16 39 -45l-51 -53q-41 41 -72 41l-159 -13q-66 0 -101 5v-5l2 -124v-29q0 -96 51 -164l-71 -53q-31 38 -78 61q-12 -6 -47 -33l-47 48q22 22 28 32l5 23l8 -2q4 8 4 24l-2 25l2 178
q-7 2 -25 12.5t-41 10.5h-149q-5 0 -17 3t-19 1q-20 -4 -61 -56l-53 31q33 51 33 66z" />
    <glyph glyph-name="Oslash" unicode="&#xd8;" horiz-adv-x="1294" 
d="M366 73l-2 9q-1 2 -7 10.5t-14.5 11t-32 2.5h-26.5v60q65 0 67 8q38 56 87 178q-21 8 -77.5 29.5t-91.5 34.5l39 -13q12 -4 24.5 -4t25 12t12.5 31.5t-35.5 56t-53 36.5t-69.5 -21l-8 16q69 32 72 54q-2 7 -15 20q-55 42 -59 144q0 10 -6 16q-51 39 -66.5 82t-20.5 79
q-7 50 -7 119q0 226 -105 293l86 131q33 -26 101.5 -26t117.5 18q2 69 63 98q29 13 59 21q97 26 149.5 50t102 24t121 -31t128.5 -83q45 106 59 163q0 14 -41 39l25 61q46 -25 50.5 -25t4.5 2l2 -2q4 8 4 27l-2 49h60q4 -62 14 -82q16 -12 37.5 -12t56.5 12l4 -71
q-58 -13 -61 -31q-27 -95 -112 -266q22 -31 63.5 -60.5t61.5 -48.5q44 -40 44 -100q0 -29 16 -58.5t42.5 -29.5t58.5 12l8 -24q-45 -15 -58.5 -26.5t-13.5 -29.5l19 -211q0 -65 -45 -175q-53 -133 -53 -159.5t13 -39t52 -31.5l-10 -21q-46 21 -64.5 21t-27 -10t-35 -39
t-33.5 -36.5t-30 -31.5t-34.5 -35.5t-30.5 -31.5q-25 -25 -55 -51t-30 -44.5t16 -62.5l-20 -8q-18 48 -29.5 60.5t-32.5 12.5h-6q-28 0 -44.5 -13.5t-33.5 -61.5l-30 12q14 41 14 63t-14 34.5t-37 17t-47 8.5q-61 10 -84 54q-41 -78 -88 -140l14 -7l-14 -43l-31 11l-6 -48
l-47 3zM898 1067l-34 -2q-89 -202 -151 -369.5t-68 -183.5q2 1 3 2l19 -27q-32 -19 -45 -35q-11 -28 -5 -38t8 -16t2.5 -8.5t3 -6.5t5.5 -5q9 -5 18 -5h13q22 0 37 -12.5t18 -12.5h55q9 0 11 2l32 17q2 1 16 29q48 97 62 113t16.5 46t12.5 37q7 14 12.5 52t15 51t9.5 20v227
q0 125 -66 125zM401 1149q-19 0 -19 -25v-90q0 -48 44 -150q87 -202 101 -295q85 240 117 304q11 54 94.5 234.5t98.5 213.5q-24 48 -47 74q-22 -12 -27 -67l-43 4q2 10 2 32q0 64 -80 64q-9 0 -50.5 -16.5t-44 -19.5t-11.5 -19l-14 -24q-13 -24 -13 -44t59 -53l-10 -17
q-50 27 -64.5 27t-27 -18.5t-20.5 -41.5q-20 -62 -45 -73zM910 1168q-17 -37 -34 -75q45 9 50.5 19.5t5 19.5t-5.5 14q-13 15 -16 22zM269 416l-6 2q4 0 6 -2z" />
    <glyph glyph-name="Ugrave" unicode="&#xd9;" 
d="M501 1844q0 10 -30.5 33t-30.5 33q0 15 -37.5 35t-74.5 39t-37 34q0 73 -130 133q0 7 -21 9l-84 -2q-12 -17 -29 -17q-10 0 -31 -62l-20 8q7 44 7 98q-11 79 -59 122q-10 12 -10 20l-49 35l18 19l46 -33q0 47 46 47l31 -1q-15 0 -19 185l13 9q51 -48 51 -64q0 -6 32 -16
l153 -111h-3l-1 -18q90 -66 90 -156q10 -33 160 -85q11 2 109 7l3 -13q-54 -27 -87 -32q8 -8 10 -36l44 -39q-8 -15 115 -15q1 0 16 23t39 73l36 -17q-40 -83 -40 -137q6 -22 43.5 -57t46.5 -35l45 -35l-80 -156l-52 29q-52 30 -104 71.5t-52 64.5zM1337 874l2 -61
q0 -77 -43 -115q-4 -8 -4 -10q0 -141 -59 -201q-8 -11 -8 -16q-2 -96 -50.5 -186t-130.5 -131q-10 0 -10 -12.5t10 -57.5l-10 -6q-13 36 -19.5 46.5t-15.5 10.5q-36 0 -97.5 -42.5t-81.5 -44t-32 -11.5l-36 -60q-12 -12 -14.5 -26t-4.5 -22q-9 -35 -10 -44h-8q10 46 10 86.5
t-37.5 98.5t-91.5 102q-114 93 -197 113l2 6q58 -10 69 -10t16 4q7 5 7 20q-16 18 -59 159q-122 392 -174 392q-7 0 -61 -12l-2 24q60 15 61 15q20 9 20 35l2 73v37q0 163 -50 244q-48 78 -150 80q-18 0 -32.5 -9.5t-41.5 -44.5l-14 11q39 51 39 69v15l-9 30q-5 16 -17 26.5
t-52 27.5l6 14q40 -18 56.5 -18t48 14t36.5 14l2 -2q0 27 -49 76l10 12q49 -47 76 -47l203 10q13 0 18 2q13 6 17 62h18q0 -55 7.5 -60t21.5 -6l67 -10q3 0 11 4l84 47q27 11 53 80l10 -6q-20 -53 -20 -67.5t4 -26.5l35 -99q6 0 12 -18q20 0 69 49l9 -6q-49 -51 -49 -72v-6
q0 -13 16 -25.5t41 -27.5l-6 -10q-48 26 -57 26t-17 -4q-47 -28 -127 -28h-23q-21 0 -30.5 -22t-9.5 -50.5t3.5 -63.5t12.5 -78q18 -96 80 -96q12 0 43 6l6 -22q-41 -11 -52.5 -22.5t-11.5 -30.5v-92q0 -8 10 -21.5t11.5 -61t11.5 -63.5q37 -41 72 -203q12 -55 10 -53
l115 -121q8 -4 16 -4h172q80 100 85 121q12 50 12 72t-10.5 30t-47.5 23l6 12q32 -12 56 -12t36 39.5t15.5 90t5.5 56.5l10 179q0 59 -11.5 152t-37.5 159l-55 108q-9 13 -21 13h-16q-19 0 -29.5 -16t-23.5 -46l-17 8q19 39 19 52t-5.5 22.5t-16 23t-19.5 25t-22 26.5
l-17 21q-31 28 -94 47l4 13q54 -19 73 -19l138 19h6q23 0 43 61l16 -6q-12 -37 -12 -54.5t12 -21.5q36 -28 51 -28t15 4q0 19 -9 34t-40 48l10 10q46 -47 78 -51l264 -13q21 0 26 62h19v-35q0 -26 6 -29t14 -4h4q5 -2 23.5 -2t69.5 25l4 -13q-67 -28 -80 -51l-84 -123
q-8 -16 -8 -25.5t30 -53.5l-16 -9q-38 45 -51 45t-35 -10q-37 -10 -37 -115t37 -174q3 -15 29 -22l51 -2l-2 -25q-33 2 -50 1q-27 -2 -32 -19q-27 -39 -27 -99z" />
    <glyph glyph-name="Uacute" unicode="&#xda;" 
d="M1264 2210l27 96l17 -9l-11 -45q2 -41 10 -41l58 -37q30 0 44 2l6 75l16 1q7 -91 8 -98l14 -27q6 -10 10 -10q33 0 95 23l5 -13q-71 -34 -71 -46l-4 -20q1 -16 58 -64l-14 -26q-44 44 -54 44q-30 0 -74 -13.5t-44 -26.5q0 -24 24 -73l-19 -11q-27 56 -43 56
q-85 0 -134 -15q-20 -7 -20 -13.5t-4 -10.5l-11 -24q0 -28 7.5 -43.5t35.5 -35.5l-16 -16q-34 37 -45 37q-51 0 -150.5 -60t-113 -64.5t-26.5 -8t-13 -7.5l-125 -12q0 -5 -0.5 -5t-3.5 5q-26 47 -57 47q6 0 9 102q110 30 287 133q57 34 91.5 42t76.5 63.5t42 88t-20 88.5
l19 8q33 -66 47 -66l29 -6q14 4 23 8q4 1 7 4t5 4.5t2 9.5v10zM1337 874l2 -61q0 -77 -43 -115q-4 -8 -4 -10q0 -141 -59 -201q-8 -11 -8 -16q-2 -96 -50.5 -186t-130.5 -131q-10 0 -10 -12.5t10 -57.5l-10 -6q-13 36 -19.5 46.5t-15.5 10.5q-36 0 -97.5 -42.5t-81.5 -44
t-32 -11.5l-36 -60q-12 -12 -14.5 -26t-4.5 -22q-9 -35 -10 -44h-8q10 46 10 86.5t-37.5 98.5t-91.5 102q-114 93 -197 113l2 6q58 -10 69 -10t16 4q7 5 7 20q-16 18 -59 159q-122 392 -174 392q-7 0 -61 -12l-2 24q60 15 61 15q20 9 20 35l2 73v37q0 163 -50 244
q-48 78 -150 80q-18 0 -32.5 -9.5t-41.5 -44.5l-14 11q39 51 39 69v15l-9 30q-5 16 -17 26.5t-52 27.5l6 14q40 -18 56.5 -18t48 14t36.5 14l2 -2q0 27 -49 76l10 12q49 -47 76 -47l203 10q13 0 18 2q13 6 17 62h18q0 -55 7.5 -60t21.5 -6l67 -10q3 0 11 4l84 47
q27 11 53 80l10 -6q-20 -53 -20 -67.5t4 -26.5l35 -99q6 0 12 -18q20 0 69 49l9 -6q-49 -51 -49 -72v-6q0 -13 16 -25.5t41 -27.5l-6 -10q-48 26 -57 26t-17 -4q-47 -28 -127 -28h-23q-21 0 -30.5 -22t-9.5 -50.5t3.5 -63.5t12.5 -78q18 -96 80 -96q12 0 43 6l6 -22
q-41 -11 -52.5 -22.5t-11.5 -30.5v-92q0 -8 10 -21.5t11.5 -61t11.5 -63.5q37 -41 72 -203q12 -55 10 -53l115 -121q8 -4 16 -4h172q80 100 85 121q12 50 12 72t-10.5 30t-47.5 23l6 12q32 -12 56 -12t36 39.5t15.5 90t5.5 56.5l10 179q0 59 -11.5 152t-37.5 159l-55 108
q-9 13 -21 13h-16q-19 0 -29.5 -16t-23.5 -46l-17 8q19 39 19 52t-5.5 22.5t-16 23t-19.5 25t-22 26.5l-17 21q-31 28 -94 47l4 13q54 -19 73 -19l138 19h6q23 0 43 61l16 -6q-12 -37 -12 -54.5t12 -21.5q36 -28 51 -28t15 4q0 19 -9 34t-40 48l10 10q46 -47 78 -51l264 -13
q21 0 26 62h19v-35q0 -26 6 -29t14 -4h4q5 -2 23.5 -2t69.5 25l4 -13q-67 -28 -80 -51l-84 -123q-8 -16 -8 -25.5t30 -53.5l-16 -9q-38 45 -51 45t-35 -10q-37 -10 -37 -115t37 -174q3 -15 29 -22l51 -2l-2 -25q-33 2 -50 1q-27 -2 -32 -19q-27 -39 -27 -99z" />
    </font>
</defs>
</svg>
